<svg xmlns="http://www.w3.org/2000/svg" width="30" height="30" viewBox="0 0 30 30">
    <defs>
        <linearGradient id="id07mj6jea" x1="50%" x2="50%" y1="0%" y2="100%">
            <stop offset="0%" stop-color="#FE8578"/>
            <stop offset="100%" stop-color="#FD7768"/>
        </linearGradient>
    </defs>
    <g fill="none" fill-rule="evenodd">
        <g>
            <g>
                <g>
                    <g transform="translate(-285 -395) translate(30 387) translate(240) translate(15 8)">
                        <path fill="#F6F8FA" fill-opacity="0" d="M0 0L30 0 30 30 0 30z"/>
                        <circle cx="7" cy="15" r="1" fill="#FD786A"/>
                        <path fill="#222" fill-rule="nonzero" d="M24 5.25H6C4.481 5.25 3.25 6.481 3.25 8v14c0 1.519 1.231 2.75 2.75 2.75h18c1.519 0 2.75-1.231 2.75-2.75V8c0-1.519-1.231-2.75-2.75-2.75zM6 6.75h18c.69 0 1.25.56 1.25 1.25v14c0 .69-.56 1.25-1.25 1.25H6c-.69 0-1.25-.56-1.25-1.25V8c0-.69.56-1.25 1.25-1.25z"/>
                        <path fill="url(#id07mj6jea)" d="M11 8h12c.552 0 1 .448 1 1v12c0 .552-.448 1-1 1H11c-.552 0-1-.448-1-1V9c0-.552.448-1 1-1z"/>
                    </g>
                </g>
            </g>
        </g>
    </g>
</svg>
