<svg width="200" height="200" viewBox="0 0 200 200" xmlns="http://www.w3.org/2000/svg">
    <g fill="none" fill-rule="evenodd">
        <path fill="#A4A6EA" d="M0 200h200V0H0z"/>
        <g fill="#D3D3F2">
            <path d="M12.75 4.757v.064a.467.467 0 0 1-.468.468H9.718a.467.467 0 0 1-.468-.468v-.064c0-.258.209-.468.468-.468h2.564c.259 0 .468.21.468.468M12.75 13.757v.064a.467.467 0 0 1-.468.468H9.718a.467.467 0 0 1-.468-.468v-.064c0-.258.209-.468.468-.468h2.564c.259 0 .468.21.468.468M12.75 22.757v.064a.467.467 0 0 1-.468.468H9.718a.467.467 0 0 1-.468-.468v-.064c0-.258.209-.468.468-.468h2.564c.259 0 .468.21.468.468M12.75 31.757v.064a.467.467 0 0 1-.468.468H9.718a.467.467 0 0 1-.468-.468v-.064c0-.258.209-.468.468-.468h2.564c.259 0 .468.21.468.468M12.75 40.757v.064a.467.467 0 0 1-.468.468H9.718a.467.467 0 0 1-.468-.468v-.064c0-.258.209-.468.468-.468h2.564c.259 0 .468.21.468.468M12.75 49.757v.064a.467.467 0 0 1-.468.468H9.718a.467.467 0 0 1-.468-.468v-.064c0-.258.209-.468.468-.468h2.564c.259 0 .468.21.468.468M12.75 58.757v.064a.467.467 0 0 1-.468.468H9.718a.467.467 0 0 1-.468-.468v-.064c0-.258.209-.468.468-.468h2.564c.259 0 .468.21.468.468M12.75 67.757v.064a.467.467 0 0 1-.468.468H9.718a.467.467 0 0 1-.468-.468v-.064c0-.258.209-.468.468-.468h2.564c.259 0 .468.21.468.468M12.75 76.757v.064a.467.467 0 0 1-.468.468H9.718a.467.467 0 0 1-.468-.468v-.064c0-.258.209-.468.468-.468h2.564c.259 0 .468.21.468.468M12.75 85.757v.064a.467.467 0 0 1-.468.468H9.718a.467.467 0 0 1-.468-.468v-.064c0-.258.209-.468.468-.468h2.564c.259 0 .468.21.468.468M12.75 94.757v.064a.467.467 0 0 1-.468.468H9.718a.467.467 0 0 1-.468-.468v-.064c0-.258.209-.468.468-.468h2.564c.259 0 .468.21.468.468M12.75 103.758v.064a.468.468 0 0 1-.468.468H9.718a.468.468 0 0 1-.468-.468v-.064c0-.26.209-.468.468-.468h2.564c.259 0 .468.209.468.468M12.75 112.758v.064a.468.468 0 0 1-.468.468H9.718a.468.468 0 0 1-.468-.468v-.064c0-.26.209-.468.468-.468h2.564c.259 0 .468.209.468.468M12.75 121.758v.064a.468.468 0 0 1-.468.468H9.718a.468.468 0 0 1-.468-.468v-.064c0-.26.209-.468.468-.468h2.564c.259 0 .468.209.468.468M12.75 130.758v.064a.468.468 0 0 1-.468.468H9.718a.468.468 0 0 1-.468-.468v-.064c0-.26.209-.468.468-.468h2.564c.259 0 .468.209.468.468M12.75 139.758v.064a.468.468 0 0 1-.468.468H9.718a.468.468 0 0 1-.468-.468v-.064c0-.26.209-.468.468-.468h2.564c.259 0 .468.209.468.468M12.75 148.758v.064a.468.468 0 0 1-.468.468H9.718a.468.468 0 0 1-.468-.468v-.064c0-.26.209-.468.468-.468h2.564c.259 0 .468.209.468.468M12.75 157.758v.064a.468.468 0 0 1-.468.468H9.718a.468.468 0 0 1-.468-.468v-.064c0-.26.209-.468.468-.468h2.564c.259 0 .468.209.468.468M12.75 166.758v.064a.468.468 0 0 1-.468.468H9.718a.468.468 0 0 1-.468-.468v-.064c0-.26.209-.468.468-.468h2.564c.259 0 .468.209.468.468M12.75 175.758v.064a.468.468 0 0 1-.468.468H9.718a.468.468 0 0 1-.468-.468v-.064c0-.26.209-.468.468-.468h2.564c.259 0 .468.209.468.468M12.75 184.758v.064a.468.468 0 0 1-.468.468H9.718a.468.468 0 0 1-.468-.468v-.064c0-.26.209-.468.468-.468h2.564c.259 0 .468.209.468.468M12.75 193.758v.064a.468.468 0 0 1-.468.468H9.718a.468.468 0 0 1-.468-.468v-.064c0-.26.209-.468.468-.468h2.564c.259 0 .468.209.468.468M6.75 8.968v.064a.467.467 0 0 1-.468.468H3.718a.467.467 0 0 1-.468-.468v-.064c0-.258.209-.468.468-.468h2.564c.259 0 .468.21.468.468M6.75 17.968v.064a.467.467 0 0 1-.468.468H3.718a.467.467 0 0 1-.468-.468v-.064c0-.258.209-.468.468-.468h2.564c.259 0 .468.21.468.468M6.75 26.968v.064a.467.467 0 0 1-.468.468H3.718a.467.467 0 0 1-.468-.468v-.064c0-.258.209-.468.468-.468h2.564c.259 0 .468.21.468.468M6.75 35.968v.064a.467.467 0 0 1-.468.468H3.718a.467.467 0 0 1-.468-.468v-.064c0-.258.209-.468.468-.468h2.564c.259 0 .468.21.468.468M6.75 44.968v.064a.467.467 0 0 1-.468.468H3.718a.467.467 0 0 1-.468-.468v-.064c0-.258.209-.468.468-.468h2.564c.259 0 .468.21.468.468M6.75 53.968v.064a.467.467 0 0 1-.468.468H3.718a.467.467 0 0 1-.468-.468v-.064c0-.258.209-.468.468-.468h2.564c.259 0 .468.21.468.468M6.75 62.968v.064a.467.467 0 0 1-.468.468H3.718a.467.467 0 0 1-.468-.468v-.064c0-.258.209-.468.468-.468h2.564c.259 0 .468.21.468.468M6.75 71.968v.064a.467.467 0 0 1-.468.468H3.718a.467.467 0 0 1-.468-.468v-.064c0-.258.209-.468.468-.468h2.564c.259 0 .468.21.468.468M6.75 80.968v.064a.467.467 0 0 1-.468.468H3.718a.467.467 0 0 1-.468-.468v-.064c0-.258.209-.468.468-.468h2.564c.259 0 .468.21.468.468M6.75 89.968v.064a.467.467 0 0 1-.468.468H3.718a.467.467 0 0 1-.468-.468v-.064c0-.258.209-.468.468-.468h2.564c.259 0 .468.21.468.468M6.75 98.968v.064a.467.467 0 0 1-.468.468H3.718a.467.467 0 0 1-.468-.468v-.064c0-.258.209-.468.468-.468h2.564c.259 0 .468.21.468.468M6.75 107.968v.064a.467.467 0 0 1-.468.468H3.718a.467.467 0 0 1-.468-.468v-.064c0-.26.209-.468.468-.468h2.564c.259 0 .468.209.468.468M6.75 116.968v.064a.467.467 0 0 1-.468.468H3.718a.467.467 0 0 1-.468-.468v-.064c0-.26.209-.468.468-.468h2.564c.259 0 .468.209.468.468M6.75 125.968v.064a.467.467 0 0 1-.468.468H3.718a.467.467 0 0 1-.468-.468v-.064c0-.26.209-.468.468-.468h2.564c.259 0 .468.209.468.468M6.75 134.968v.064a.467.467 0 0 1-.468.468H3.718a.467.467 0 0 1-.468-.468v-.064c0-.26.209-.468.468-.468h2.564c.259 0 .468.209.468.468M6.75 143.968v.064a.467.467 0 0 1-.468.468H3.718a.467.467 0 0 1-.468-.468v-.064c0-.26.209-.468.468-.468h2.564c.259 0 .468.209.468.468M6.75 152.968v.064a.467.467 0 0 1-.468.468H3.718a.467.467 0 0 1-.468-.468v-.064c0-.26.209-.468.468-.468h2.564c.259 0 .468.209.468.468M6.75 161.968v.064a.467.467 0 0 1-.468.468H3.718a.467.467 0 0 1-.468-.468v-.064c0-.26.209-.468.468-.468h2.564c.259 0 .468.209.468.468M6.75 170.968v.064a.467.467 0 0 1-.468.468H3.718a.467.467 0 0 1-.468-.468v-.064c0-.26.209-.468.468-.468h2.564c.259 0 .468.209.468.468M6.75 179.968v.064a.467.467 0 0 1-.468.468H3.718a.467.467 0 0 1-.468-.468v-.064c0-.26.209-.468.468-.468h2.564c.259 0 .468.209.468.468M6.75 188.968v.064a.467.467 0 0 1-.468.468H3.718a.467.467 0 0 1-.468-.468v-.064c0-.26.209-.468.468-.468h2.564c.259 0 .468.209.468.468M6.75 197.968v.064a.467.467 0 0 1-.468.468H3.718a.467.467 0 0 1-.468-.468v-.064c0-.26.209-.468.468-.468h2.564c.259 0 .468.209.468.468M18.75 8.968v.064a.467.467 0 0 1-.468.468h-2.564a.467.467 0 0 1-.468-.468v-.064c0-.258.209-.468.468-.468h2.564c.259 0 .468.21.468.468M18.75 17.968v.064a.467.467 0 0 1-.468.468h-2.564a.467.467 0 0 1-.468-.468v-.064c0-.258.209-.468.468-.468h2.564c.259 0 .468.21.468.468M18.75 26.968v.064a.467.467 0 0 1-.468.468h-2.564a.467.467 0 0 1-.468-.468v-.064c0-.258.209-.468.468-.468h2.564c.259 0 .468.21.468.468M18.75 35.968v.064a.467.467 0 0 1-.468.468h-2.564a.467.467 0 0 1-.468-.468v-.064c0-.258.209-.468.468-.468h2.564c.259 0 .468.21.468.468M18.75 44.968v.064a.467.467 0 0 1-.468.468h-2.564a.467.467 0 0 1-.468-.468v-.064c0-.258.209-.468.468-.468h2.564c.259 0 .468.21.468.468M18.75 53.968v.064a.467.467 0 0 1-.468.468h-2.564a.467.467 0 0 1-.468-.468v-.064c0-.258.209-.468.468-.468h2.564c.259 0 .468.21.468.468M18.75 62.968v.064a.467.467 0 0 1-.468.468h-2.564a.467.467 0 0 1-.468-.468v-.064c0-.258.209-.468.468-.468h2.564c.259 0 .468.21.468.468M18.75 71.968v.064a.467.467 0 0 1-.468.468h-2.564a.467.467 0 0 1-.468-.468v-.064c0-.258.209-.468.468-.468h2.564c.259 0 .468.21.468.468M18.75 80.968v.064a.467.467 0 0 1-.468.468h-2.564a.467.467 0 0 1-.468-.468v-.064c0-.258.209-.468.468-.468h2.564c.259 0 .468.21.468.468M18.75 89.968v.064a.467.467 0 0 1-.468.468h-2.564a.467.467 0 0 1-.468-.468v-.064c0-.258.209-.468.468-.468h2.564c.259 0 .468.21.468.468M18.75 98.968v.064a.467.467 0 0 1-.468.468h-2.564a.467.467 0 0 1-.468-.468v-.064c0-.258.209-.468.468-.468h2.564c.259 0 .468.21.468.468M18.75 107.968v.064a.467.467 0 0 1-.468.468h-2.564a.467.467 0 0 1-.468-.468v-.064c0-.26.209-.468.468-.468h2.564c.259 0 .468.209.468.468M18.75 116.968v.064a.467.467 0 0 1-.468.468h-2.564a.467.467 0 0 1-.468-.468v-.064c0-.26.209-.468.468-.468h2.564c.259 0 .468.209.468.468M18.75 125.968v.064a.467.467 0 0 1-.468.468h-2.564a.467.467 0 0 1-.468-.468v-.064c0-.26.209-.468.468-.468h2.564c.259 0 .468.209.468.468M18.75 134.968v.064a.467.467 0 0 1-.468.468h-2.564a.467.467 0 0 1-.468-.468v-.064c0-.26.209-.468.468-.468h2.564c.259 0 .468.209.468.468M18.75 143.968v.064a.467.467 0 0 1-.468.468h-2.564a.467.467 0 0 1-.468-.468v-.064c0-.26.209-.468.468-.468h2.564c.259 0 .468.209.468.468M18.75 152.968v.064a.467.467 0 0 1-.468.468h-2.564a.467.467 0 0 1-.468-.468v-.064c0-.26.209-.468.468-.468h2.564c.259 0 .468.209.468.468M18.75 161.968v.064a.467.467 0 0 1-.468.468h-2.564a.467.467 0 0 1-.468-.468v-.064c0-.26.209-.468.468-.468h2.564c.259 0 .468.209.468.468M18.75 170.968v.064a.467.467 0 0 1-.468.468h-2.564a.467.467 0 0 1-.468-.468v-.064c0-.26.209-.468.468-.468h2.564c.259 0 .468.209.468.468M18.75 179.968v.064a.467.467 0 0 1-.468.468h-2.564a.467.467 0 0 1-.468-.468v-.064c0-.26.209-.468.468-.468h2.564c.259 0 .468.209.468.468M18.75 188.968v.064a.467.467 0 0 1-.468.468h-2.564a.467.467 0 0 1-.468-.468v-.064c0-.26.209-.468.468-.468h2.564c.259 0 .468.209.468.468M18.75 197.968v.064a.467.467 0 0 1-.468.468h-2.564a.467.467 0 0 1-.468-.468v-.064c0-.26.209-.468.468-.468h2.564c.259 0 .468.209.468.468M24.75 4.757v.064a.467.467 0 0 1-.468.468h-2.564a.467.467 0 0 1-.468-.468v-.064c0-.258.209-.468.468-.468h2.564c.259 0 .468.21.468.468M24.75 13.757v.064a.467.467 0 0 1-.468.468h-2.564a.467.467 0 0 1-.468-.468v-.064c0-.258.209-.468.468-.468h2.564c.259 0 .468.21.468.468M24.75 22.757v.064a.467.467 0 0 1-.468.468h-2.564a.467.467 0 0 1-.468-.468v-.064c0-.258.209-.468.468-.468h2.564c.259 0 .468.21.468.468M24.75 31.757v.064a.467.467 0 0 1-.468.468h-2.564a.467.467 0 0 1-.468-.468v-.064c0-.258.209-.468.468-.468h2.564c.259 0 .468.21.468.468M24.75 40.757v.064a.467.467 0 0 1-.468.468h-2.564a.467.467 0 0 1-.468-.468v-.064c0-.258.209-.468.468-.468h2.564c.259 0 .468.21.468.468M24.75 49.757v.064a.467.467 0 0 1-.468.468h-2.564a.467.467 0 0 1-.468-.468v-.064c0-.258.209-.468.468-.468h2.564c.259 0 .468.21.468.468M24.75 58.757v.064a.467.467 0 0 1-.468.468h-2.564a.467.467 0 0 1-.468-.468v-.064c0-.258.209-.468.468-.468h2.564c.259 0 .468.21.468.468M24.75 67.757v.064a.467.467 0 0 1-.468.468h-2.564a.467.467 0 0 1-.468-.468v-.064c0-.258.209-.468.468-.468h2.564c.259 0 .468.21.468.468M24.75 76.757v.064a.467.467 0 0 1-.468.468h-2.564a.467.467 0 0 1-.468-.468v-.064c0-.258.209-.468.468-.468h2.564c.259 0 .468.21.468.468M24.75 85.757v.064a.467.467 0 0 1-.468.468h-2.564a.467.467 0 0 1-.468-.468v-.064c0-.258.209-.468.468-.468h2.564c.259 0 .468.21.468.468M24.75 94.757v.064a.467.467 0 0 1-.468.468h-2.564a.467.467 0 0 1-.468-.468v-.064c0-.258.209-.468.468-.468h2.564c.259 0 .468.21.468.468M24.75 103.758v.064a.468.468 0 0 1-.468.468h-2.564a.468.468 0 0 1-.468-.468v-.064c0-.26.209-.468.468-.468h2.564c.259 0 .468.209.468.468M24.75 112.758v.064a.468.468 0 0 1-.468.468h-2.564a.468.468 0 0 1-.468-.468v-.064c0-.26.209-.468.468-.468h2.564c.259 0 .468.209.468.468M24.75 121.758v.064a.468.468 0 0 1-.468.468h-2.564a.468.468 0 0 1-.468-.468v-.064c0-.26.209-.468.468-.468h2.564c.259 0 .468.209.468.468M24.75 130.758v.064a.468.468 0 0 1-.468.468h-2.564a.468.468 0 0 1-.468-.468v-.064c0-.26.209-.468.468-.468h2.564c.259 0 .468.209.468.468M24.75 139.758v.064a.468.468 0 0 1-.468.468h-2.564a.468.468 0 0 1-.468-.468v-.064c0-.26.209-.468.468-.468h2.564c.259 0 .468.209.468.468M24.75 148.758v.064a.468.468 0 0 1-.468.468h-2.564a.468.468 0 0 1-.468-.468v-.064c0-.26.209-.468.468-.468h2.564c.259 0 .468.209.468.468M24.75 157.758v.064a.468.468 0 0 1-.468.468h-2.564a.468.468 0 0 1-.468-.468v-.064c0-.26.209-.468.468-.468h2.564c.259 0 .468.209.468.468M24.75 166.758v.064a.468.468 0 0 1-.468.468h-2.564a.468.468 0 0 1-.468-.468v-.064c0-.26.209-.468.468-.468h2.564c.259 0 .468.209.468.468M24.75 175.758v.064a.468.468 0 0 1-.468.468h-2.564a.468.468 0 0 1-.468-.468v-.064c0-.26.209-.468.468-.468h2.564c.259 0 .468.209.468.468M24.75 184.758v.064a.468.468 0 0 1-.468.468h-2.564a.468.468 0 0 1-.468-.468v-.064c0-.26.209-.468.468-.468h2.564c.259 0 .468.209.468.468M24.75 193.758v.064a.468.468 0 0 1-.468.468h-2.564a.468.468 0 0 1-.468-.468v-.064c0-.26.209-.468.468-.468h2.564c.259 0 .468.209.468.468M30.75 8.968v.064a.467.467 0 0 1-.468.468h-2.564a.467.467 0 0 1-.468-.468v-.064c0-.258.209-.468.468-.468h2.564c.259 0 .468.21.468.468M30.75 17.968v.064a.467.467 0 0 1-.468.468h-2.564a.467.467 0 0 1-.468-.468v-.064c0-.258.209-.468.468-.468h2.564c.259 0 .468.21.468.468M30.75 26.968v.064a.467.467 0 0 1-.468.468h-2.564a.467.467 0 0 1-.468-.468v-.064c0-.258.209-.468.468-.468h2.564c.259 0 .468.21.468.468M30.75 35.968v.064a.467.467 0 0 1-.468.468h-2.564a.467.467 0 0 1-.468-.468v-.064c0-.258.209-.468.468-.468h2.564c.259 0 .468.21.468.468M30.75 44.968v.064a.467.467 0 0 1-.468.468h-2.564a.467.467 0 0 1-.468-.468v-.064c0-.258.209-.468.468-.468h2.564c.259 0 .468.21.468.468M30.75 53.968v.064a.467.467 0 0 1-.468.468h-2.564a.467.467 0 0 1-.468-.468v-.064c0-.258.209-.468.468-.468h2.564c.259 0 .468.21.468.468M30.75 62.968v.064a.467.467 0 0 1-.468.468h-2.564a.467.467 0 0 1-.468-.468v-.064c0-.258.209-.468.468-.468h2.564c.259 0 .468.21.468.468M30.75 71.968v.064a.467.467 0 0 1-.468.468h-2.564a.467.467 0 0 1-.468-.468v-.064c0-.258.209-.468.468-.468h2.564c.259 0 .468.21.468.468M30.75 80.968v.064a.467.467 0 0 1-.468.468h-2.564a.467.467 0 0 1-.468-.468v-.064c0-.258.209-.468.468-.468h2.564c.259 0 .468.21.468.468M30.75 89.968v.064a.467.467 0 0 1-.468.468h-2.564a.467.467 0 0 1-.468-.468v-.064c0-.258.209-.468.468-.468h2.564c.259 0 .468.21.468.468M30.75 98.968v.064a.467.467 0 0 1-.468.468h-2.564a.467.467 0 0 1-.468-.468v-.064c0-.258.209-.468.468-.468h2.564c.259 0 .468.21.468.468M30.75 107.968v.064a.467.467 0 0 1-.468.468h-2.564a.467.467 0 0 1-.468-.468v-.064c0-.26.209-.468.468-.468h2.564c.259 0 .468.209.468.468M30.75 116.968v.064a.467.467 0 0 1-.468.468h-2.564a.467.467 0 0 1-.468-.468v-.064c0-.26.209-.468.468-.468h2.564c.259 0 .468.209.468.468M30.75 125.968v.064a.467.467 0 0 1-.468.468h-2.564a.467.467 0 0 1-.468-.468v-.064c0-.26.209-.468.468-.468h2.564c.259 0 .468.209.468.468M30.75 134.968v.064a.467.467 0 0 1-.468.468h-2.564a.467.467 0 0 1-.468-.468v-.064c0-.26.209-.468.468-.468h2.564c.259 0 .468.209.468.468M30.75 143.968v.064a.467.467 0 0 1-.468.468h-2.564a.467.467 0 0 1-.468-.468v-.064c0-.26.209-.468.468-.468h2.564c.259 0 .468.209.468.468M30.75 152.968v.064a.467.467 0 0 1-.468.468h-2.564a.467.467 0 0 1-.468-.468v-.064c0-.26.209-.468.468-.468h2.564c.259 0 .468.209.468.468M30.75 161.968v.064a.467.467 0 0 1-.468.468h-2.564a.467.467 0 0 1-.468-.468v-.064c0-.26.209-.468.468-.468h2.564c.259 0 .468.209.468.468M30.75 170.968v.064a.467.467 0 0 1-.468.468h-2.564a.467.467 0 0 1-.468-.468v-.064c0-.26.209-.468.468-.468h2.564c.259 0 .468.209.468.468M30.75 179.968v.064a.467.467 0 0 1-.468.468h-2.564a.467.467 0 0 1-.468-.468v-.064c0-.26.209-.468.468-.468h2.564c.259 0 .468.209.468.468M30.75 188.968v.064a.467.467 0 0 1-.468.468h-2.564a.467.467 0 0 1-.468-.468v-.064c0-.26.209-.468.468-.468h2.564c.259 0 .468.209.468.468M30.75 197.968v.064a.467.467 0 0 1-.468.468h-2.564a.467.467 0 0 1-.468-.468v-.064c0-.26.209-.468.468-.468h2.564c.259 0 .468.209.468.468M35.75 4.757v.064a.467.467 0 0 1-.468.468h-2.564a.467.467 0 0 1-.468-.468v-.064c0-.258.209-.468.468-.468h2.564c.259 0 .468.21.468.468M35.75 13.757v.064a.467.467 0 0 1-.468.468h-2.564a.467.467 0 0 1-.468-.468v-.064c0-.258.209-.468.468-.468h2.564c.259 0 .468.21.468.468M35.75 22.757v.064a.467.467 0 0 1-.468.468h-2.564a.467.467 0 0 1-.468-.468v-.064c0-.258.209-.468.468-.468h2.564c.259 0 .468.21.468.468M35.75 31.757v.064a.467.467 0 0 1-.468.468h-2.564a.467.467 0 0 1-.468-.468v-.064c0-.258.209-.468.468-.468h2.564c.259 0 .468.21.468.468M35.75 40.757v.064a.467.467 0 0 1-.468.468h-2.564a.467.467 0 0 1-.468-.468v-.064c0-.258.209-.468.468-.468h2.564c.259 0 .468.21.468.468M35.75 49.757v.064a.467.467 0 0 1-.468.468h-2.564a.467.467 0 0 1-.468-.468v-.064c0-.258.209-.468.468-.468h2.564c.259 0 .468.21.468.468M35.75 58.757v.064a.467.467 0 0 1-.468.468h-2.564a.467.467 0 0 1-.468-.468v-.064c0-.258.209-.468.468-.468h2.564c.259 0 .468.21.468.468M35.75 67.757v.064a.467.467 0 0 1-.468.468h-2.564a.467.467 0 0 1-.468-.468v-.064c0-.258.209-.468.468-.468h2.564c.259 0 .468.21.468.468M35.75 76.757v.064a.467.467 0 0 1-.468.468h-2.564a.467.467 0 0 1-.468-.468v-.064c0-.258.209-.468.468-.468h2.564c.259 0 .468.21.468.468M35.75 85.757v.064a.467.467 0 0 1-.468.468h-2.564a.467.467 0 0 1-.468-.468v-.064c0-.258.209-.468.468-.468h2.564c.259 0 .468.21.468.468M35.75 94.757v.064a.467.467 0 0 1-.468.468h-2.564a.467.467 0 0 1-.468-.468v-.064c0-.258.209-.468.468-.468h2.564c.259 0 .468.21.468.468M35.75 103.758v.064a.468.468 0 0 1-.468.468h-2.564a.468.468 0 0 1-.468-.468v-.064c0-.26.209-.468.468-.468h2.564c.259 0 .468.209.468.468M35.75 112.758v.064a.468.468 0 0 1-.468.468h-2.564a.468.468 0 0 1-.468-.468v-.064c0-.26.209-.468.468-.468h2.564c.259 0 .468.209.468.468M35.75 121.758v.064a.468.468 0 0 1-.468.468h-2.564a.468.468 0 0 1-.468-.468v-.064c0-.26.209-.468.468-.468h2.564c.259 0 .468.209.468.468M35.75 130.758v.064a.468.468 0 0 1-.468.468h-2.564a.468.468 0 0 1-.468-.468v-.064c0-.26.209-.468.468-.468h2.564c.259 0 .468.209.468.468M35.75 139.758v.064a.468.468 0 0 1-.468.468h-2.564a.468.468 0 0 1-.468-.468v-.064c0-.26.209-.468.468-.468h2.564c.259 0 .468.209.468.468M35.75 148.758v.064a.468.468 0 0 1-.468.468h-2.564a.468.468 0 0 1-.468-.468v-.064c0-.26.209-.468.468-.468h2.564c.259 0 .468.209.468.468M35.75 157.758v.064a.468.468 0 0 1-.468.468h-2.564a.468.468 0 0 1-.468-.468v-.064c0-.26.209-.468.468-.468h2.564c.259 0 .468.209.468.468M35.75 166.758v.064a.468.468 0 0 1-.468.468h-2.564a.468.468 0 0 1-.468-.468v-.064c0-.26.209-.468.468-.468h2.564c.259 0 .468.209.468.468M35.75 175.758v.064a.468.468 0 0 1-.468.468h-2.564a.468.468 0 0 1-.468-.468v-.064c0-.26.209-.468.468-.468h2.564c.259 0 .468.209.468.468M35.75 184.758v.064a.468.468 0 0 1-.468.468h-2.564a.468.468 0 0 1-.468-.468v-.064c0-.26.209-.468.468-.468h2.564c.259 0 .468.209.468.468M35.75 193.758v.064a.468.468 0 0 1-.468.468h-2.564a.468.468 0 0 1-.468-.468v-.064c0-.26.209-.468.468-.468h2.564c.259 0 .468.209.468.468M41.75 8.968v.064a.467.467 0 0 1-.468.468h-2.564a.467.467 0 0 1-.468-.468v-.064c0-.258.209-.468.468-.468h2.564c.259 0 .468.21.468.468M41.75 17.968v.064a.467.467 0 0 1-.468.468h-2.564a.467.467 0 0 1-.468-.468v-.064c0-.258.209-.468.468-.468h2.564c.259 0 .468.21.468.468M41.75 26.968v.064a.467.467 0 0 1-.468.468h-2.564a.467.467 0 0 1-.468-.468v-.064c0-.258.209-.468.468-.468h2.564c.259 0 .468.21.468.468M41.75 35.968v.064a.467.467 0 0 1-.468.468h-2.564a.467.467 0 0 1-.468-.468v-.064c0-.258.209-.468.468-.468h2.564c.259 0 .468.21.468.468M41.75 44.968v.064a.467.467 0 0 1-.468.468h-2.564a.467.467 0 0 1-.468-.468v-.064c0-.258.209-.468.468-.468h2.564c.259 0 .468.21.468.468M41.75 53.968v.064a.467.467 0 0 1-.468.468h-2.564a.467.467 0 0 1-.468-.468v-.064c0-.258.209-.468.468-.468h2.564c.259 0 .468.21.468.468M41.75 62.968v.064a.467.467 0 0 1-.468.468h-2.564a.467.467 0 0 1-.468-.468v-.064c0-.258.209-.468.468-.468h2.564c.259 0 .468.21.468.468M41.75 71.968v.064a.467.467 0 0 1-.468.468h-2.564a.467.467 0 0 1-.468-.468v-.064c0-.258.209-.468.468-.468h2.564c.259 0 .468.21.468.468M41.75 80.968v.064a.467.467 0 0 1-.468.468h-2.564a.467.467 0 0 1-.468-.468v-.064c0-.258.209-.468.468-.468h2.564c.259 0 .468.21.468.468M41.75 89.968v.064a.467.467 0 0 1-.468.468h-2.564a.467.467 0 0 1-.468-.468v-.064c0-.258.209-.468.468-.468h2.564c.259 0 .468.21.468.468M41.75 98.968v.064a.467.467 0 0 1-.468.468h-2.564a.467.467 0 0 1-.468-.468v-.064c0-.258.209-.468.468-.468h2.564c.259 0 .468.21.468.468M41.75 107.968v.064a.467.467 0 0 1-.468.468h-2.564a.467.467 0 0 1-.468-.468v-.064c0-.26.209-.468.468-.468h2.564c.259 0 .468.209.468.468M41.75 116.968v.064a.467.467 0 0 1-.468.468h-2.564a.467.467 0 0 1-.468-.468v-.064c0-.26.209-.468.468-.468h2.564c.259 0 .468.209.468.468M41.75 125.968v.064a.467.467 0 0 1-.468.468h-2.564a.467.467 0 0 1-.468-.468v-.064c0-.26.209-.468.468-.468h2.564c.259 0 .468.209.468.468M41.75 134.968v.064a.467.467 0 0 1-.468.468h-2.564a.467.467 0 0 1-.468-.468v-.064c0-.26.209-.468.468-.468h2.564c.259 0 .468.209.468.468M41.75 143.968v.064a.467.467 0 0 1-.468.468h-2.564a.467.467 0 0 1-.468-.468v-.064c0-.26.209-.468.468-.468h2.564c.259 0 .468.209.468.468M41.75 152.968v.064a.467.467 0 0 1-.468.468h-2.564a.467.467 0 0 1-.468-.468v-.064c0-.26.209-.468.468-.468h2.564c.259 0 .468.209.468.468M41.75 161.968v.064a.467.467 0 0 1-.468.468h-2.564a.467.467 0 0 1-.468-.468v-.064c0-.26.209-.468.468-.468h2.564c.259 0 .468.209.468.468M41.75 170.968v.064a.467.467 0 0 1-.468.468h-2.564a.467.467 0 0 1-.468-.468v-.064c0-.26.209-.468.468-.468h2.564c.259 0 .468.209.468.468M41.75 179.968v.064a.467.467 0 0 1-.468.468h-2.564a.467.467 0 0 1-.468-.468v-.064c0-.26.209-.468.468-.468h2.564c.259 0 .468.209.468.468M41.75 188.968v.064a.467.467 0 0 1-.468.468h-2.564a.467.467 0 0 1-.468-.468v-.064c0-.26.209-.468.468-.468h2.564c.259 0 .468.209.468.468M41.75 197.968v.064a.467.467 0 0 1-.468.468h-2.564a.467.467 0 0 1-.468-.468v-.064c0-.26.209-.468.468-.468h2.564c.259 0 .468.209.468.468M46.75 4.757v.064a.467.467 0 0 1-.468.468h-2.564a.467.467 0 0 1-.468-.468v-.064c0-.258.209-.468.468-.468h2.564c.259 0 .468.21.468.468M46.75 13.757v.064a.467.467 0 0 1-.468.468h-2.564a.467.467 0 0 1-.468-.468v-.064c0-.258.209-.468.468-.468h2.564c.259 0 .468.21.468.468M46.75 22.757v.064a.467.467 0 0 1-.468.468h-2.564a.467.467 0 0 1-.468-.468v-.064c0-.258.209-.468.468-.468h2.564c.259 0 .468.21.468.468M46.75 31.757v.064a.467.467 0 0 1-.468.468h-2.564a.467.467 0 0 1-.468-.468v-.064c0-.258.209-.468.468-.468h2.564c.259 0 .468.21.468.468M46.75 40.757v.064a.467.467 0 0 1-.468.468h-2.564a.467.467 0 0 1-.468-.468v-.064c0-.258.209-.468.468-.468h2.564c.259 0 .468.21.468.468M46.75 49.757v.064a.467.467 0 0 1-.468.468h-2.564a.467.467 0 0 1-.468-.468v-.064c0-.258.209-.468.468-.468h2.564c.259 0 .468.21.468.468M46.75 58.757v.064a.467.467 0 0 1-.468.468h-2.564a.467.467 0 0 1-.468-.468v-.064c0-.258.209-.468.468-.468h2.564c.259 0 .468.21.468.468M46.75 67.757v.064a.467.467 0 0 1-.468.468h-2.564a.467.467 0 0 1-.468-.468v-.064c0-.258.209-.468.468-.468h2.564c.259 0 .468.21.468.468M46.75 76.757v.064a.467.467 0 0 1-.468.468h-2.564a.467.467 0 0 1-.468-.468v-.064c0-.258.209-.468.468-.468h2.564c.259 0 .468.21.468.468M46.75 85.757v.064a.467.467 0 0 1-.468.468h-2.564a.467.467 0 0 1-.468-.468v-.064c0-.258.209-.468.468-.468h2.564c.259 0 .468.21.468.468M46.75 94.757v.064a.467.467 0 0 1-.468.468h-2.564a.467.467 0 0 1-.468-.468v-.064c0-.258.209-.468.468-.468h2.564c.259 0 .468.21.468.468M46.75 103.758v.064a.468.468 0 0 1-.468.468h-2.564a.468.468 0 0 1-.468-.468v-.064c0-.26.209-.468.468-.468h2.564c.259 0 .468.209.468.468M46.75 112.758v.064a.468.468 0 0 1-.468.468h-2.564a.468.468 0 0 1-.468-.468v-.064c0-.26.209-.468.468-.468h2.564c.259 0 .468.209.468.468M46.75 121.758v.064a.468.468 0 0 1-.468.468h-2.564a.468.468 0 0 1-.468-.468v-.064c0-.26.209-.468.468-.468h2.564c.259 0 .468.209.468.468M46.75 130.758v.064a.468.468 0 0 1-.468.468h-2.564a.468.468 0 0 1-.468-.468v-.064c0-.26.209-.468.468-.468h2.564c.259 0 .468.209.468.468M46.75 139.758v.064a.468.468 0 0 1-.468.468h-2.564a.468.468 0 0 1-.468-.468v-.064c0-.26.209-.468.468-.468h2.564c.259 0 .468.209.468.468M46.75 148.758v.064a.468.468 0 0 1-.468.468h-2.564a.468.468 0 0 1-.468-.468v-.064c0-.26.209-.468.468-.468h2.564c.259 0 .468.209.468.468M46.75 157.758v.064a.468.468 0 0 1-.468.468h-2.564a.468.468 0 0 1-.468-.468v-.064c0-.26.209-.468.468-.468h2.564c.259 0 .468.209.468.468M46.75 166.758v.064a.468.468 0 0 1-.468.468h-2.564a.468.468 0 0 1-.468-.468v-.064c0-.26.209-.468.468-.468h2.564c.259 0 .468.209.468.468M46.75 175.758v.064a.468.468 0 0 1-.468.468h-2.564a.468.468 0 0 1-.468-.468v-.064c0-.26.209-.468.468-.468h2.564c.259 0 .468.209.468.468M46.75 184.758v.064a.468.468 0 0 1-.468.468h-2.564a.468.468 0 0 1-.468-.468v-.064c0-.26.209-.468.468-.468h2.564c.259 0 .468.209.468.468M46.75 193.758v.064a.468.468 0 0 1-.468.468h-2.564a.468.468 0 0 1-.468-.468v-.064c0-.26.209-.468.468-.468h2.564c.259 0 .468.209.468.468M52.75 8.968v.064a.467.467 0 0 1-.468.468h-2.564a.467.467 0 0 1-.468-.468v-.064c0-.258.209-.468.468-.468h2.564c.259 0 .468.21.468.468M52.75 17.968v.064a.467.467 0 0 1-.468.468h-2.564a.467.467 0 0 1-.468-.468v-.064c0-.258.209-.468.468-.468h2.564c.259 0 .468.21.468.468M52.75 26.968v.064a.467.467 0 0 1-.468.468h-2.564a.467.467 0 0 1-.468-.468v-.064c0-.258.209-.468.468-.468h2.564c.259 0 .468.21.468.468M52.75 35.968v.064a.467.467 0 0 1-.468.468h-2.564a.467.467 0 0 1-.468-.468v-.064c0-.258.209-.468.468-.468h2.564c.259 0 .468.21.468.468M52.75 44.968v.064a.467.467 0 0 1-.468.468h-2.564a.467.467 0 0 1-.468-.468v-.064c0-.258.209-.468.468-.468h2.564c.259 0 .468.21.468.468M52.75 53.968v.064a.467.467 0 0 1-.468.468h-2.564a.467.467 0 0 1-.468-.468v-.064c0-.258.209-.468.468-.468h2.564c.259 0 .468.21.468.468M52.75 62.968v.064a.467.467 0 0 1-.468.468h-2.564a.467.467 0 0 1-.468-.468v-.064c0-.258.209-.468.468-.468h2.564c.259 0 .468.21.468.468M52.75 71.968v.064a.467.467 0 0 1-.468.468h-2.564a.467.467 0 0 1-.468-.468v-.064c0-.258.209-.468.468-.468h2.564c.259 0 .468.21.468.468M52.75 80.968v.064a.467.467 0 0 1-.468.468h-2.564a.467.467 0 0 1-.468-.468v-.064c0-.258.209-.468.468-.468h2.564c.259 0 .468.21.468.468M52.75 89.968v.064a.467.467 0 0 1-.468.468h-2.564a.467.467 0 0 1-.468-.468v-.064c0-.258.209-.468.468-.468h2.564c.259 0 .468.21.468.468M52.75 98.968v.064a.467.467 0 0 1-.468.468h-2.564a.467.467 0 0 1-.468-.468v-.064c0-.258.209-.468.468-.468h2.564c.259 0 .468.21.468.468M52.75 107.968v.064a.467.467 0 0 1-.468.468h-2.564a.467.467 0 0 1-.468-.468v-.064c0-.26.209-.468.468-.468h2.564c.259 0 .468.209.468.468M52.75 116.968v.064a.467.467 0 0 1-.468.468h-2.564a.467.467 0 0 1-.468-.468v-.064c0-.26.209-.468.468-.468h2.564c.259 0 .468.209.468.468M52.75 125.968v.064a.467.467 0 0 1-.468.468h-2.564a.467.467 0 0 1-.468-.468v-.064c0-.26.209-.468.468-.468h2.564c.259 0 .468.209.468.468M52.75 134.968v.064a.467.467 0 0 1-.468.468h-2.564a.467.467 0 0 1-.468-.468v-.064c0-.26.209-.468.468-.468h2.564c.259 0 .468.209.468.468M52.75 143.968v.064a.467.467 0 0 1-.468.468h-2.564a.467.467 0 0 1-.468-.468v-.064c0-.26.209-.468.468-.468h2.564c.259 0 .468.209.468.468M52.75 152.968v.064a.467.467 0 0 1-.468.468h-2.564a.467.467 0 0 1-.468-.468v-.064c0-.26.209-.468.468-.468h2.564c.259 0 .468.209.468.468M52.75 161.968v.064a.467.467 0 0 1-.468.468h-2.564a.467.467 0 0 1-.468-.468v-.064c0-.26.209-.468.468-.468h2.564c.259 0 .468.209.468.468M52.75 170.968v.064a.467.467 0 0 1-.468.468h-2.564a.467.467 0 0 1-.468-.468v-.064c0-.26.209-.468.468-.468h2.564c.259 0 .468.209.468.468M52.75 179.968v.064a.467.467 0 0 1-.468.468h-2.564a.467.467 0 0 1-.468-.468v-.064c0-.26.209-.468.468-.468h2.564c.259 0 .468.209.468.468M52.75 188.968v.064a.467.467 0 0 1-.468.468h-2.564a.467.467 0 0 1-.468-.468v-.064c0-.26.209-.468.468-.468h2.564c.259 0 .468.209.468.468M52.75 197.968v.064a.467.467 0 0 1-.468.468h-2.564a.467.467 0 0 1-.468-.468v-.064c0-.26.209-.468.468-.468h2.564c.259 0 .468.209.468.468M58.75 4.757v.064a.467.467 0 0 1-.468.468h-2.564a.467.467 0 0 1-.468-.468v-.064c0-.258.209-.468.468-.468h2.564c.259 0 .468.21.468.468M58.75 13.757v.064a.467.467 0 0 1-.468.468h-2.564a.467.467 0 0 1-.468-.468v-.064c0-.258.209-.468.468-.468h2.564c.259 0 .468.21.468.468M58.75 22.757v.064a.467.467 0 0 1-.468.468h-2.564a.467.467 0 0 1-.468-.468v-.064c0-.258.209-.468.468-.468h2.564c.259 0 .468.21.468.468M58.75 31.757v.064a.467.467 0 0 1-.468.468h-2.564a.467.467 0 0 1-.468-.468v-.064c0-.258.209-.468.468-.468h2.564c.259 0 .468.21.468.468M58.75 40.757v.064a.467.467 0 0 1-.468.468h-2.564a.467.467 0 0 1-.468-.468v-.064c0-.258.209-.468.468-.468h2.564c.259 0 .468.21.468.468M58.75 49.757v.064a.467.467 0 0 1-.468.468h-2.564a.467.467 0 0 1-.468-.468v-.064c0-.258.209-.468.468-.468h2.564c.259 0 .468.21.468.468M58.75 58.757v.064a.467.467 0 0 1-.468.468h-2.564a.467.467 0 0 1-.468-.468v-.064c0-.258.209-.468.468-.468h2.564c.259 0 .468.21.468.468M58.75 67.757v.064a.467.467 0 0 1-.468.468h-2.564a.467.467 0 0 1-.468-.468v-.064c0-.258.209-.468.468-.468h2.564c.259 0 .468.21.468.468M58.75 76.757v.064a.467.467 0 0 1-.468.468h-2.564a.467.467 0 0 1-.468-.468v-.064c0-.258.209-.468.468-.468h2.564c.259 0 .468.21.468.468M58.75 85.757v.064a.467.467 0 0 1-.468.468h-2.564a.467.467 0 0 1-.468-.468v-.064c0-.258.209-.468.468-.468h2.564c.259 0 .468.21.468.468M58.75 94.757v.064a.467.467 0 0 1-.468.468h-2.564a.467.467 0 0 1-.468-.468v-.064c0-.258.209-.468.468-.468h2.564c.259 0 .468.21.468.468M58.75 103.758v.064a.468.468 0 0 1-.468.468h-2.564a.468.468 0 0 1-.468-.468v-.064c0-.26.209-.468.468-.468h2.564c.259 0 .468.209.468.468M58.75 112.758v.064a.468.468 0 0 1-.468.468h-2.564a.468.468 0 0 1-.468-.468v-.064c0-.26.209-.468.468-.468h2.564c.259 0 .468.209.468.468M58.75 121.758v.064a.468.468 0 0 1-.468.468h-2.564a.468.468 0 0 1-.468-.468v-.064c0-.26.209-.468.468-.468h2.564c.259 0 .468.209.468.468M58.75 130.758v.064a.468.468 0 0 1-.468.468h-2.564a.468.468 0 0 1-.468-.468v-.064c0-.26.209-.468.468-.468h2.564c.259 0 .468.209.468.468M58.75 139.758v.064a.468.468 0 0 1-.468.468h-2.564a.468.468 0 0 1-.468-.468v-.064c0-.26.209-.468.468-.468h2.564c.259 0 .468.209.468.468M58.75 148.758v.064a.468.468 0 0 1-.468.468h-2.564a.468.468 0 0 1-.468-.468v-.064c0-.26.209-.468.468-.468h2.564c.259 0 .468.209.468.468M58.75 157.758v.064a.468.468 0 0 1-.468.468h-2.564a.468.468 0 0 1-.468-.468v-.064c0-.26.209-.468.468-.468h2.564c.259 0 .468.209.468.468M58.75 166.758v.064a.468.468 0 0 1-.468.468h-2.564a.468.468 0 0 1-.468-.468v-.064c0-.26.209-.468.468-.468h2.564c.259 0 .468.209.468.468M58.75 175.758v.064a.468.468 0 0 1-.468.468h-2.564a.468.468 0 0 1-.468-.468v-.064c0-.26.209-.468.468-.468h2.564c.259 0 .468.209.468.468M58.75 184.758v.064a.468.468 0 0 1-.468.468h-2.564a.468.468 0 0 1-.468-.468v-.064c0-.26.209-.468.468-.468h2.564c.259 0 .468.209.468.468M58.75 193.758v.064a.468.468 0 0 1-.468.468h-2.564a.468.468 0 0 1-.468-.468v-.064c0-.26.209-.468.468-.468h2.564c.259 0 .468.209.468.468M64.75 8.968v.064a.467.467 0 0 1-.468.468h-2.564a.467.467 0 0 1-.468-.468v-.064c0-.258.209-.468.468-.468h2.564c.259 0 .468.21.468.468M64.75 17.968v.064a.467.467 0 0 1-.468.468h-2.564a.467.467 0 0 1-.468-.468v-.064c0-.258.209-.468.468-.468h2.564c.259 0 .468.21.468.468M64.75 26.968v.064a.467.467 0 0 1-.468.468h-2.564a.467.467 0 0 1-.468-.468v-.064c0-.258.209-.468.468-.468h2.564c.259 0 .468.21.468.468M64.75 35.968v.064a.467.467 0 0 1-.468.468h-2.564a.467.467 0 0 1-.468-.468v-.064c0-.258.209-.468.468-.468h2.564c.259 0 .468.21.468.468M64.75 44.968v.064a.467.467 0 0 1-.468.468h-2.564a.467.467 0 0 1-.468-.468v-.064c0-.258.209-.468.468-.468h2.564c.259 0 .468.21.468.468M64.75 53.968v.064a.467.467 0 0 1-.468.468h-2.564a.467.467 0 0 1-.468-.468v-.064c0-.258.209-.468.468-.468h2.564c.259 0 .468.21.468.468M64.75 62.968v.064a.467.467 0 0 1-.468.468h-2.564a.467.467 0 0 1-.468-.468v-.064c0-.258.209-.468.468-.468h2.564c.259 0 .468.21.468.468M64.75 71.968v.064a.467.467 0 0 1-.468.468h-2.564a.467.467 0 0 1-.468-.468v-.064c0-.258.209-.468.468-.468h2.564c.259 0 .468.21.468.468M64.75 80.968v.064a.467.467 0 0 1-.468.468h-2.564a.467.467 0 0 1-.468-.468v-.064c0-.258.209-.468.468-.468h2.564c.259 0 .468.21.468.468M64.75 89.968v.064a.467.467 0 0 1-.468.468h-2.564a.467.467 0 0 1-.468-.468v-.064c0-.258.209-.468.468-.468h2.564c.259 0 .468.21.468.468M64.75 98.968v.064a.467.467 0 0 1-.468.468h-2.564a.467.467 0 0 1-.468-.468v-.064c0-.258.209-.468.468-.468h2.564c.259 0 .468.21.468.468M64.75 107.968v.064a.467.467 0 0 1-.468.468h-2.564a.467.467 0 0 1-.468-.468v-.064c0-.26.209-.468.468-.468h2.564c.259 0 .468.209.468.468M64.75 116.968v.064a.467.467 0 0 1-.468.468h-2.564a.467.467 0 0 1-.468-.468v-.064c0-.26.209-.468.468-.468h2.564c.259 0 .468.209.468.468M64.75 125.968v.064a.467.467 0 0 1-.468.468h-2.564a.467.467 0 0 1-.468-.468v-.064c0-.26.209-.468.468-.468h2.564c.259 0 .468.209.468.468M64.75 134.968v.064a.467.467 0 0 1-.468.468h-2.564a.467.467 0 0 1-.468-.468v-.064c0-.26.209-.468.468-.468h2.564c.259 0 .468.209.468.468M64.75 143.968v.064a.467.467 0 0 1-.468.468h-2.564a.467.467 0 0 1-.468-.468v-.064c0-.26.209-.468.468-.468h2.564c.259 0 .468.209.468.468M64.75 152.968v.064a.467.467 0 0 1-.468.468h-2.564a.467.467 0 0 1-.468-.468v-.064c0-.26.209-.468.468-.468h2.564c.259 0 .468.209.468.468M64.75 161.968v.064a.467.467 0 0 1-.468.468h-2.564a.467.467 0 0 1-.468-.468v-.064c0-.26.209-.468.468-.468h2.564c.259 0 .468.209.468.468M64.75 170.968v.064a.467.467 0 0 1-.468.468h-2.564a.467.467 0 0 1-.468-.468v-.064c0-.26.209-.468.468-.468h2.564c.259 0 .468.209.468.468M64.75 179.968v.064a.467.467 0 0 1-.468.468h-2.564a.467.467 0 0 1-.468-.468v-.064c0-.26.209-.468.468-.468h2.564c.259 0 .468.209.468.468M64.75 188.968v.064a.467.467 0 0 1-.468.468h-2.564a.467.467 0 0 1-.468-.468v-.064c0-.26.209-.468.468-.468h2.564c.259 0 .468.209.468.468M64.75 197.968v.064a.467.467 0 0 1-.468.468h-2.564a.467.467 0 0 1-.468-.468v-.064c0-.26.209-.468.468-.468h2.564c.259 0 .468.209.468.468M70.75 4.757v.064a.467.467 0 0 1-.468.468h-2.564a.467.467 0 0 1-.468-.468v-.064c0-.258.209-.468.468-.468h2.564c.259 0 .468.21.468.468M70.75 13.757v.064a.467.467 0 0 1-.468.468h-2.564a.467.467 0 0 1-.468-.468v-.064c0-.258.209-.468.468-.468h2.564c.259 0 .468.21.468.468M70.75 22.757v.064a.467.467 0 0 1-.468.468h-2.564a.467.467 0 0 1-.468-.468v-.064c0-.258.209-.468.468-.468h2.564c.259 0 .468.21.468.468M70.75 31.757v.064a.467.467 0 0 1-.468.468h-2.564a.467.467 0 0 1-.468-.468v-.064c0-.258.209-.468.468-.468h2.564c.259 0 .468.21.468.468M70.75 40.757v.064a.467.467 0 0 1-.468.468h-2.564a.467.467 0 0 1-.468-.468v-.064c0-.258.209-.468.468-.468h2.564c.259 0 .468.21.468.468M70.75 49.757v.064a.467.467 0 0 1-.468.468h-2.564a.467.467 0 0 1-.468-.468v-.064c0-.258.209-.468.468-.468h2.564c.259 0 .468.21.468.468M70.75 58.757v.064a.467.467 0 0 1-.468.468h-2.564a.467.467 0 0 1-.468-.468v-.064c0-.258.209-.468.468-.468h2.564c.259 0 .468.21.468.468M70.75 67.757v.064a.467.467 0 0 1-.468.468h-2.564a.467.467 0 0 1-.468-.468v-.064c0-.258.209-.468.468-.468h2.564c.259 0 .468.21.468.468M70.75 76.757v.064a.467.467 0 0 1-.468.468h-2.564a.467.467 0 0 1-.468-.468v-.064c0-.258.209-.468.468-.468h2.564c.259 0 .468.21.468.468M70.75 85.757v.064a.467.467 0 0 1-.468.468h-2.564a.467.467 0 0 1-.468-.468v-.064c0-.258.209-.468.468-.468h2.564c.259 0 .468.21.468.468M70.75 94.757v.064a.467.467 0 0 1-.468.468h-2.564a.467.467 0 0 1-.468-.468v-.064c0-.258.209-.468.468-.468h2.564c.259 0 .468.21.468.468M70.75 103.758v.064a.468.468 0 0 1-.468.468h-2.564a.468.468 0 0 1-.468-.468v-.064c0-.26.209-.468.468-.468h2.564c.259 0 .468.209.468.468M70.75 112.758v.064a.468.468 0 0 1-.468.468h-2.564a.468.468 0 0 1-.468-.468v-.064c0-.26.209-.468.468-.468h2.564c.259 0 .468.209.468.468M70.75 121.758v.064a.468.468 0 0 1-.468.468h-2.564a.468.468 0 0 1-.468-.468v-.064c0-.26.209-.468.468-.468h2.564c.259 0 .468.209.468.468M70.75 130.758v.064a.468.468 0 0 1-.468.468h-2.564a.468.468 0 0 1-.468-.468v-.064c0-.26.209-.468.468-.468h2.564c.259 0 .468.209.468.468M70.75 139.758v.064a.468.468 0 0 1-.468.468h-2.564a.468.468 0 0 1-.468-.468v-.064c0-.26.209-.468.468-.468h2.564c.259 0 .468.209.468.468M70.75 148.758v.064a.468.468 0 0 1-.468.468h-2.564a.468.468 0 0 1-.468-.468v-.064c0-.26.209-.468.468-.468h2.564c.259 0 .468.209.468.468M70.75 157.758v.064a.468.468 0 0 1-.468.468h-2.564a.468.468 0 0 1-.468-.468v-.064c0-.26.209-.468.468-.468h2.564c.259 0 .468.209.468.468M70.75 166.758v.064a.468.468 0 0 1-.468.468h-2.564a.468.468 0 0 1-.468-.468v-.064c0-.26.209-.468.468-.468h2.564c.259 0 .468.209.468.468M70.75 175.758v.064a.468.468 0 0 1-.468.468h-2.564a.468.468 0 0 1-.468-.468v-.064c0-.26.209-.468.468-.468h2.564c.259 0 .468.209.468.468M70.75 184.758v.064a.468.468 0 0 1-.468.468h-2.564a.468.468 0 0 1-.468-.468v-.064c0-.26.209-.468.468-.468h2.564c.259 0 .468.209.468.468M70.75 193.758v.064a.468.468 0 0 1-.468.468h-2.564a.468.468 0 0 1-.468-.468v-.064c0-.26.209-.468.468-.468h2.564c.259 0 .468.209.468.468M76.75 8.968v.064a.467.467 0 0 1-.468.468h-2.564a.467.467 0 0 1-.468-.468v-.064c0-.258.209-.468.468-.468h2.564c.259 0 .468.21.468.468M76.75 17.968v.064a.467.467 0 0 1-.468.468h-2.564a.467.467 0 0 1-.468-.468v-.064c0-.258.209-.468.468-.468h2.564c.259 0 .468.21.468.468M76.75 26.968v.064a.467.467 0 0 1-.468.468h-2.564a.467.467 0 0 1-.468-.468v-.064c0-.258.209-.468.468-.468h2.564c.259 0 .468.21.468.468M76.75 35.968v.064a.467.467 0 0 1-.468.468h-2.564a.467.467 0 0 1-.468-.468v-.064c0-.258.209-.468.468-.468h2.564c.259 0 .468.21.468.468M76.75 44.968v.064a.467.467 0 0 1-.468.468h-2.564a.467.467 0 0 1-.468-.468v-.064c0-.258.209-.468.468-.468h2.564c.259 0 .468.21.468.468M76.75 53.968v.064a.467.467 0 0 1-.468.468h-2.564a.467.467 0 0 1-.468-.468v-.064c0-.258.209-.468.468-.468h2.564c.259 0 .468.21.468.468M76.75 62.968v.064a.467.467 0 0 1-.468.468h-2.564a.467.467 0 0 1-.468-.468v-.064c0-.258.209-.468.468-.468h2.564c.259 0 .468.21.468.468M76.75 71.968v.064a.467.467 0 0 1-.468.468h-2.564a.467.467 0 0 1-.468-.468v-.064c0-.258.209-.468.468-.468h2.564c.259 0 .468.21.468.468M76.75 80.968v.064a.467.467 0 0 1-.468.468h-2.564a.467.467 0 0 1-.468-.468v-.064c0-.258.209-.468.468-.468h2.564c.259 0 .468.21.468.468M76.75 89.968v.064a.467.467 0 0 1-.468.468h-2.564a.467.467 0 0 1-.468-.468v-.064c0-.258.209-.468.468-.468h2.564c.259 0 .468.21.468.468M76.75 98.968v.064a.467.467 0 0 1-.468.468h-2.564a.467.467 0 0 1-.468-.468v-.064c0-.258.209-.468.468-.468h2.564c.259 0 .468.21.468.468M76.75 107.968v.064a.467.467 0 0 1-.468.468h-2.564a.467.467 0 0 1-.468-.468v-.064c0-.26.209-.468.468-.468h2.564c.259 0 .468.209.468.468M76.75 116.968v.064a.467.467 0 0 1-.468.468h-2.564a.467.467 0 0 1-.468-.468v-.064c0-.26.209-.468.468-.468h2.564c.259 0 .468.209.468.468M76.75 125.968v.064a.467.467 0 0 1-.468.468h-2.564a.467.467 0 0 1-.468-.468v-.064c0-.26.209-.468.468-.468h2.564c.259 0 .468.209.468.468M76.75 134.968v.064a.467.467 0 0 1-.468.468h-2.564a.467.467 0 0 1-.468-.468v-.064c0-.26.209-.468.468-.468h2.564c.259 0 .468.209.468.468M76.75 143.968v.064a.467.467 0 0 1-.468.468h-2.564a.467.467 0 0 1-.468-.468v-.064c0-.26.209-.468.468-.468h2.564c.259 0 .468.209.468.468M76.75 152.968v.064a.467.467 0 0 1-.468.468h-2.564a.467.467 0 0 1-.468-.468v-.064c0-.26.209-.468.468-.468h2.564c.259 0 .468.209.468.468M76.75 161.968v.064a.467.467 0 0 1-.468.468h-2.564a.467.467 0 0 1-.468-.468v-.064c0-.26.209-.468.468-.468h2.564c.259 0 .468.209.468.468M76.75 170.968v.064a.467.467 0 0 1-.468.468h-2.564a.467.467 0 0 1-.468-.468v-.064c0-.26.209-.468.468-.468h2.564c.259 0 .468.209.468.468M76.75 179.968v.064a.467.467 0 0 1-.468.468h-2.564a.467.467 0 0 1-.468-.468v-.064c0-.26.209-.468.468-.468h2.564c.259 0 .468.209.468.468M76.75 188.968v.064a.467.467 0 0 1-.468.468h-2.564a.467.467 0 0 1-.468-.468v-.064c0-.26.209-.468.468-.468h2.564c.259 0 .468.209.468.468M76.75 197.968v.064a.467.467 0 0 1-.468.468h-2.564a.467.467 0 0 1-.468-.468v-.064c0-.26.209-.468.468-.468h2.564c.259 0 .468.209.468.468M82.75 4.757v.064a.467.467 0 0 1-.468.468h-2.564a.467.467 0 0 1-.468-.468v-.064c0-.258.209-.468.468-.468h2.564c.259 0 .468.21.468.468M82.75 13.757v.064a.467.467 0 0 1-.468.468h-2.564a.467.467 0 0 1-.468-.468v-.064c0-.258.209-.468.468-.468h2.564c.259 0 .468.21.468.468M82.75 22.757v.064a.467.467 0 0 1-.468.468h-2.564a.467.467 0 0 1-.468-.468v-.064c0-.258.209-.468.468-.468h2.564c.259 0 .468.21.468.468M82.75 31.757v.064a.467.467 0 0 1-.468.468h-2.564a.467.467 0 0 1-.468-.468v-.064c0-.258.209-.468.468-.468h2.564c.259 0 .468.21.468.468M82.75 40.757v.064a.467.467 0 0 1-.468.468h-2.564a.467.467 0 0 1-.468-.468v-.064c0-.258.209-.468.468-.468h2.564c.259 0 .468.21.468.468M82.75 49.757v.064a.467.467 0 0 1-.468.468h-2.564a.467.467 0 0 1-.468-.468v-.064c0-.258.209-.468.468-.468h2.564c.259 0 .468.21.468.468M82.75 58.757v.064a.467.467 0 0 1-.468.468h-2.564a.467.467 0 0 1-.468-.468v-.064c0-.258.209-.468.468-.468h2.564c.259 0 .468.21.468.468M82.75 67.757v.064a.467.467 0 0 1-.468.468h-2.564a.467.467 0 0 1-.468-.468v-.064c0-.258.209-.468.468-.468h2.564c.259 0 .468.21.468.468M82.75 76.757v.064a.467.467 0 0 1-.468.468h-2.564a.467.467 0 0 1-.468-.468v-.064c0-.258.209-.468.468-.468h2.564c.259 0 .468.21.468.468M82.75 85.757v.064a.467.467 0 0 1-.468.468h-2.564a.467.467 0 0 1-.468-.468v-.064c0-.258.209-.468.468-.468h2.564c.259 0 .468.21.468.468M82.75 94.757v.064a.467.467 0 0 1-.468.468h-2.564a.467.467 0 0 1-.468-.468v-.064c0-.258.209-.468.468-.468h2.564c.259 0 .468.21.468.468M82.75 103.758v.064a.468.468 0 0 1-.468.468h-2.564a.468.468 0 0 1-.468-.468v-.064c0-.26.209-.468.468-.468h2.564c.259 0 .468.209.468.468M82.75 112.758v.064a.468.468 0 0 1-.468.468h-2.564a.468.468 0 0 1-.468-.468v-.064c0-.26.209-.468.468-.468h2.564c.259 0 .468.209.468.468M82.75 121.758v.064a.468.468 0 0 1-.468.468h-2.564a.468.468 0 0 1-.468-.468v-.064c0-.26.209-.468.468-.468h2.564c.259 0 .468.209.468.468M82.75 130.758v.064a.468.468 0 0 1-.468.468h-2.564a.468.468 0 0 1-.468-.468v-.064c0-.26.209-.468.468-.468h2.564c.259 0 .468.209.468.468M82.75 139.758v.064a.468.468 0 0 1-.468.468h-2.564a.468.468 0 0 1-.468-.468v-.064c0-.26.209-.468.468-.468h2.564c.259 0 .468.209.468.468M82.75 148.758v.064a.468.468 0 0 1-.468.468h-2.564a.468.468 0 0 1-.468-.468v-.064c0-.26.209-.468.468-.468h2.564c.259 0 .468.209.468.468M82.75 157.758v.064a.468.468 0 0 1-.468.468h-2.564a.468.468 0 0 1-.468-.468v-.064c0-.26.209-.468.468-.468h2.564c.259 0 .468.209.468.468M82.75 166.758v.064a.468.468 0 0 1-.468.468h-2.564a.468.468 0 0 1-.468-.468v-.064c0-.26.209-.468.468-.468h2.564c.259 0 .468.209.468.468M82.75 175.758v.064a.468.468 0 0 1-.468.468h-2.564a.468.468 0 0 1-.468-.468v-.064c0-.26.209-.468.468-.468h2.564c.259 0 .468.209.468.468M82.75 184.758v.064a.468.468 0 0 1-.468.468h-2.564a.468.468 0 0 1-.468-.468v-.064c0-.26.209-.468.468-.468h2.564c.259 0 .468.209.468.468M82.75 193.758v.064a.468.468 0 0 1-.468.468h-2.564a.468.468 0 0 1-.468-.468v-.064c0-.26.209-.468.468-.468h2.564c.259 0 .468.209.468.468M88.75 8.968v.064a.467.467 0 0 1-.468.468h-2.564a.467.467 0 0 1-.468-.468v-.064c0-.258.209-.468.468-.468h2.564c.259 0 .468.21.468.468M88.75 17.968v.064a.467.467 0 0 1-.468.468h-2.564a.467.467 0 0 1-.468-.468v-.064c0-.258.209-.468.468-.468h2.564c.259 0 .468.21.468.468M88.75 26.968v.064a.467.467 0 0 1-.468.468h-2.564a.467.467 0 0 1-.468-.468v-.064c0-.258.209-.468.468-.468h2.564c.259 0 .468.21.468.468M88.75 35.968v.064a.467.467 0 0 1-.468.468h-2.564a.467.467 0 0 1-.468-.468v-.064c0-.258.209-.468.468-.468h2.564c.259 0 .468.21.468.468M88.75 44.968v.064a.467.467 0 0 1-.468.468h-2.564a.467.467 0 0 1-.468-.468v-.064c0-.258.209-.468.468-.468h2.564c.259 0 .468.21.468.468M88.75 53.968v.064a.467.467 0 0 1-.468.468h-2.564a.467.467 0 0 1-.468-.468v-.064c0-.258.209-.468.468-.468h2.564c.259 0 .468.21.468.468M88.75 62.968v.064a.467.467 0 0 1-.468.468h-2.564a.467.467 0 0 1-.468-.468v-.064c0-.258.209-.468.468-.468h2.564c.259 0 .468.21.468.468M88.75 71.968v.064a.467.467 0 0 1-.468.468h-2.564a.467.467 0 0 1-.468-.468v-.064c0-.258.209-.468.468-.468h2.564c.259 0 .468.21.468.468M88.75 80.968v.064a.467.467 0 0 1-.468.468h-2.564a.467.467 0 0 1-.468-.468v-.064c0-.258.209-.468.468-.468h2.564c.259 0 .468.21.468.468M88.75 89.968v.064a.467.467 0 0 1-.468.468h-2.564a.467.467 0 0 1-.468-.468v-.064c0-.258.209-.468.468-.468h2.564c.259 0 .468.21.468.468M88.75 98.968v.064a.467.467 0 0 1-.468.468h-2.564a.467.467 0 0 1-.468-.468v-.064c0-.258.209-.468.468-.468h2.564c.259 0 .468.21.468.468M88.75 107.968v.064a.467.467 0 0 1-.468.468h-2.564a.467.467 0 0 1-.468-.468v-.064c0-.26.209-.468.468-.468h2.564c.259 0 .468.209.468.468M88.75 116.968v.064a.467.467 0 0 1-.468.468h-2.564a.467.467 0 0 1-.468-.468v-.064c0-.26.209-.468.468-.468h2.564c.259 0 .468.209.468.468M88.75 125.968v.064a.467.467 0 0 1-.468.468h-2.564a.467.467 0 0 1-.468-.468v-.064c0-.26.209-.468.468-.468h2.564c.259 0 .468.209.468.468M88.75 134.968v.064a.467.467 0 0 1-.468.468h-2.564a.467.467 0 0 1-.468-.468v-.064c0-.26.209-.468.468-.468h2.564c.259 0 .468.209.468.468M88.75 143.968v.064a.467.467 0 0 1-.468.468h-2.564a.467.467 0 0 1-.468-.468v-.064c0-.26.209-.468.468-.468h2.564c.259 0 .468.209.468.468M88.75 152.968v.064a.467.467 0 0 1-.468.468h-2.564a.467.467 0 0 1-.468-.468v-.064c0-.26.209-.468.468-.468h2.564c.259 0 .468.209.468.468M88.75 161.968v.064a.467.467 0 0 1-.468.468h-2.564a.467.467 0 0 1-.468-.468v-.064c0-.26.209-.468.468-.468h2.564c.259 0 .468.209.468.468M88.75 170.968v.064a.467.467 0 0 1-.468.468h-2.564a.467.467 0 0 1-.468-.468v-.064c0-.26.209-.468.468-.468h2.564c.259 0 .468.209.468.468M88.75 179.968v.064a.467.467 0 0 1-.468.468h-2.564a.467.467 0 0 1-.468-.468v-.064c0-.26.209-.468.468-.468h2.564c.259 0 .468.209.468.468M88.75 188.968v.064a.467.467 0 0 1-.468.468h-2.564a.467.467 0 0 1-.468-.468v-.064c0-.26.209-.468.468-.468h2.564c.259 0 .468.209.468.468M88.75 197.968v.064a.467.467 0 0 1-.468.468h-2.564a.467.467 0 0 1-.468-.468v-.064c0-.26.209-.468.468-.468h2.564c.259 0 .468.209.468.468M94.75 4.757v.064a.467.467 0 0 1-.468.468h-2.564a.467.467 0 0 1-.468-.468v-.064c0-.258.209-.468.468-.468h2.564c.259 0 .468.21.468.468M94.75 13.757v.064a.467.467 0 0 1-.468.468h-2.564a.467.467 0 0 1-.468-.468v-.064c0-.258.209-.468.468-.468h2.564c.259 0 .468.21.468.468M94.75 22.757v.064a.467.467 0 0 1-.468.468h-2.564a.467.467 0 0 1-.468-.468v-.064c0-.258.209-.468.468-.468h2.564c.259 0 .468.21.468.468M94.75 31.757v.064a.467.467 0 0 1-.468.468h-2.564a.467.467 0 0 1-.468-.468v-.064c0-.258.209-.468.468-.468h2.564c.259 0 .468.21.468.468M94.75 40.757v.064a.467.467 0 0 1-.468.468h-2.564a.467.467 0 0 1-.468-.468v-.064c0-.258.209-.468.468-.468h2.564c.259 0 .468.21.468.468M94.75 49.757v.064a.467.467 0 0 1-.468.468h-2.564a.467.467 0 0 1-.468-.468v-.064c0-.258.209-.468.468-.468h2.564c.259 0 .468.21.468.468M94.75 58.757v.064a.467.467 0 0 1-.468.468h-2.564a.467.467 0 0 1-.468-.468v-.064c0-.258.209-.468.468-.468h2.564c.259 0 .468.21.468.468M94.75 67.757v.064a.467.467 0 0 1-.468.468h-2.564a.467.467 0 0 1-.468-.468v-.064c0-.258.209-.468.468-.468h2.564c.259 0 .468.21.468.468M94.75 76.757v.064a.467.467 0 0 1-.468.468h-2.564a.467.467 0 0 1-.468-.468v-.064c0-.258.209-.468.468-.468h2.564c.259 0 .468.21.468.468M94.75 85.757v.064a.467.467 0 0 1-.468.468h-2.564a.467.467 0 0 1-.468-.468v-.064c0-.258.209-.468.468-.468h2.564c.259 0 .468.21.468.468M94.75 94.757v.064a.467.467 0 0 1-.468.468h-2.564a.467.467 0 0 1-.468-.468v-.064c0-.258.209-.468.468-.468h2.564c.259 0 .468.21.468.468M94.75 103.758v.064a.468.468 0 0 1-.468.468h-2.564a.468.468 0 0 1-.468-.468v-.064c0-.26.209-.468.468-.468h2.564c.259 0 .468.209.468.468M94.75 112.758v.064a.468.468 0 0 1-.468.468h-2.564a.468.468 0 0 1-.468-.468v-.064c0-.26.209-.468.468-.468h2.564c.259 0 .468.209.468.468M94.75 121.758v.064a.468.468 0 0 1-.468.468h-2.564a.468.468 0 0 1-.468-.468v-.064c0-.26.209-.468.468-.468h2.564c.259 0 .468.209.468.468M94.75 130.758v.064a.468.468 0 0 1-.468.468h-2.564a.468.468 0 0 1-.468-.468v-.064c0-.26.209-.468.468-.468h2.564c.259 0 .468.209.468.468M94.75 139.758v.064a.468.468 0 0 1-.468.468h-2.564a.468.468 0 0 1-.468-.468v-.064c0-.26.209-.468.468-.468h2.564c.259 0 .468.209.468.468M94.75 148.758v.064a.468.468 0 0 1-.468.468h-2.564a.468.468 0 0 1-.468-.468v-.064c0-.26.209-.468.468-.468h2.564c.259 0 .468.209.468.468M94.75 157.758v.064a.468.468 0 0 1-.468.468h-2.564a.468.468 0 0 1-.468-.468v-.064c0-.26.209-.468.468-.468h2.564c.259 0 .468.209.468.468M94.75 166.758v.064a.468.468 0 0 1-.468.468h-2.564a.468.468 0 0 1-.468-.468v-.064c0-.26.209-.468.468-.468h2.564c.259 0 .468.209.468.468M94.75 175.758v.064a.468.468 0 0 1-.468.468h-2.564a.468.468 0 0 1-.468-.468v-.064c0-.26.209-.468.468-.468h2.564c.259 0 .468.209.468.468M94.75 184.758v.064a.468.468 0 0 1-.468.468h-2.564a.468.468 0 0 1-.468-.468v-.064c0-.26.209-.468.468-.468h2.564c.259 0 .468.209.468.468M94.75 193.758v.064a.468.468 0 0 1-.468.468h-2.564a.468.468 0 0 1-.468-.468v-.064c0-.26.209-.468.468-.468h2.564c.259 0 .468.209.468.468M100.75 8.968v.064a.467.467 0 0 1-.468.468h-2.564a.467.467 0 0 1-.468-.468v-.064c0-.258.209-.468.468-.468h2.564c.259 0 .468.21.468.468M100.75 17.968v.064a.467.467 0 0 1-.468.468h-2.564a.467.467 0 0 1-.468-.468v-.064c0-.258.209-.468.468-.468h2.564c.259 0 .468.21.468.468M100.75 26.968v.064a.467.467 0 0 1-.468.468h-2.564a.467.467 0 0 1-.468-.468v-.064c0-.258.209-.468.468-.468h2.564c.259 0 .468.21.468.468M100.75 35.968v.064a.467.467 0 0 1-.468.468h-2.564a.467.467 0 0 1-.468-.468v-.064c0-.258.209-.468.468-.468h2.564c.259 0 .468.21.468.468M100.75 44.968v.064a.467.467 0 0 1-.468.468h-2.564a.467.467 0 0 1-.468-.468v-.064c0-.258.209-.468.468-.468h2.564c.259 0 .468.21.468.468M100.75 53.968v.064a.467.467 0 0 1-.468.468h-2.564a.467.467 0 0 1-.468-.468v-.064c0-.258.209-.468.468-.468h2.564c.259 0 .468.21.468.468M100.75 62.968v.064a.467.467 0 0 1-.468.468h-2.564a.467.467 0 0 1-.468-.468v-.064c0-.258.209-.468.468-.468h2.564c.259 0 .468.21.468.468M100.75 71.968v.064a.467.467 0 0 1-.468.468h-2.564a.467.467 0 0 1-.468-.468v-.064c0-.258.209-.468.468-.468h2.564c.259 0 .468.21.468.468M100.75 80.968v.064a.467.467 0 0 1-.468.468h-2.564a.467.467 0 0 1-.468-.468v-.064c0-.258.209-.468.468-.468h2.564c.259 0 .468.21.468.468M100.75 89.968v.064a.467.467 0 0 1-.468.468h-2.564a.467.467 0 0 1-.468-.468v-.064c0-.258.209-.468.468-.468h2.564c.259 0 .468.21.468.468M100.75 98.968v.064a.467.467 0 0 1-.468.468h-2.564a.467.467 0 0 1-.468-.468v-.064c0-.258.209-.468.468-.468h2.564c.259 0 .468.21.468.468M100.75 107.968v.064a.467.467 0 0 1-.468.468h-2.564a.467.467 0 0 1-.468-.468v-.064c0-.26.209-.468.468-.468h2.564c.259 0 .468.209.468.468M100.75 116.968v.064a.467.467 0 0 1-.468.468h-2.564a.467.467 0 0 1-.468-.468v-.064c0-.26.209-.468.468-.468h2.564c.259 0 .468.209.468.468M100.75 125.968v.064a.467.467 0 0 1-.468.468h-2.564a.467.467 0 0 1-.468-.468v-.064c0-.26.209-.468.468-.468h2.564c.259 0 .468.209.468.468M100.75 134.968v.064a.467.467 0 0 1-.468.468h-2.564a.467.467 0 0 1-.468-.468v-.064c0-.26.209-.468.468-.468h2.564c.259 0 .468.209.468.468M100.75 143.968v.064a.467.467 0 0 1-.468.468h-2.564a.467.467 0 0 1-.468-.468v-.064c0-.26.209-.468.468-.468h2.564c.259 0 .468.209.468.468M100.75 152.968v.064a.467.467 0 0 1-.468.468h-2.564a.467.467 0 0 1-.468-.468v-.064c0-.26.209-.468.468-.468h2.564c.259 0 .468.209.468.468M100.75 161.968v.064a.467.467 0 0 1-.468.468h-2.564a.467.467 0 0 1-.468-.468v-.064c0-.26.209-.468.468-.468h2.564c.259 0 .468.209.468.468M100.75 170.968v.064a.467.467 0 0 1-.468.468h-2.564a.467.467 0 0 1-.468-.468v-.064c0-.26.209-.468.468-.468h2.564c.259 0 .468.209.468.468M100.75 179.968v.064a.467.467 0 0 1-.468.468h-2.564a.467.467 0 0 1-.468-.468v-.064c0-.26.209-.468.468-.468h2.564c.259 0 .468.209.468.468M100.75 188.968v.064a.467.467 0 0 1-.468.468h-2.564a.467.467 0 0 1-.468-.468v-.064c0-.26.209-.468.468-.468h2.564c.259 0 .468.209.468.468M100.75 197.968v.064a.467.467 0 0 1-.468.468h-2.564a.467.467 0 0 1-.468-.468v-.064c0-.26.209-.468.468-.468h2.564c.259 0 .468.209.468.468M104.75 4.757v.064a.467.467 0 0 1-.468.468h-2.564a.467.467 0 0 1-.468-.468v-.064c0-.258.209-.468.468-.468h2.564c.259 0 .468.21.468.468M104.75 13.757v.064a.467.467 0 0 1-.468.468h-2.564a.467.467 0 0 1-.468-.468v-.064c0-.258.209-.468.468-.468h2.564c.259 0 .468.21.468.468M104.75 22.757v.064a.467.467 0 0 1-.468.468h-2.564a.467.467 0 0 1-.468-.468v-.064c0-.258.209-.468.468-.468h2.564c.259 0 .468.21.468.468M104.75 31.757v.064a.467.467 0 0 1-.468.468h-2.564a.467.467 0 0 1-.468-.468v-.064c0-.258.209-.468.468-.468h2.564c.259 0 .468.21.468.468M104.75 40.757v.064a.467.467 0 0 1-.468.468h-2.564a.467.467 0 0 1-.468-.468v-.064c0-.258.209-.468.468-.468h2.564c.259 0 .468.21.468.468M104.75 49.757v.064a.467.467 0 0 1-.468.468h-2.564a.467.467 0 0 1-.468-.468v-.064c0-.258.209-.468.468-.468h2.564c.259 0 .468.21.468.468M104.75 58.757v.064a.467.467 0 0 1-.468.468h-2.564a.467.467 0 0 1-.468-.468v-.064c0-.258.209-.468.468-.468h2.564c.259 0 .468.21.468.468M104.75 67.757v.064a.467.467 0 0 1-.468.468h-2.564a.467.467 0 0 1-.468-.468v-.064c0-.258.209-.468.468-.468h2.564c.259 0 .468.21.468.468M104.75 76.757v.064a.467.467 0 0 1-.468.468h-2.564a.467.467 0 0 1-.468-.468v-.064c0-.258.209-.468.468-.468h2.564c.259 0 .468.21.468.468M104.75 85.757v.064a.467.467 0 0 1-.468.468h-2.564a.467.467 0 0 1-.468-.468v-.064c0-.258.209-.468.468-.468h2.564c.259 0 .468.21.468.468M104.75 94.757v.064a.467.467 0 0 1-.468.468h-2.564a.467.467 0 0 1-.468-.468v-.064c0-.258.209-.468.468-.468h2.564c.259 0 .468.21.468.468M104.75 103.758v.064a.468.468 0 0 1-.468.468h-2.564a.468.468 0 0 1-.468-.468v-.064c0-.26.209-.468.468-.468h2.564c.259 0 .468.209.468.468M104.75 112.758v.064a.468.468 0 0 1-.468.468h-2.564a.468.468 0 0 1-.468-.468v-.064c0-.26.209-.468.468-.468h2.564c.259 0 .468.209.468.468M104.75 121.758v.064a.468.468 0 0 1-.468.468h-2.564a.468.468 0 0 1-.468-.468v-.064c0-.26.209-.468.468-.468h2.564c.259 0 .468.209.468.468M104.75 130.758v.064a.468.468 0 0 1-.468.468h-2.564a.468.468 0 0 1-.468-.468v-.064c0-.26.209-.468.468-.468h2.564c.259 0 .468.209.468.468M104.75 139.758v.064a.468.468 0 0 1-.468.468h-2.564a.468.468 0 0 1-.468-.468v-.064c0-.26.209-.468.468-.468h2.564c.259 0 .468.209.468.468M104.75 148.758v.064a.468.468 0 0 1-.468.468h-2.564a.468.468 0 0 1-.468-.468v-.064c0-.26.209-.468.468-.468h2.564c.259 0 .468.209.468.468M104.75 157.758v.064a.468.468 0 0 1-.468.468h-2.564a.468.468 0 0 1-.468-.468v-.064c0-.26.209-.468.468-.468h2.564c.259 0 .468.209.468.468M104.75 166.758v.064a.468.468 0 0 1-.468.468h-2.564a.468.468 0 0 1-.468-.468v-.064c0-.26.209-.468.468-.468h2.564c.259 0 .468.209.468.468M104.75 175.758v.064a.468.468 0 0 1-.468.468h-2.564a.468.468 0 0 1-.468-.468v-.064c0-.26.209-.468.468-.468h2.564c.259 0 .468.209.468.468M104.75 184.758v.064a.468.468 0 0 1-.468.468h-2.564a.468.468 0 0 1-.468-.468v-.064c0-.26.209-.468.468-.468h2.564c.259 0 .468.209.468.468M104.75 193.758v.064a.468.468 0 0 1-.468.468h-2.564a.468.468 0 0 1-.468-.468v-.064c0-.26.209-.468.468-.468h2.564c.259 0 .468.209.468.468M110.75 8.968v.064a.467.467 0 0 1-.468.468h-2.564a.467.467 0 0 1-.468-.468v-.064c0-.258.209-.468.468-.468h2.564c.259 0 .468.21.468.468M110.75 17.968v.064a.467.467 0 0 1-.468.468h-2.564a.467.467 0 0 1-.468-.468v-.064c0-.258.209-.468.468-.468h2.564c.259 0 .468.21.468.468M110.75 26.968v.064a.467.467 0 0 1-.468.468h-2.564a.467.467 0 0 1-.468-.468v-.064c0-.258.209-.468.468-.468h2.564c.259 0 .468.21.468.468M110.75 35.968v.064a.467.467 0 0 1-.468.468h-2.564a.467.467 0 0 1-.468-.468v-.064c0-.258.209-.468.468-.468h2.564c.259 0 .468.21.468.468M110.75 44.968v.064a.467.467 0 0 1-.468.468h-2.564a.467.467 0 0 1-.468-.468v-.064c0-.258.209-.468.468-.468h2.564c.259 0 .468.21.468.468M110.75 53.968v.064a.467.467 0 0 1-.468.468h-2.564a.467.467 0 0 1-.468-.468v-.064c0-.258.209-.468.468-.468h2.564c.259 0 .468.21.468.468M110.75 62.968v.064a.467.467 0 0 1-.468.468h-2.564a.467.467 0 0 1-.468-.468v-.064c0-.258.209-.468.468-.468h2.564c.259 0 .468.21.468.468M110.75 71.968v.064a.467.467 0 0 1-.468.468h-2.564a.467.467 0 0 1-.468-.468v-.064c0-.258.209-.468.468-.468h2.564c.259 0 .468.21.468.468M110.75 80.968v.064a.467.467 0 0 1-.468.468h-2.564a.467.467 0 0 1-.468-.468v-.064c0-.258.209-.468.468-.468h2.564c.259 0 .468.21.468.468M110.75 89.968v.064a.467.467 0 0 1-.468.468h-2.564a.467.467 0 0 1-.468-.468v-.064c0-.258.209-.468.468-.468h2.564c.259 0 .468.21.468.468M110.75 98.968v.064a.467.467 0 0 1-.468.468h-2.564a.467.467 0 0 1-.468-.468v-.064c0-.258.209-.468.468-.468h2.564c.259 0 .468.21.468.468M110.75 107.968v.064a.467.467 0 0 1-.468.468h-2.564a.467.467 0 0 1-.468-.468v-.064c0-.26.209-.468.468-.468h2.564c.259 0 .468.209.468.468M110.75 116.968v.064a.467.467 0 0 1-.468.468h-2.564a.467.467 0 0 1-.468-.468v-.064c0-.26.209-.468.468-.468h2.564c.259 0 .468.209.468.468M110.75 125.968v.064a.467.467 0 0 1-.468.468h-2.564a.467.467 0 0 1-.468-.468v-.064c0-.26.209-.468.468-.468h2.564c.259 0 .468.209.468.468M110.75 134.968v.064a.467.467 0 0 1-.468.468h-2.564a.467.467 0 0 1-.468-.468v-.064c0-.26.209-.468.468-.468h2.564c.259 0 .468.209.468.468M110.75 143.968v.064a.467.467 0 0 1-.468.468h-2.564a.467.467 0 0 1-.468-.468v-.064c0-.26.209-.468.468-.468h2.564c.259 0 .468.209.468.468M110.75 152.968v.064a.467.467 0 0 1-.468.468h-2.564a.467.467 0 0 1-.468-.468v-.064c0-.26.209-.468.468-.468h2.564c.259 0 .468.209.468.468M110.75 161.968v.064a.467.467 0 0 1-.468.468h-2.564a.467.467 0 0 1-.468-.468v-.064c0-.26.209-.468.468-.468h2.564c.259 0 .468.209.468.468M110.75 170.968v.064a.467.467 0 0 1-.468.468h-2.564a.467.467 0 0 1-.468-.468v-.064c0-.26.209-.468.468-.468h2.564c.259 0 .468.209.468.468M110.75 179.968v.064a.467.467 0 0 1-.468.468h-2.564a.467.467 0 0 1-.468-.468v-.064c0-.26.209-.468.468-.468h2.564c.259 0 .468.209.468.468M110.75 188.968v.064a.467.467 0 0 1-.468.468h-2.564a.467.467 0 0 1-.468-.468v-.064c0-.26.209-.468.468-.468h2.564c.259 0 .468.209.468.468M110.75 197.968v.064a.467.467 0 0 1-.468.468h-2.564a.467.467 0 0 1-.468-.468v-.064c0-.26.209-.468.468-.468h2.564c.259 0 .468.209.468.468M116.75 4.757v.064a.467.467 0 0 1-.468.468h-2.564a.467.467 0 0 1-.468-.468v-.064c0-.258.209-.468.468-.468h2.564c.259 0 .468.21.468.468M116.75 13.757v.064a.467.467 0 0 1-.468.468h-2.564a.467.467 0 0 1-.468-.468v-.064c0-.258.209-.468.468-.468h2.564c.259 0 .468.21.468.468M116.75 22.757v.064a.467.467 0 0 1-.468.468h-2.564a.467.467 0 0 1-.468-.468v-.064c0-.258.209-.468.468-.468h2.564c.259 0 .468.21.468.468M116.75 31.757v.064a.467.467 0 0 1-.468.468h-2.564a.467.467 0 0 1-.468-.468v-.064c0-.258.209-.468.468-.468h2.564c.259 0 .468.21.468.468M116.75 40.757v.064a.467.467 0 0 1-.468.468h-2.564a.467.467 0 0 1-.468-.468v-.064c0-.258.209-.468.468-.468h2.564c.259 0 .468.21.468.468M116.75 49.757v.064a.467.467 0 0 1-.468.468h-2.564a.467.467 0 0 1-.468-.468v-.064c0-.258.209-.468.468-.468h2.564c.259 0 .468.21.468.468M116.75 58.757v.064a.467.467 0 0 1-.468.468h-2.564a.467.467 0 0 1-.468-.468v-.064c0-.258.209-.468.468-.468h2.564c.259 0 .468.21.468.468M116.75 67.757v.064a.467.467 0 0 1-.468.468h-2.564a.467.467 0 0 1-.468-.468v-.064c0-.258.209-.468.468-.468h2.564c.259 0 .468.21.468.468M116.75 76.757v.064a.467.467 0 0 1-.468.468h-2.564a.467.467 0 0 1-.468-.468v-.064c0-.258.209-.468.468-.468h2.564c.259 0 .468.21.468.468M116.75 85.757v.064a.467.467 0 0 1-.468.468h-2.564a.467.467 0 0 1-.468-.468v-.064c0-.258.209-.468.468-.468h2.564c.259 0 .468.21.468.468M116.75 94.757v.064a.467.467 0 0 1-.468.468h-2.564a.467.467 0 0 1-.468-.468v-.064c0-.258.209-.468.468-.468h2.564c.259 0 .468.21.468.468M116.75 103.758v.064a.468.468 0 0 1-.468.468h-2.564a.468.468 0 0 1-.468-.468v-.064c0-.26.209-.468.468-.468h2.564c.259 0 .468.209.468.468M116.75 112.758v.064a.468.468 0 0 1-.468.468h-2.564a.468.468 0 0 1-.468-.468v-.064c0-.26.209-.468.468-.468h2.564c.259 0 .468.209.468.468M116.75 121.758v.064a.468.468 0 0 1-.468.468h-2.564a.468.468 0 0 1-.468-.468v-.064c0-.26.209-.468.468-.468h2.564c.259 0 .468.209.468.468M116.75 130.758v.064a.468.468 0 0 1-.468.468h-2.564a.468.468 0 0 1-.468-.468v-.064c0-.26.209-.468.468-.468h2.564c.259 0 .468.209.468.468M116.75 139.758v.064a.468.468 0 0 1-.468.468h-2.564a.468.468 0 0 1-.468-.468v-.064c0-.26.209-.468.468-.468h2.564c.259 0 .468.209.468.468M116.75 148.758v.064a.468.468 0 0 1-.468.468h-2.564a.468.468 0 0 1-.468-.468v-.064c0-.26.209-.468.468-.468h2.564c.259 0 .468.209.468.468M116.75 157.758v.064a.468.468 0 0 1-.468.468h-2.564a.468.468 0 0 1-.468-.468v-.064c0-.26.209-.468.468-.468h2.564c.259 0 .468.209.468.468M116.75 166.758v.064a.468.468 0 0 1-.468.468h-2.564a.468.468 0 0 1-.468-.468v-.064c0-.26.209-.468.468-.468h2.564c.259 0 .468.209.468.468M116.75 175.758v.064a.468.468 0 0 1-.468.468h-2.564a.468.468 0 0 1-.468-.468v-.064c0-.26.209-.468.468-.468h2.564c.259 0 .468.209.468.468M116.75 184.758v.064a.468.468 0 0 1-.468.468h-2.564a.468.468 0 0 1-.468-.468v-.064c0-.26.209-.468.468-.468h2.564c.259 0 .468.209.468.468M116.75 193.758v.064a.468.468 0 0 1-.468.468h-2.564a.468.468 0 0 1-.468-.468v-.064c0-.26.209-.468.468-.468h2.564c.259 0 .468.209.468.468M122.75 8.968v.064a.467.467 0 0 1-.468.468h-2.564a.467.467 0 0 1-.468-.468v-.064c0-.258.209-.468.468-.468h2.564c.259 0 .468.21.468.468M122.75 17.968v.064a.467.467 0 0 1-.468.468h-2.564a.467.467 0 0 1-.468-.468v-.064c0-.258.209-.468.468-.468h2.564c.259 0 .468.21.468.468M122.75 26.968v.064a.467.467 0 0 1-.468.468h-2.564a.467.467 0 0 1-.468-.468v-.064c0-.258.209-.468.468-.468h2.564c.259 0 .468.21.468.468M122.75 35.968v.064a.467.467 0 0 1-.468.468h-2.564a.467.467 0 0 1-.468-.468v-.064c0-.258.209-.468.468-.468h2.564c.259 0 .468.21.468.468M122.75 44.968v.064a.467.467 0 0 1-.468.468h-2.564a.467.467 0 0 1-.468-.468v-.064c0-.258.209-.468.468-.468h2.564c.259 0 .468.21.468.468M122.75 53.968v.064a.467.467 0 0 1-.468.468h-2.564a.467.467 0 0 1-.468-.468v-.064c0-.258.209-.468.468-.468h2.564c.259 0 .468.21.468.468M122.75 62.968v.064a.467.467 0 0 1-.468.468h-2.564a.467.467 0 0 1-.468-.468v-.064c0-.258.209-.468.468-.468h2.564c.259 0 .468.21.468.468M122.75 71.968v.064a.467.467 0 0 1-.468.468h-2.564a.467.467 0 0 1-.468-.468v-.064c0-.258.209-.468.468-.468h2.564c.259 0 .468.21.468.468M122.75 80.968v.064a.467.467 0 0 1-.468.468h-2.564a.467.467 0 0 1-.468-.468v-.064c0-.258.209-.468.468-.468h2.564c.259 0 .468.21.468.468M122.75 89.968v.064a.467.467 0 0 1-.468.468h-2.564a.467.467 0 0 1-.468-.468v-.064c0-.258.209-.468.468-.468h2.564c.259 0 .468.21.468.468M122.75 98.968v.064a.467.467 0 0 1-.468.468h-2.564a.467.467 0 0 1-.468-.468v-.064c0-.258.209-.468.468-.468h2.564c.259 0 .468.21.468.468M122.75 107.968v.064a.467.467 0 0 1-.468.468h-2.564a.467.467 0 0 1-.468-.468v-.064c0-.26.209-.468.468-.468h2.564c.259 0 .468.209.468.468M122.75 116.968v.064a.467.467 0 0 1-.468.468h-2.564a.467.467 0 0 1-.468-.468v-.064c0-.26.209-.468.468-.468h2.564c.259 0 .468.209.468.468M122.75 125.968v.064a.467.467 0 0 1-.468.468h-2.564a.467.467 0 0 1-.468-.468v-.064c0-.26.209-.468.468-.468h2.564c.259 0 .468.209.468.468M122.75 134.968v.064a.467.467 0 0 1-.468.468h-2.564a.467.467 0 0 1-.468-.468v-.064c0-.26.209-.468.468-.468h2.564c.259 0 .468.209.468.468M122.75 143.968v.064a.467.467 0 0 1-.468.468h-2.564a.467.467 0 0 1-.468-.468v-.064c0-.26.209-.468.468-.468h2.564c.259 0 .468.209.468.468M122.75 152.968v.064a.467.467 0 0 1-.468.468h-2.564a.467.467 0 0 1-.468-.468v-.064c0-.26.209-.468.468-.468h2.564c.259 0 .468.209.468.468M122.75 161.968v.064a.467.467 0 0 1-.468.468h-2.564a.467.467 0 0 1-.468-.468v-.064c0-.26.209-.468.468-.468h2.564c.259 0 .468.209.468.468M122.75 170.968v.064a.467.467 0 0 1-.468.468h-2.564a.467.467 0 0 1-.468-.468v-.064c0-.26.209-.468.468-.468h2.564c.259 0 .468.209.468.468M122.75 179.968v.064a.467.467 0 0 1-.468.468h-2.564a.467.467 0 0 1-.468-.468v-.064c0-.26.209-.468.468-.468h2.564c.259 0 .468.209.468.468M122.75 188.968v.064a.467.467 0 0 1-.468.468h-2.564a.467.467 0 0 1-.468-.468v-.064c0-.26.209-.468.468-.468h2.564c.259 0 .468.209.468.468M122.75 197.968v.064a.467.467 0 0 1-.468.468h-2.564a.467.467 0 0 1-.468-.468v-.064c0-.26.209-.468.468-.468h2.564c.259 0 .468.209.468.468M128.75 4.757v.064a.467.467 0 0 1-.468.468h-2.564a.467.467 0 0 1-.468-.468v-.064c0-.258.209-.468.468-.468h2.564c.259 0 .468.21.468.468M128.75 13.757v.064a.467.467 0 0 1-.468.468h-2.564a.467.467 0 0 1-.468-.468v-.064c0-.258.209-.468.468-.468h2.564c.259 0 .468.21.468.468M128.75 22.757v.064a.467.467 0 0 1-.468.468h-2.564a.467.467 0 0 1-.468-.468v-.064c0-.258.209-.468.468-.468h2.564c.259 0 .468.21.468.468M128.75 31.757v.064a.467.467 0 0 1-.468.468h-2.564a.467.467 0 0 1-.468-.468v-.064c0-.258.209-.468.468-.468h2.564c.259 0 .468.21.468.468M128.75 40.757v.064a.467.467 0 0 1-.468.468h-2.564a.467.467 0 0 1-.468-.468v-.064c0-.258.209-.468.468-.468h2.564c.259 0 .468.21.468.468M128.75 49.757v.064a.467.467 0 0 1-.468.468h-2.564a.467.467 0 0 1-.468-.468v-.064c0-.258.209-.468.468-.468h2.564c.259 0 .468.21.468.468M128.75 58.757v.064a.467.467 0 0 1-.468.468h-2.564a.467.467 0 0 1-.468-.468v-.064c0-.258.209-.468.468-.468h2.564c.259 0 .468.21.468.468M128.75 67.757v.064a.467.467 0 0 1-.468.468h-2.564a.467.467 0 0 1-.468-.468v-.064c0-.258.209-.468.468-.468h2.564c.259 0 .468.21.468.468M128.75 76.757v.064a.467.467 0 0 1-.468.468h-2.564a.467.467 0 0 1-.468-.468v-.064c0-.258.209-.468.468-.468h2.564c.259 0 .468.21.468.468M128.75 85.757v.064a.467.467 0 0 1-.468.468h-2.564a.467.467 0 0 1-.468-.468v-.064c0-.258.209-.468.468-.468h2.564c.259 0 .468.21.468.468M128.75 94.757v.064a.467.467 0 0 1-.468.468h-2.564a.467.467 0 0 1-.468-.468v-.064c0-.258.209-.468.468-.468h2.564c.259 0 .468.21.468.468M128.75 103.758v.064a.468.468 0 0 1-.468.468h-2.564a.468.468 0 0 1-.468-.468v-.064c0-.26.209-.468.468-.468h2.564c.259 0 .468.209.468.468M128.75 112.758v.064a.468.468 0 0 1-.468.468h-2.564a.468.468 0 0 1-.468-.468v-.064c0-.26.209-.468.468-.468h2.564c.259 0 .468.209.468.468M128.75 121.758v.064a.468.468 0 0 1-.468.468h-2.564a.468.468 0 0 1-.468-.468v-.064c0-.26.209-.468.468-.468h2.564c.259 0 .468.209.468.468M128.75 130.758v.064a.468.468 0 0 1-.468.468h-2.564a.468.468 0 0 1-.468-.468v-.064c0-.26.209-.468.468-.468h2.564c.259 0 .468.209.468.468M128.75 139.758v.064a.468.468 0 0 1-.468.468h-2.564a.468.468 0 0 1-.468-.468v-.064c0-.26.209-.468.468-.468h2.564c.259 0 .468.209.468.468M128.75 148.758v.064a.468.468 0 0 1-.468.468h-2.564a.468.468 0 0 1-.468-.468v-.064c0-.26.209-.468.468-.468h2.564c.259 0 .468.209.468.468M128.75 157.758v.064a.468.468 0 0 1-.468.468h-2.564a.468.468 0 0 1-.468-.468v-.064c0-.26.209-.468.468-.468h2.564c.259 0 .468.209.468.468M128.75 166.758v.064a.468.468 0 0 1-.468.468h-2.564a.468.468 0 0 1-.468-.468v-.064c0-.26.209-.468.468-.468h2.564c.259 0 .468.209.468.468M128.75 175.758v.064a.468.468 0 0 1-.468.468h-2.564a.468.468 0 0 1-.468-.468v-.064c0-.26.209-.468.468-.468h2.564c.259 0 .468.209.468.468M128.75 184.758v.064a.468.468 0 0 1-.468.468h-2.564a.468.468 0 0 1-.468-.468v-.064c0-.26.209-.468.468-.468h2.564c.259 0 .468.209.468.468M128.75 193.758v.064a.468.468 0 0 1-.468.468h-2.564a.468.468 0 0 1-.468-.468v-.064c0-.26.209-.468.468-.468h2.564c.259 0 .468.209.468.468M134.75 8.968v.064a.467.467 0 0 1-.468.468h-2.564a.467.467 0 0 1-.468-.468v-.064c0-.258.209-.468.468-.468h2.564c.259 0 .468.21.468.468M134.75 17.968v.064a.467.467 0 0 1-.468.468h-2.564a.467.467 0 0 1-.468-.468v-.064c0-.258.209-.468.468-.468h2.564c.259 0 .468.21.468.468M134.75 26.968v.064a.467.467 0 0 1-.468.468h-2.564a.467.467 0 0 1-.468-.468v-.064c0-.258.209-.468.468-.468h2.564c.259 0 .468.21.468.468M134.75 35.968v.064a.467.467 0 0 1-.468.468h-2.564a.467.467 0 0 1-.468-.468v-.064c0-.258.209-.468.468-.468h2.564c.259 0 .468.21.468.468M134.75 44.968v.064a.467.467 0 0 1-.468.468h-2.564a.467.467 0 0 1-.468-.468v-.064c0-.258.209-.468.468-.468h2.564c.259 0 .468.21.468.468M134.75 53.968v.064a.467.467 0 0 1-.468.468h-2.564a.467.467 0 0 1-.468-.468v-.064c0-.258.209-.468.468-.468h2.564c.259 0 .468.21.468.468M134.75 62.968v.064a.467.467 0 0 1-.468.468h-2.564a.467.467 0 0 1-.468-.468v-.064c0-.258.209-.468.468-.468h2.564c.259 0 .468.21.468.468M134.75 71.968v.064a.467.467 0 0 1-.468.468h-2.564a.467.467 0 0 1-.468-.468v-.064c0-.258.209-.468.468-.468h2.564c.259 0 .468.21.468.468M134.75 80.968v.064a.467.467 0 0 1-.468.468h-2.564a.467.467 0 0 1-.468-.468v-.064c0-.258.209-.468.468-.468h2.564c.259 0 .468.21.468.468M134.75 89.968v.064a.467.467 0 0 1-.468.468h-2.564a.467.467 0 0 1-.468-.468v-.064c0-.258.209-.468.468-.468h2.564c.259 0 .468.21.468.468M134.75 98.968v.064a.467.467 0 0 1-.468.468h-2.564a.467.467 0 0 1-.468-.468v-.064c0-.258.209-.468.468-.468h2.564c.259 0 .468.21.468.468M134.75 107.968v.064a.467.467 0 0 1-.468.468h-2.564a.467.467 0 0 1-.468-.468v-.064c0-.26.209-.468.468-.468h2.564c.259 0 .468.209.468.468M134.75 116.968v.064a.467.467 0 0 1-.468.468h-2.564a.467.467 0 0 1-.468-.468v-.064c0-.26.209-.468.468-.468h2.564c.259 0 .468.209.468.468M134.75 125.968v.064a.467.467 0 0 1-.468.468h-2.564a.467.467 0 0 1-.468-.468v-.064c0-.26.209-.468.468-.468h2.564c.259 0 .468.209.468.468M134.75 134.968v.064a.467.467 0 0 1-.468.468h-2.564a.467.467 0 0 1-.468-.468v-.064c0-.26.209-.468.468-.468h2.564c.259 0 .468.209.468.468M134.75 143.968v.064a.467.467 0 0 1-.468.468h-2.564a.467.467 0 0 1-.468-.468v-.064c0-.26.209-.468.468-.468h2.564c.259 0 .468.209.468.468M134.75 152.968v.064a.467.467 0 0 1-.468.468h-2.564a.467.467 0 0 1-.468-.468v-.064c0-.26.209-.468.468-.468h2.564c.259 0 .468.209.468.468M134.75 161.968v.064a.467.467 0 0 1-.468.468h-2.564a.467.467 0 0 1-.468-.468v-.064c0-.26.209-.468.468-.468h2.564c.259 0 .468.209.468.468M134.75 170.968v.064a.467.467 0 0 1-.468.468h-2.564a.467.467 0 0 1-.468-.468v-.064c0-.26.209-.468.468-.468h2.564c.259 0 .468.209.468.468M134.75 179.968v.064a.467.467 0 0 1-.468.468h-2.564a.467.467 0 0 1-.468-.468v-.064c0-.26.209-.468.468-.468h2.564c.259 0 .468.209.468.468M134.75 188.968v.064a.467.467 0 0 1-.468.468h-2.564a.467.467 0 0 1-.468-.468v-.064c0-.26.209-.468.468-.468h2.564c.259 0 .468.209.468.468M134.75 197.968v.064a.467.467 0 0 1-.468.468h-2.564a.467.467 0 0 1-.468-.468v-.064c0-.26.209-.468.468-.468h2.564c.259 0 .468.209.468.468M140.75 4.757v.064a.467.467 0 0 1-.468.468h-2.564a.467.467 0 0 1-.468-.468v-.064c0-.258.209-.468.468-.468h2.564c.259 0 .468.21.468.468M140.75 13.757v.064a.467.467 0 0 1-.468.468h-2.564a.467.467 0 0 1-.468-.468v-.064c0-.258.209-.468.468-.468h2.564c.259 0 .468.21.468.468M140.75 22.757v.064a.467.467 0 0 1-.468.468h-2.564a.467.467 0 0 1-.468-.468v-.064c0-.258.209-.468.468-.468h2.564c.259 0 .468.21.468.468M140.75 31.757v.064a.467.467 0 0 1-.468.468h-2.564a.467.467 0 0 1-.468-.468v-.064c0-.258.209-.468.468-.468h2.564c.259 0 .468.21.468.468M140.75 40.757v.064a.467.467 0 0 1-.468.468h-2.564a.467.467 0 0 1-.468-.468v-.064c0-.258.209-.468.468-.468h2.564c.259 0 .468.21.468.468M140.75 49.757v.064a.467.467 0 0 1-.468.468h-2.564a.467.467 0 0 1-.468-.468v-.064c0-.258.209-.468.468-.468h2.564c.259 0 .468.21.468.468M140.75 58.757v.064a.467.467 0 0 1-.468.468h-2.564a.467.467 0 0 1-.468-.468v-.064c0-.258.209-.468.468-.468h2.564c.259 0 .468.21.468.468M140.75 67.757v.064a.467.467 0 0 1-.468.468h-2.564a.467.467 0 0 1-.468-.468v-.064c0-.258.209-.468.468-.468h2.564c.259 0 .468.21.468.468M140.75 76.757v.064a.467.467 0 0 1-.468.468h-2.564a.467.467 0 0 1-.468-.468v-.064c0-.258.209-.468.468-.468h2.564c.259 0 .468.21.468.468M140.75 85.757v.064a.467.467 0 0 1-.468.468h-2.564a.467.467 0 0 1-.468-.468v-.064c0-.258.209-.468.468-.468h2.564c.259 0 .468.21.468.468M140.75 94.757v.064a.467.467 0 0 1-.468.468h-2.564a.467.467 0 0 1-.468-.468v-.064c0-.258.209-.468.468-.468h2.564c.259 0 .468.21.468.468M140.75 103.758v.064a.468.468 0 0 1-.468.468h-2.564a.468.468 0 0 1-.468-.468v-.064c0-.26.209-.468.468-.468h2.564c.259 0 .468.209.468.468M140.75 112.758v.064a.468.468 0 0 1-.468.468h-2.564a.468.468 0 0 1-.468-.468v-.064c0-.26.209-.468.468-.468h2.564c.259 0 .468.209.468.468M140.75 121.758v.064a.468.468 0 0 1-.468.468h-2.564a.468.468 0 0 1-.468-.468v-.064c0-.26.209-.468.468-.468h2.564c.259 0 .468.209.468.468M140.75 130.758v.064a.468.468 0 0 1-.468.468h-2.564a.468.468 0 0 1-.468-.468v-.064c0-.26.209-.468.468-.468h2.564c.259 0 .468.209.468.468M140.75 139.758v.064a.468.468 0 0 1-.468.468h-2.564a.468.468 0 0 1-.468-.468v-.064c0-.26.209-.468.468-.468h2.564c.259 0 .468.209.468.468M140.75 148.758v.064a.468.468 0 0 1-.468.468h-2.564a.468.468 0 0 1-.468-.468v-.064c0-.26.209-.468.468-.468h2.564c.259 0 .468.209.468.468M140.75 157.758v.064a.468.468 0 0 1-.468.468h-2.564a.468.468 0 0 1-.468-.468v-.064c0-.26.209-.468.468-.468h2.564c.259 0 .468.209.468.468M140.75 166.758v.064a.468.468 0 0 1-.468.468h-2.564a.468.468 0 0 1-.468-.468v-.064c0-.26.209-.468.468-.468h2.564c.259 0 .468.209.468.468M140.75 175.758v.064a.468.468 0 0 1-.468.468h-2.564a.468.468 0 0 1-.468-.468v-.064c0-.26.209-.468.468-.468h2.564c.259 0 .468.209.468.468M140.75 184.758v.064a.468.468 0 0 1-.468.468h-2.564a.468.468 0 0 1-.468-.468v-.064c0-.26.209-.468.468-.468h2.564c.259 0 .468.209.468.468M140.75 193.758v.064a.468.468 0 0 1-.468.468h-2.564a.468.468 0 0 1-.468-.468v-.064c0-.26.209-.468.468-.468h2.564c.259 0 .468.209.468.468M146.75 8.968v.064a.467.467 0 0 1-.468.468h-2.564a.467.467 0 0 1-.468-.468v-.064c0-.258.209-.468.468-.468h2.564c.259 0 .468.21.468.468M146.75 17.968v.064a.467.467 0 0 1-.468.468h-2.564a.467.467 0 0 1-.468-.468v-.064c0-.258.209-.468.468-.468h2.564c.259 0 .468.21.468.468M146.75 26.968v.064a.467.467 0 0 1-.468.468h-2.564a.467.467 0 0 1-.468-.468v-.064c0-.258.209-.468.468-.468h2.564c.259 0 .468.21.468.468M146.75 35.968v.064a.467.467 0 0 1-.468.468h-2.564a.467.467 0 0 1-.468-.468v-.064c0-.258.209-.468.468-.468h2.564c.259 0 .468.21.468.468M146.75 44.968v.064a.467.467 0 0 1-.468.468h-2.564a.467.467 0 0 1-.468-.468v-.064c0-.258.209-.468.468-.468h2.564c.259 0 .468.21.468.468M146.75 53.968v.064a.467.467 0 0 1-.468.468h-2.564a.467.467 0 0 1-.468-.468v-.064c0-.258.209-.468.468-.468h2.564c.259 0 .468.21.468.468M146.75 62.968v.064a.467.467 0 0 1-.468.468h-2.564a.467.467 0 0 1-.468-.468v-.064c0-.258.209-.468.468-.468h2.564c.259 0 .468.21.468.468M146.75 71.968v.064a.467.467 0 0 1-.468.468h-2.564a.467.467 0 0 1-.468-.468v-.064c0-.258.209-.468.468-.468h2.564c.259 0 .468.21.468.468M146.75 80.968v.064a.467.467 0 0 1-.468.468h-2.564a.467.467 0 0 1-.468-.468v-.064c0-.258.209-.468.468-.468h2.564c.259 0 .468.21.468.468M146.75 89.968v.064a.467.467 0 0 1-.468.468h-2.564a.467.467 0 0 1-.468-.468v-.064c0-.258.209-.468.468-.468h2.564c.259 0 .468.21.468.468M146.75 98.968v.064a.467.467 0 0 1-.468.468h-2.564a.467.467 0 0 1-.468-.468v-.064c0-.258.209-.468.468-.468h2.564c.259 0 .468.21.468.468M146.75 107.968v.064a.467.467 0 0 1-.468.468h-2.564a.467.467 0 0 1-.468-.468v-.064c0-.26.209-.468.468-.468h2.564c.259 0 .468.209.468.468M146.75 116.968v.064a.467.467 0 0 1-.468.468h-2.564a.467.467 0 0 1-.468-.468v-.064c0-.26.209-.468.468-.468h2.564c.259 0 .468.209.468.468M146.75 125.968v.064a.467.467 0 0 1-.468.468h-2.564a.467.467 0 0 1-.468-.468v-.064c0-.26.209-.468.468-.468h2.564c.259 0 .468.209.468.468M146.75 134.968v.064a.467.467 0 0 1-.468.468h-2.564a.467.467 0 0 1-.468-.468v-.064c0-.26.209-.468.468-.468h2.564c.259 0 .468.209.468.468M146.75 143.968v.064a.467.467 0 0 1-.468.468h-2.564a.467.467 0 0 1-.468-.468v-.064c0-.26.209-.468.468-.468h2.564c.259 0 .468.209.468.468M146.75 152.968v.064a.467.467 0 0 1-.468.468h-2.564a.467.467 0 0 1-.468-.468v-.064c0-.26.209-.468.468-.468h2.564c.259 0 .468.209.468.468M146.75 161.968v.064a.467.467 0 0 1-.468.468h-2.564a.467.467 0 0 1-.468-.468v-.064c0-.26.209-.468.468-.468h2.564c.259 0 .468.209.468.468M146.75 170.968v.064a.467.467 0 0 1-.468.468h-2.564a.467.467 0 0 1-.468-.468v-.064c0-.26.209-.468.468-.468h2.564c.259 0 .468.209.468.468M146.75 179.968v.064a.467.467 0 0 1-.468.468h-2.564a.467.467 0 0 1-.468-.468v-.064c0-.26.209-.468.468-.468h2.564c.259 0 .468.209.468.468M146.75 188.968v.064a.467.467 0 0 1-.468.468h-2.564a.467.467 0 0 1-.468-.468v-.064c0-.26.209-.468.468-.468h2.564c.259 0 .468.209.468.468M146.75 197.968v.064a.467.467 0 0 1-.468.468h-2.564a.467.467 0 0 1-.468-.468v-.064c0-.26.209-.468.468-.468h2.564c.259 0 .468.209.468.468M152.75 4.757v.064a.467.467 0 0 1-.468.468h-2.564a.467.467 0 0 1-.468-.468v-.064c0-.258.209-.468.468-.468h2.564c.259 0 .468.21.468.468M152.75 13.757v.064a.467.467 0 0 1-.468.468h-2.564a.467.467 0 0 1-.468-.468v-.064c0-.258.209-.468.468-.468h2.564c.259 0 .468.21.468.468M152.75 22.757v.064a.467.467 0 0 1-.468.468h-2.564a.467.467 0 0 1-.468-.468v-.064c0-.258.209-.468.468-.468h2.564c.259 0 .468.21.468.468M152.75 31.757v.064a.467.467 0 0 1-.468.468h-2.564a.467.467 0 0 1-.468-.468v-.064c0-.258.209-.468.468-.468h2.564c.259 0 .468.21.468.468M152.75 40.757v.064a.467.467 0 0 1-.468.468h-2.564a.467.467 0 0 1-.468-.468v-.064c0-.258.209-.468.468-.468h2.564c.259 0 .468.21.468.468M152.75 49.757v.064a.467.467 0 0 1-.468.468h-2.564a.467.467 0 0 1-.468-.468v-.064c0-.258.209-.468.468-.468h2.564c.259 0 .468.21.468.468M152.75 58.757v.064a.467.467 0 0 1-.468.468h-2.564a.467.467 0 0 1-.468-.468v-.064c0-.258.209-.468.468-.468h2.564c.259 0 .468.21.468.468M152.75 67.757v.064a.467.467 0 0 1-.468.468h-2.564a.467.467 0 0 1-.468-.468v-.064c0-.258.209-.468.468-.468h2.564c.259 0 .468.21.468.468M152.75 76.757v.064a.467.467 0 0 1-.468.468h-2.564a.467.467 0 0 1-.468-.468v-.064c0-.258.209-.468.468-.468h2.564c.259 0 .468.21.468.468M152.75 85.757v.064a.467.467 0 0 1-.468.468h-2.564a.467.467 0 0 1-.468-.468v-.064c0-.258.209-.468.468-.468h2.564c.259 0 .468.21.468.468M152.75 94.757v.064a.467.467 0 0 1-.468.468h-2.564a.467.467 0 0 1-.468-.468v-.064c0-.258.209-.468.468-.468h2.564c.259 0 .468.21.468.468M152.75 103.758v.064a.468.468 0 0 1-.468.468h-2.564a.468.468 0 0 1-.468-.468v-.064c0-.26.209-.468.468-.468h2.564c.259 0 .468.209.468.468M152.75 112.758v.064a.468.468 0 0 1-.468.468h-2.564a.468.468 0 0 1-.468-.468v-.064c0-.26.209-.468.468-.468h2.564c.259 0 .468.209.468.468M152.75 121.758v.064a.468.468 0 0 1-.468.468h-2.564a.468.468 0 0 1-.468-.468v-.064c0-.26.209-.468.468-.468h2.564c.259 0 .468.209.468.468M152.75 130.758v.064a.468.468 0 0 1-.468.468h-2.564a.468.468 0 0 1-.468-.468v-.064c0-.26.209-.468.468-.468h2.564c.259 0 .468.209.468.468M152.75 139.758v.064a.468.468 0 0 1-.468.468h-2.564a.468.468 0 0 1-.468-.468v-.064c0-.26.209-.468.468-.468h2.564c.259 0 .468.209.468.468M152.75 148.758v.064a.468.468 0 0 1-.468.468h-2.564a.468.468 0 0 1-.468-.468v-.064c0-.26.209-.468.468-.468h2.564c.259 0 .468.209.468.468M152.75 157.758v.064a.468.468 0 0 1-.468.468h-2.564a.468.468 0 0 1-.468-.468v-.064c0-.26.209-.468.468-.468h2.564c.259 0 .468.209.468.468M152.75 166.758v.064a.468.468 0 0 1-.468.468h-2.564a.468.468 0 0 1-.468-.468v-.064c0-.26.209-.468.468-.468h2.564c.259 0 .468.209.468.468M152.75 175.758v.064a.468.468 0 0 1-.468.468h-2.564a.468.468 0 0 1-.468-.468v-.064c0-.26.209-.468.468-.468h2.564c.259 0 .468.209.468.468M152.75 184.758v.064a.468.468 0 0 1-.468.468h-2.564a.468.468 0 0 1-.468-.468v-.064c0-.26.209-.468.468-.468h2.564c.259 0 .468.209.468.468M152.75 193.758v.064a.468.468 0 0 1-.468.468h-2.564a.468.468 0 0 1-.468-.468v-.064c0-.26.209-.468.468-.468h2.564c.259 0 .468.209.468.468M158.75 8.968v.064a.467.467 0 0 1-.468.468h-2.564a.467.467 0 0 1-.468-.468v-.064c0-.258.209-.468.468-.468h2.564c.259 0 .468.21.468.468M158.75 17.968v.064a.467.467 0 0 1-.468.468h-2.564a.467.467 0 0 1-.468-.468v-.064c0-.258.209-.468.468-.468h2.564c.259 0 .468.21.468.468M158.75 26.968v.064a.467.467 0 0 1-.468.468h-2.564a.467.467 0 0 1-.468-.468v-.064c0-.258.209-.468.468-.468h2.564c.259 0 .468.21.468.468M158.75 35.968v.064a.467.467 0 0 1-.468.468h-2.564a.467.467 0 0 1-.468-.468v-.064c0-.258.209-.468.468-.468h2.564c.259 0 .468.21.468.468M158.75 44.968v.064a.467.467 0 0 1-.468.468h-2.564a.467.467 0 0 1-.468-.468v-.064c0-.258.209-.468.468-.468h2.564c.259 0 .468.21.468.468M158.75 53.968v.064a.467.467 0 0 1-.468.468h-2.564a.467.467 0 0 1-.468-.468v-.064c0-.258.209-.468.468-.468h2.564c.259 0 .468.21.468.468M158.75 62.968v.064a.467.467 0 0 1-.468.468h-2.564a.467.467 0 0 1-.468-.468v-.064c0-.258.209-.468.468-.468h2.564c.259 0 .468.21.468.468M158.75 71.968v.064a.467.467 0 0 1-.468.468h-2.564a.467.467 0 0 1-.468-.468v-.064c0-.258.209-.468.468-.468h2.564c.259 0 .468.21.468.468M158.75 80.968v.064a.467.467 0 0 1-.468.468h-2.564a.467.467 0 0 1-.468-.468v-.064c0-.258.209-.468.468-.468h2.564c.259 0 .468.21.468.468M158.75 89.968v.064a.467.467 0 0 1-.468.468h-2.564a.467.467 0 0 1-.468-.468v-.064c0-.258.209-.468.468-.468h2.564c.259 0 .468.21.468.468M158.75 98.968v.064a.467.467 0 0 1-.468.468h-2.564a.467.467 0 0 1-.468-.468v-.064c0-.258.209-.468.468-.468h2.564c.259 0 .468.21.468.468M158.75 107.968v.064a.467.467 0 0 1-.468.468h-2.564a.467.467 0 0 1-.468-.468v-.064c0-.26.209-.468.468-.468h2.564c.259 0 .468.209.468.468M158.75 116.968v.064a.467.467 0 0 1-.468.468h-2.564a.467.467 0 0 1-.468-.468v-.064c0-.26.209-.468.468-.468h2.564c.259 0 .468.209.468.468M158.75 125.968v.064a.467.467 0 0 1-.468.468h-2.564a.467.467 0 0 1-.468-.468v-.064c0-.26.209-.468.468-.468h2.564c.259 0 .468.209.468.468M158.75 134.968v.064a.467.467 0 0 1-.468.468h-2.564a.467.467 0 0 1-.468-.468v-.064c0-.26.209-.468.468-.468h2.564c.259 0 .468.209.468.468M158.75 143.968v.064a.467.467 0 0 1-.468.468h-2.564a.467.467 0 0 1-.468-.468v-.064c0-.26.209-.468.468-.468h2.564c.259 0 .468.209.468.468M158.75 152.968v.064a.467.467 0 0 1-.468.468h-2.564a.467.467 0 0 1-.468-.468v-.064c0-.26.209-.468.468-.468h2.564c.259 0 .468.209.468.468M158.75 161.968v.064a.467.467 0 0 1-.468.468h-2.564a.467.467 0 0 1-.468-.468v-.064c0-.26.209-.468.468-.468h2.564c.259 0 .468.209.468.468M158.75 170.968v.064a.467.467 0 0 1-.468.468h-2.564a.467.467 0 0 1-.468-.468v-.064c0-.26.209-.468.468-.468h2.564c.259 0 .468.209.468.468M158.75 179.968v.064a.467.467 0 0 1-.468.468h-2.564a.467.467 0 0 1-.468-.468v-.064c0-.26.209-.468.468-.468h2.564c.259 0 .468.209.468.468M158.75 188.968v.064a.467.467 0 0 1-.468.468h-2.564a.467.467 0 0 1-.468-.468v-.064c0-.26.209-.468.468-.468h2.564c.259 0 .468.209.468.468M158.75 197.968v.064a.467.467 0 0 1-.468.468h-2.564a.467.467 0 0 1-.468-.468v-.064c0-.26.209-.468.468-.468h2.564c.259 0 .468.209.468.468M164.75 4.757v.064a.467.467 0 0 1-.468.468h-2.564a.467.467 0 0 1-.468-.468v-.064c0-.258.209-.468.468-.468h2.564c.259 0 .468.21.468.468M164.75 13.757v.064a.467.467 0 0 1-.468.468h-2.564a.467.467 0 0 1-.468-.468v-.064c0-.258.209-.468.468-.468h2.564c.259 0 .468.21.468.468M164.75 22.757v.064a.467.467 0 0 1-.468.468h-2.564a.467.467 0 0 1-.468-.468v-.064c0-.258.209-.468.468-.468h2.564c.259 0 .468.21.468.468M164.75 31.757v.064a.467.467 0 0 1-.468.468h-2.564a.467.467 0 0 1-.468-.468v-.064c0-.258.209-.468.468-.468h2.564c.259 0 .468.21.468.468M164.75 40.757v.064a.467.467 0 0 1-.468.468h-2.564a.467.467 0 0 1-.468-.468v-.064c0-.258.209-.468.468-.468h2.564c.259 0 .468.21.468.468M164.75 49.757v.064a.467.467 0 0 1-.468.468h-2.564a.467.467 0 0 1-.468-.468v-.064c0-.258.209-.468.468-.468h2.564c.259 0 .468.21.468.468M164.75 58.757v.064a.467.467 0 0 1-.468.468h-2.564a.467.467 0 0 1-.468-.468v-.064c0-.258.209-.468.468-.468h2.564c.259 0 .468.21.468.468M164.75 67.757v.064a.467.467 0 0 1-.468.468h-2.564a.467.467 0 0 1-.468-.468v-.064c0-.258.209-.468.468-.468h2.564c.259 0 .468.21.468.468M164.75 76.757v.064a.467.467 0 0 1-.468.468h-2.564a.467.467 0 0 1-.468-.468v-.064c0-.258.209-.468.468-.468h2.564c.259 0 .468.21.468.468M164.75 85.757v.064a.467.467 0 0 1-.468.468h-2.564a.467.467 0 0 1-.468-.468v-.064c0-.258.209-.468.468-.468h2.564c.259 0 .468.21.468.468M164.75 94.757v.064a.467.467 0 0 1-.468.468h-2.564a.467.467 0 0 1-.468-.468v-.064c0-.258.209-.468.468-.468h2.564c.259 0 .468.21.468.468M164.75 103.758v.064a.468.468 0 0 1-.468.468h-2.564a.468.468 0 0 1-.468-.468v-.064c0-.26.209-.468.468-.468h2.564c.259 0 .468.209.468.468M164.75 112.758v.064a.468.468 0 0 1-.468.468h-2.564a.468.468 0 0 1-.468-.468v-.064c0-.26.209-.468.468-.468h2.564c.259 0 .468.209.468.468M164.75 121.758v.064a.468.468 0 0 1-.468.468h-2.564a.468.468 0 0 1-.468-.468v-.064c0-.26.209-.468.468-.468h2.564c.259 0 .468.209.468.468M164.75 130.758v.064a.468.468 0 0 1-.468.468h-2.564a.468.468 0 0 1-.468-.468v-.064c0-.26.209-.468.468-.468h2.564c.259 0 .468.209.468.468M164.75 139.758v.064a.468.468 0 0 1-.468.468h-2.564a.468.468 0 0 1-.468-.468v-.064c0-.26.209-.468.468-.468h2.564c.259 0 .468.209.468.468M164.75 148.758v.064a.468.468 0 0 1-.468.468h-2.564a.468.468 0 0 1-.468-.468v-.064c0-.26.209-.468.468-.468h2.564c.259 0 .468.209.468.468M164.75 157.758v.064a.468.468 0 0 1-.468.468h-2.564a.468.468 0 0 1-.468-.468v-.064c0-.26.209-.468.468-.468h2.564c.259 0 .468.209.468.468M164.75 166.758v.064a.468.468 0 0 1-.468.468h-2.564a.468.468 0 0 1-.468-.468v-.064c0-.26.209-.468.468-.468h2.564c.259 0 .468.209.468.468M164.75 175.758v.064a.468.468 0 0 1-.468.468h-2.564a.468.468 0 0 1-.468-.468v-.064c0-.26.209-.468.468-.468h2.564c.259 0 .468.209.468.468M164.75 184.758v.064a.468.468 0 0 1-.468.468h-2.564a.468.468 0 0 1-.468-.468v-.064c0-.26.209-.468.468-.468h2.564c.259 0 .468.209.468.468M164.75 193.758v.064a.468.468 0 0 1-.468.468h-2.564a.468.468 0 0 1-.468-.468v-.064c0-.26.209-.468.468-.468h2.564c.259 0 .468.209.468.468M170.75 8.968v.064a.467.467 0 0 1-.468.468h-2.564a.467.467 0 0 1-.468-.468v-.064c0-.258.209-.468.468-.468h2.564c.259 0 .468.21.468.468M170.75 17.968v.064a.467.467 0 0 1-.468.468h-2.564a.467.467 0 0 1-.468-.468v-.064c0-.258.209-.468.468-.468h2.564c.259 0 .468.21.468.468M170.75 26.968v.064a.467.467 0 0 1-.468.468h-2.564a.467.467 0 0 1-.468-.468v-.064c0-.258.209-.468.468-.468h2.564c.259 0 .468.21.468.468M170.75 35.968v.064a.467.467 0 0 1-.468.468h-2.564a.467.467 0 0 1-.468-.468v-.064c0-.258.209-.468.468-.468h2.564c.259 0 .468.21.468.468M170.75 44.968v.064a.467.467 0 0 1-.468.468h-2.564a.467.467 0 0 1-.468-.468v-.064c0-.258.209-.468.468-.468h2.564c.259 0 .468.21.468.468M170.75 53.968v.064a.467.467 0 0 1-.468.468h-2.564a.467.467 0 0 1-.468-.468v-.064c0-.258.209-.468.468-.468h2.564c.259 0 .468.21.468.468M170.75 62.968v.064a.467.467 0 0 1-.468.468h-2.564a.467.467 0 0 1-.468-.468v-.064c0-.258.209-.468.468-.468h2.564c.259 0 .468.21.468.468M170.75 71.968v.064a.467.467 0 0 1-.468.468h-2.564a.467.467 0 0 1-.468-.468v-.064c0-.258.209-.468.468-.468h2.564c.259 0 .468.21.468.468M170.75 80.968v.064a.467.467 0 0 1-.468.468h-2.564a.467.467 0 0 1-.468-.468v-.064c0-.258.209-.468.468-.468h2.564c.259 0 .468.21.468.468M170.75 89.968v.064a.467.467 0 0 1-.468.468h-2.564a.467.467 0 0 1-.468-.468v-.064c0-.258.209-.468.468-.468h2.564c.259 0 .468.21.468.468M170.75 98.968v.064a.467.467 0 0 1-.468.468h-2.564a.467.467 0 0 1-.468-.468v-.064c0-.258.209-.468.468-.468h2.564c.259 0 .468.21.468.468M170.75 107.968v.064a.467.467 0 0 1-.468.468h-2.564a.467.467 0 0 1-.468-.468v-.064c0-.26.209-.468.468-.468h2.564c.259 0 .468.209.468.468M170.75 116.968v.064a.467.467 0 0 1-.468.468h-2.564a.467.467 0 0 1-.468-.468v-.064c0-.26.209-.468.468-.468h2.564c.259 0 .468.209.468.468M170.75 125.968v.064a.467.467 0 0 1-.468.468h-2.564a.467.467 0 0 1-.468-.468v-.064c0-.26.209-.468.468-.468h2.564c.259 0 .468.209.468.468M170.75 134.968v.064a.467.467 0 0 1-.468.468h-2.564a.467.467 0 0 1-.468-.468v-.064c0-.26.209-.468.468-.468h2.564c.259 0 .468.209.468.468M170.75 143.968v.064a.467.467 0 0 1-.468.468h-2.564a.467.467 0 0 1-.468-.468v-.064c0-.26.209-.468.468-.468h2.564c.259 0 .468.209.468.468M170.75 152.968v.064a.467.467 0 0 1-.468.468h-2.564a.467.467 0 0 1-.468-.468v-.064c0-.26.209-.468.468-.468h2.564c.259 0 .468.209.468.468M170.75 161.968v.064a.467.467 0 0 1-.468.468h-2.564a.467.467 0 0 1-.468-.468v-.064c0-.26.209-.468.468-.468h2.564c.259 0 .468.209.468.468M170.75 170.968v.064a.467.467 0 0 1-.468.468h-2.564a.467.467 0 0 1-.468-.468v-.064c0-.26.209-.468.468-.468h2.564c.259 0 .468.209.468.468M170.75 179.968v.064a.467.467 0 0 1-.468.468h-2.564a.467.467 0 0 1-.468-.468v-.064c0-.26.209-.468.468-.468h2.564c.259 0 .468.209.468.468M170.75 188.968v.064a.467.467 0 0 1-.468.468h-2.564a.467.467 0 0 1-.468-.468v-.064c0-.26.209-.468.468-.468h2.564c.259 0 .468.209.468.468M170.75 197.968v.064a.467.467 0 0 1-.468.468h-2.564a.467.467 0 0 1-.468-.468v-.064c0-.26.209-.468.468-.468h2.564c.259 0 .468.209.468.468M176.75 4.757v.064a.467.467 0 0 1-.468.468h-2.564a.467.467 0 0 1-.468-.468v-.064c0-.258.209-.468.468-.468h2.564c.259 0 .468.21.468.468M176.75 13.757v.064a.467.467 0 0 1-.468.468h-2.564a.467.467 0 0 1-.468-.468v-.064c0-.258.209-.468.468-.468h2.564c.259 0 .468.21.468.468M176.75 22.757v.064a.467.467 0 0 1-.468.468h-2.564a.467.467 0 0 1-.468-.468v-.064c0-.258.209-.468.468-.468h2.564c.259 0 .468.21.468.468M176.75 31.757v.064a.467.467 0 0 1-.468.468h-2.564a.467.467 0 0 1-.468-.468v-.064c0-.258.209-.468.468-.468h2.564c.259 0 .468.21.468.468M176.75 40.757v.064a.467.467 0 0 1-.468.468h-2.564a.467.467 0 0 1-.468-.468v-.064c0-.258.209-.468.468-.468h2.564c.259 0 .468.21.468.468M176.75 49.757v.064a.467.467 0 0 1-.468.468h-2.564a.467.467 0 0 1-.468-.468v-.064c0-.258.209-.468.468-.468h2.564c.259 0 .468.21.468.468M176.75 58.757v.064a.467.467 0 0 1-.468.468h-2.564a.467.467 0 0 1-.468-.468v-.064c0-.258.209-.468.468-.468h2.564c.259 0 .468.21.468.468M176.75 67.757v.064a.467.467 0 0 1-.468.468h-2.564a.467.467 0 0 1-.468-.468v-.064c0-.258.209-.468.468-.468h2.564c.259 0 .468.21.468.468M176.75 76.757v.064a.467.467 0 0 1-.468.468h-2.564a.467.467 0 0 1-.468-.468v-.064c0-.258.209-.468.468-.468h2.564c.259 0 .468.21.468.468M176.75 85.757v.064a.467.467 0 0 1-.468.468h-2.564a.467.467 0 0 1-.468-.468v-.064c0-.258.209-.468.468-.468h2.564c.259 0 .468.21.468.468M176.75 94.757v.064a.467.467 0 0 1-.468.468h-2.564a.467.467 0 0 1-.468-.468v-.064c0-.258.209-.468.468-.468h2.564c.259 0 .468.21.468.468M176.75 103.758v.064a.468.468 0 0 1-.468.468h-2.564a.468.468 0 0 1-.468-.468v-.064c0-.26.209-.468.468-.468h2.564c.259 0 .468.209.468.468M176.75 112.758v.064a.468.468 0 0 1-.468.468h-2.564a.468.468 0 0 1-.468-.468v-.064c0-.26.209-.468.468-.468h2.564c.259 0 .468.209.468.468M176.75 121.758v.064a.468.468 0 0 1-.468.468h-2.564a.468.468 0 0 1-.468-.468v-.064c0-.26.209-.468.468-.468h2.564c.259 0 .468.209.468.468M176.75 130.758v.064a.468.468 0 0 1-.468.468h-2.564a.468.468 0 0 1-.468-.468v-.064c0-.26.209-.468.468-.468h2.564c.259 0 .468.209.468.468M176.75 139.758v.064a.468.468 0 0 1-.468.468h-2.564a.468.468 0 0 1-.468-.468v-.064c0-.26.209-.468.468-.468h2.564c.259 0 .468.209.468.468M176.75 148.758v.064a.468.468 0 0 1-.468.468h-2.564a.468.468 0 0 1-.468-.468v-.064c0-.26.209-.468.468-.468h2.564c.259 0 .468.209.468.468M176.75 157.758v.064a.468.468 0 0 1-.468.468h-2.564a.468.468 0 0 1-.468-.468v-.064c0-.26.209-.468.468-.468h2.564c.259 0 .468.209.468.468M176.75 166.758v.064a.468.468 0 0 1-.468.468h-2.564a.468.468 0 0 1-.468-.468v-.064c0-.26.209-.468.468-.468h2.564c.259 0 .468.209.468.468M176.75 175.758v.064a.468.468 0 0 1-.468.468h-2.564a.468.468 0 0 1-.468-.468v-.064c0-.26.209-.468.468-.468h2.564c.259 0 .468.209.468.468M176.75 184.758v.064a.468.468 0 0 1-.468.468h-2.564a.468.468 0 0 1-.468-.468v-.064c0-.26.209-.468.468-.468h2.564c.259 0 .468.209.468.468M176.75 193.758v.064a.468.468 0 0 1-.468.468h-2.564a.468.468 0 0 1-.468-.468v-.064c0-.26.209-.468.468-.468h2.564c.259 0 .468.209.468.468M182.75 8.968v.064a.467.467 0 0 1-.468.468h-2.564a.467.467 0 0 1-.468-.468v-.064c0-.258.209-.468.468-.468h2.564c.259 0 .468.21.468.468M182.75 17.968v.064a.467.467 0 0 1-.468.468h-2.564a.467.467 0 0 1-.468-.468v-.064c0-.258.209-.468.468-.468h2.564c.259 0 .468.21.468.468M182.75 26.968v.064a.467.467 0 0 1-.468.468h-2.564a.467.467 0 0 1-.468-.468v-.064c0-.258.209-.468.468-.468h2.564c.259 0 .468.21.468.468M182.75 35.968v.064a.467.467 0 0 1-.468.468h-2.564a.467.467 0 0 1-.468-.468v-.064c0-.258.209-.468.468-.468h2.564c.259 0 .468.21.468.468M182.75 44.968v.064a.467.467 0 0 1-.468.468h-2.564a.467.467 0 0 1-.468-.468v-.064c0-.258.209-.468.468-.468h2.564c.259 0 .468.21.468.468M182.75 53.968v.064a.467.467 0 0 1-.468.468h-2.564a.467.467 0 0 1-.468-.468v-.064c0-.258.209-.468.468-.468h2.564c.259 0 .468.21.468.468M182.75 62.968v.064a.467.467 0 0 1-.468.468h-2.564a.467.467 0 0 1-.468-.468v-.064c0-.258.209-.468.468-.468h2.564c.259 0 .468.21.468.468M182.75 71.968v.064a.467.467 0 0 1-.468.468h-2.564a.467.467 0 0 1-.468-.468v-.064c0-.258.209-.468.468-.468h2.564c.259 0 .468.21.468.468M182.75 80.968v.064a.467.467 0 0 1-.468.468h-2.564a.467.467 0 0 1-.468-.468v-.064c0-.258.209-.468.468-.468h2.564c.259 0 .468.21.468.468M182.75 89.968v.064a.467.467 0 0 1-.468.468h-2.564a.467.467 0 0 1-.468-.468v-.064c0-.258.209-.468.468-.468h2.564c.259 0 .468.21.468.468M182.75 98.968v.064a.467.467 0 0 1-.468.468h-2.564a.467.467 0 0 1-.468-.468v-.064c0-.258.209-.468.468-.468h2.564c.259 0 .468.21.468.468M182.75 107.968v.064a.467.467 0 0 1-.468.468h-2.564a.467.467 0 0 1-.468-.468v-.064c0-.26.209-.468.468-.468h2.564c.259 0 .468.209.468.468M182.75 116.968v.064a.467.467 0 0 1-.468.468h-2.564a.467.467 0 0 1-.468-.468v-.064c0-.26.209-.468.468-.468h2.564c.259 0 .468.209.468.468M182.75 125.968v.064a.467.467 0 0 1-.468.468h-2.564a.467.467 0 0 1-.468-.468v-.064c0-.26.209-.468.468-.468h2.564c.259 0 .468.209.468.468M182.75 134.968v.064a.467.467 0 0 1-.468.468h-2.564a.467.467 0 0 1-.468-.468v-.064c0-.26.209-.468.468-.468h2.564c.259 0 .468.209.468.468M182.75 143.968v.064a.467.467 0 0 1-.468.468h-2.564a.467.467 0 0 1-.468-.468v-.064c0-.26.209-.468.468-.468h2.564c.259 0 .468.209.468.468M182.75 152.968v.064a.467.467 0 0 1-.468.468h-2.564a.467.467 0 0 1-.468-.468v-.064c0-.26.209-.468.468-.468h2.564c.259 0 .468.209.468.468M182.75 161.968v.064a.467.467 0 0 1-.468.468h-2.564a.467.467 0 0 1-.468-.468v-.064c0-.26.209-.468.468-.468h2.564c.259 0 .468.209.468.468M182.75 170.968v.064a.467.467 0 0 1-.468.468h-2.564a.467.467 0 0 1-.468-.468v-.064c0-.26.209-.468.468-.468h2.564c.259 0 .468.209.468.468M182.75 179.968v.064a.467.467 0 0 1-.468.468h-2.564a.467.467 0 0 1-.468-.468v-.064c0-.26.209-.468.468-.468h2.564c.259 0 .468.209.468.468M182.75 188.968v.064a.467.467 0 0 1-.468.468h-2.564a.467.467 0 0 1-.468-.468v-.064c0-.26.209-.468.468-.468h2.564c.259 0 .468.209.468.468M182.75 197.968v.064a.467.467 0 0 1-.468.468h-2.564a.467.467 0 0 1-.468-.468v-.064c0-.26.209-.468.468-.468h2.564c.259 0 .468.209.468.468M188.75 4.757v.064a.467.467 0 0 1-.468.468h-2.564a.467.467 0 0 1-.468-.468v-.064c0-.258.209-.468.468-.468h2.564c.259 0 .468.21.468.468M188.75 13.757v.064a.467.467 0 0 1-.468.468h-2.564a.467.467 0 0 1-.468-.468v-.064c0-.258.209-.468.468-.468h2.564c.259 0 .468.21.468.468M188.75 22.757v.064a.467.467 0 0 1-.468.468h-2.564a.467.467 0 0 1-.468-.468v-.064c0-.258.209-.468.468-.468h2.564c.259 0 .468.21.468.468M188.75 31.757v.064a.467.467 0 0 1-.468.468h-2.564a.467.467 0 0 1-.468-.468v-.064c0-.258.209-.468.468-.468h2.564c.259 0 .468.21.468.468M188.75 40.757v.064a.467.467 0 0 1-.468.468h-2.564a.467.467 0 0 1-.468-.468v-.064c0-.258.209-.468.468-.468h2.564c.259 0 .468.21.468.468M188.75 49.757v.064a.467.467 0 0 1-.468.468h-2.564a.467.467 0 0 1-.468-.468v-.064c0-.258.209-.468.468-.468h2.564c.259 0 .468.21.468.468M188.75 58.757v.064a.467.467 0 0 1-.468.468h-2.564a.467.467 0 0 1-.468-.468v-.064c0-.258.209-.468.468-.468h2.564c.259 0 .468.21.468.468M188.75 67.757v.064a.467.467 0 0 1-.468.468h-2.564a.467.467 0 0 1-.468-.468v-.064c0-.258.209-.468.468-.468h2.564c.259 0 .468.21.468.468M188.75 76.757v.064a.467.467 0 0 1-.468.468h-2.564a.467.467 0 0 1-.468-.468v-.064c0-.258.209-.468.468-.468h2.564c.259 0 .468.21.468.468M188.75 85.757v.064a.467.467 0 0 1-.468.468h-2.564a.467.467 0 0 1-.468-.468v-.064c0-.258.209-.468.468-.468h2.564c.259 0 .468.21.468.468M188.75 94.757v.064a.467.467 0 0 1-.468.468h-2.564a.467.467 0 0 1-.468-.468v-.064c0-.258.209-.468.468-.468h2.564c.259 0 .468.21.468.468M188.75 103.758v.064a.468.468 0 0 1-.468.468h-2.564a.468.468 0 0 1-.468-.468v-.064c0-.26.209-.468.468-.468h2.564c.259 0 .468.209.468.468M188.75 112.758v.064a.468.468 0 0 1-.468.468h-2.564a.468.468 0 0 1-.468-.468v-.064c0-.26.209-.468.468-.468h2.564c.259 0 .468.209.468.468M188.75 121.758v.064a.468.468 0 0 1-.468.468h-2.564a.468.468 0 0 1-.468-.468v-.064c0-.26.209-.468.468-.468h2.564c.259 0 .468.209.468.468M188.75 130.758v.064a.468.468 0 0 1-.468.468h-2.564a.468.468 0 0 1-.468-.468v-.064c0-.26.209-.468.468-.468h2.564c.259 0 .468.209.468.468M188.75 139.758v.064a.468.468 0 0 1-.468.468h-2.564a.468.468 0 0 1-.468-.468v-.064c0-.26.209-.468.468-.468h2.564c.259 0 .468.209.468.468M188.75 148.758v.064a.468.468 0 0 1-.468.468h-2.564a.468.468 0 0 1-.468-.468v-.064c0-.26.209-.468.468-.468h2.564c.259 0 .468.209.468.468M188.75 157.758v.064a.468.468 0 0 1-.468.468h-2.564a.468.468 0 0 1-.468-.468v-.064c0-.26.209-.468.468-.468h2.564c.259 0 .468.209.468.468M188.75 166.758v.064a.468.468 0 0 1-.468.468h-2.564a.468.468 0 0 1-.468-.468v-.064c0-.26.209-.468.468-.468h2.564c.259 0 .468.209.468.468M188.75 175.758v.064a.468.468 0 0 1-.468.468h-2.564a.468.468 0 0 1-.468-.468v-.064c0-.26.209-.468.468-.468h2.564c.259 0 .468.209.468.468M188.75 184.758v.064a.468.468 0 0 1-.468.468h-2.564a.468.468 0 0 1-.468-.468v-.064c0-.26.209-.468.468-.468h2.564c.259 0 .468.209.468.468M188.75 193.758v.064a.468.468 0 0 1-.468.468h-2.564a.468.468 0 0 1-.468-.468v-.064c0-.26.209-.468.468-.468h2.564c.259 0 .468.209.468.468M194.75 8.968v.064a.467.467 0 0 1-.468.468h-2.564a.467.467 0 0 1-.468-.468v-.064c0-.258.209-.468.468-.468h2.564c.259 0 .468.21.468.468M194.75 17.968v.064a.467.467 0 0 1-.468.468h-2.564a.467.467 0 0 1-.468-.468v-.064c0-.258.209-.468.468-.468h2.564c.259 0 .468.21.468.468M194.75 26.968v.064a.467.467 0 0 1-.468.468h-2.564a.467.467 0 0 1-.468-.468v-.064c0-.258.209-.468.468-.468h2.564c.259 0 .468.21.468.468M194.75 35.968v.064a.467.467 0 0 1-.468.468h-2.564a.467.467 0 0 1-.468-.468v-.064c0-.258.209-.468.468-.468h2.564c.259 0 .468.21.468.468M194.75 44.968v.064a.467.467 0 0 1-.468.468h-2.564a.467.467 0 0 1-.468-.468v-.064c0-.258.209-.468.468-.468h2.564c.259 0 .468.21.468.468M194.75 53.968v.064a.467.467 0 0 1-.468.468h-2.564a.467.467 0 0 1-.468-.468v-.064c0-.258.209-.468.468-.468h2.564c.259 0 .468.21.468.468M194.75 62.968v.064a.467.467 0 0 1-.468.468h-2.564a.467.467 0 0 1-.468-.468v-.064c0-.258.209-.468.468-.468h2.564c.259 0 .468.21.468.468M194.75 71.968v.064a.467.467 0 0 1-.468.468h-2.564a.467.467 0 0 1-.468-.468v-.064c0-.258.209-.468.468-.468h2.564c.259 0 .468.21.468.468M194.75 80.968v.064a.467.467 0 0 1-.468.468h-2.564a.467.467 0 0 1-.468-.468v-.064c0-.258.209-.468.468-.468h2.564c.259 0 .468.21.468.468M194.75 89.968v.064a.467.467 0 0 1-.468.468h-2.564a.467.467 0 0 1-.468-.468v-.064c0-.258.209-.468.468-.468h2.564c.259 0 .468.21.468.468M194.75 98.968v.064a.467.467 0 0 1-.468.468h-2.564a.467.467 0 0 1-.468-.468v-.064c0-.258.209-.468.468-.468h2.564c.259 0 .468.21.468.468M194.75 107.968v.064a.467.467 0 0 1-.468.468h-2.564a.467.467 0 0 1-.468-.468v-.064c0-.26.209-.468.468-.468h2.564c.259 0 .468.209.468.468M194.75 116.968v.064a.467.467 0 0 1-.468.468h-2.564a.467.467 0 0 1-.468-.468v-.064c0-.26.209-.468.468-.468h2.564c.259 0 .468.209.468.468M194.75 125.968v.064a.467.467 0 0 1-.468.468h-2.564a.467.467 0 0 1-.468-.468v-.064c0-.26.209-.468.468-.468h2.564c.259 0 .468.209.468.468M194.75 134.968v.064a.467.467 0 0 1-.468.468h-2.564a.467.467 0 0 1-.468-.468v-.064c0-.26.209-.468.468-.468h2.564c.259 0 .468.209.468.468M194.75 143.968v.064a.467.467 0 0 1-.468.468h-2.564a.467.467 0 0 1-.468-.468v-.064c0-.26.209-.468.468-.468h2.564c.259 0 .468.209.468.468M194.75 152.968v.064a.467.467 0 0 1-.468.468h-2.564a.467.467 0 0 1-.468-.468v-.064c0-.26.209-.468.468-.468h2.564c.259 0 .468.209.468.468M194.75 161.968v.064a.467.467 0 0 1-.468.468h-2.564a.467.467 0 0 1-.468-.468v-.064c0-.26.209-.468.468-.468h2.564c.259 0 .468.209.468.468M194.75 170.968v.064a.467.467 0 0 1-.468.468h-2.564a.467.467 0 0 1-.468-.468v-.064c0-.26.209-.468.468-.468h2.564c.259 0 .468.209.468.468M194.75 179.968v.064a.467.467 0 0 1-.468.468h-2.564a.467.467 0 0 1-.468-.468v-.064c0-.26.209-.468.468-.468h2.564c.259 0 .468.209.468.468M194.75 188.968v.064a.467.467 0 0 1-.468.468h-2.564a.467.467 0 0 1-.468-.468v-.064c0-.26.209-.468.468-.468h2.564c.259 0 .468.209.468.468M194.75 197.968v.064a.467.467 0 0 1-.468.468h-2.564a.467.467 0 0 1-.468-.468v-.064c0-.26.209-.468.468-.468h2.564c.259 0 .468.209.468.468"/>
        </g>
    </g>
</svg>
