<svg width="200" height="200" viewBox="0 0 200 200" xmlns="http://www.w3.org/2000/svg">
    <g fill="none" fill-rule="evenodd">
        <path fill="#3617CE" d="M0 200h200V0H0z"/>
        <g fill="#483BED">
            <path d="M5 5a1 1 0 1 1-2 0 1 1 0 0 1 2 0M13 5a1 1 0 1 1-2 0 1 1 0 0 1 2 0M21 5a1 1 0 1 1-2 0 1 1 0 0 1 2 0M29 5a1 1 0 1 1-2 0 1 1 0 0 1 2 0M37 5a1 1 0 1 1-2 0 1 1 0 0 1 2 0M45 5a1 1 0 1 1-2 0 1 1 0 0 1 2 0M53 5a1 1 0 1 1-2 0 1 1 0 0 1 2 0M61 5a1 1 0 1 1-2 0 1 1 0 0 1 2 0M69 5a1 1 0 1 1-2 0 1 1 0 0 1 2 0M77 5a1 1 0 1 1-2 0 1 1 0 0 1 2 0M85 5a1 1 0 1 1-2 0 1 1 0 0 1 2 0M93 5a1 1 0 1 1-2 0 1 1 0 0 1 2 0M101 5a1 1 0 1 1-2 0 1 1 0 0 1 2 0M109 5a1 1 0 1 1-2 0 1 1 0 0 1 2 0M117 5a1 1 0 1 1-2 0 1 1 0 0 1 2 0M125 5a1 1 0 1 1-2 0 1 1 0 0 1 2 0M133 5a1 1 0 1 1-2 0 1 1 0 0 1 2 0M141 5a1 1 0 1 1-2 0 1 1 0 0 1 2 0M149 5a1 1 0 1 1-2 0 1 1 0 0 1 2 0M157 5a1 1 0 1 1-2 0 1 1 0 0 1 2 0M165 5a1 1 0 1 1-2 0 1 1 0 0 1 2 0M173 5a1 1 0 1 1-2 0 1 1 0 0 1 2 0M181 5a1 1 0 1 1-2 0 1 1 0 0 1 2 0M189 5a1 1 0 1 1-2 0 1 1 0 0 1 2 0M197 5a1 1 0 1 1-2 0 1 1 0 0 1 2 0M5 13a1 1 0 1 1-2 0 1 1 0 0 1 2 0M13 13a1 1 0 1 1-2 0 1 1 0 0 1 2 0M21 13a1 1 0 1 1-2 0 1 1 0 0 1 2 0M29 13a1 1 0 1 1-2 0 1 1 0 0 1 2 0M37 13a1 1 0 1 1-2 0 1 1 0 0 1 2 0M45 13a1 1 0 1 1-2 0 1 1 0 0 1 2 0M53 13a1 1 0 1 1-2 0 1 1 0 0 1 2 0M61 13a1 1 0 1 1-2 0 1 1 0 0 1 2 0M69 13a1 1 0 1 1-2 0 1 1 0 0 1 2 0M77 13a1 1 0 1 1-2 0 1 1 0 0 1 2 0M85 13a1 1 0 1 1-2 0 1 1 0 0 1 2 0M93 13a1 1 0 1 1-2 0 1 1 0 0 1 2 0M101 13a1 1 0 1 1-2 0 1 1 0 0 1 2 0M109 13a1 1 0 1 1-2 0 1 1 0 0 1 2 0M117 13a1 1 0 1 1-2 0 1 1 0 0 1 2 0M125 13a1 1 0 1 1-2 0 1 1 0 0 1 2 0M133 13a1 1 0 1 1-2 0 1 1 0 0 1 2 0M141 13a1 1 0 1 1-2 0 1 1 0 0 1 2 0M149 13a1 1 0 1 1-2 0 1 1 0 0 1 2 0M157 13a1 1 0 1 1-2 0 1 1 0 0 1 2 0M165 13a1 1 0 1 1-2 0 1 1 0 0 1 2 0M173 13a1 1 0 1 1-2 0 1 1 0 0 1 2 0M181 13a1 1 0 1 1-2 0 1 1 0 0 1 2 0M189 13a1 1 0 1 1-2 0 1 1 0 0 1 2 0M197 13a1 1 0 1 1-2 0 1 1 0 0 1 2 0M5 21a1 1 0 1 1-2 0 1 1 0 0 1 2 0M13 21a1 1 0 1 1-2 0 1 1 0 0 1 2 0M21 21a1 1 0 1 1-2 0 1 1 0 0 1 2 0M29 21a1 1 0 1 1-2 0 1 1 0 0 1 2 0M37 21a1 1 0 1 1-2 0 1 1 0 0 1 2 0M45 21a1 1 0 1 1-2 0 1 1 0 0 1 2 0M53 21a1 1 0 1 1-2 0 1 1 0 0 1 2 0M61 21a1 1 0 1 1-2 0 1 1 0 0 1 2 0M69 21a1 1 0 1 1-2 0 1 1 0 0 1 2 0M77 21a1 1 0 1 1-2 0 1 1 0 0 1 2 0M85 21a1 1 0 1 1-2 0 1 1 0 0 1 2 0M93 21a1 1 0 1 1-2 0 1 1 0 0 1 2 0M101 21a1 1 0 1 1-2 0 1 1 0 0 1 2 0M109 21a1 1 0 1 1-2 0 1 1 0 0 1 2 0M117 21a1 1 0 1 1-2 0 1 1 0 0 1 2 0M125 21a1 1 0 1 1-2 0 1 1 0 0 1 2 0M133 21a1 1 0 1 1-2 0 1 1 0 0 1 2 0M141 21a1 1 0 1 1-2 0 1 1 0 0 1 2 0M149 21a1 1 0 1 1-2 0 1 1 0 0 1 2 0M157 21a1 1 0 1 1-2 0 1 1 0 0 1 2 0M165 21a1 1 0 1 1-2 0 1 1 0 0 1 2 0M173 21a1 1 0 1 1-2 0 1 1 0 0 1 2 0M181 21a1 1 0 1 1-2 0 1 1 0 0 1 2 0M189 21a1 1 0 1 1-2 0 1 1 0 0 1 2 0M197 21a1 1 0 1 1-2 0 1 1 0 0 1 2 0M5 29a1 1 0 1 1-2 0 1 1 0 0 1 2 0M13 29a1 1 0 1 1-2 0 1 1 0 0 1 2 0M21 29a1 1 0 1 1-2 0 1 1 0 0 1 2 0M29 29a1 1 0 1 1-2 0 1 1 0 0 1 2 0M37 29a1 1 0 1 1-2 0 1 1 0 0 1 2 0M45 29a1 1 0 1 1-2 0 1 1 0 0 1 2 0M53 29a1 1 0 1 1-2 0 1 1 0 0 1 2 0M61 29a1 1 0 1 1-2 0 1 1 0 0 1 2 0M69 29a1 1 0 1 1-2 0 1 1 0 0 1 2 0M77 29a1 1 0 1 1-2 0 1 1 0 0 1 2 0M85 29a1 1 0 1 1-2 0 1 1 0 0 1 2 0M93 29a1 1 0 1 1-2 0 1 1 0 0 1 2 0M101 29a1 1 0 1 1-2 0 1 1 0 0 1 2 0M109 29a1 1 0 1 1-2 0 1 1 0 0 1 2 0M117 29a1 1 0 1 1-2 0 1 1 0 0 1 2 0M125 29a1 1 0 1 1-2 0 1 1 0 0 1 2 0M133 29a1 1 0 1 1-2 0 1 1 0 0 1 2 0M141 29a1 1 0 1 1-2 0 1 1 0 0 1 2 0M149 29a1 1 0 1 1-2 0 1 1 0 0 1 2 0M157 29a1 1 0 1 1-2 0 1 1 0 0 1 2 0M165 29a1 1 0 1 1-2 0 1 1 0 0 1 2 0M173 29a1 1 0 1 1-2 0 1 1 0 0 1 2 0M181 29a1 1 0 1 1-2 0 1 1 0 0 1 2 0M189 29a1 1 0 1 1-2 0 1 1 0 0 1 2 0M197 29a1 1 0 1 1-2 0 1 1 0 0 1 2 0M5 38a1 1 0 1 1-2 0 1 1 0 0 1 2 0M13 38a1 1 0 1 1-2 0 1 1 0 0 1 2 0M21 38a1 1 0 1 1-2 0 1 1 0 0 1 2 0M29 38a1 1 0 1 1-2 0 1 1 0 0 1 2 0M37 38a1 1 0 1 1-2 0 1 1 0 0 1 2 0M45 38a1 1 0 1 1-2 0 1 1 0 0 1 2 0M53 38a1 1 0 1 1-2 0 1 1 0 0 1 2 0M61 38a1 1 0 1 1-2 0 1 1 0 0 1 2 0M69 38a1 1 0 1 1-2 0 1 1 0 0 1 2 0M77 38a1 1 0 1 1-2 0 1 1 0 0 1 2 0M85 38a1 1 0 1 1-2 0 1 1 0 0 1 2 0M93 38a1 1 0 1 1-2 0 1 1 0 0 1 2 0M101 38a1 1 0 1 1-2 0 1 1 0 0 1 2 0M109 38a1 1 0 1 1-2 0 1 1 0 0 1 2 0M117 38a1 1 0 1 1-2 0 1 1 0 0 1 2 0M125 38a1 1 0 1 1-2 0 1 1 0 0 1 2 0M133 38a1 1 0 1 1-2 0 1 1 0 0 1 2 0M141 38a1 1 0 1 1-2 0 1 1 0 0 1 2 0M149 38a1 1 0 1 1-2 0 1 1 0 0 1 2 0M157 38a1 1 0 1 1-2 0 1 1 0 0 1 2 0M165 38a1 1 0 1 1-2 0 1 1 0 0 1 2 0M173 38a1 1 0 1 1-2 0 1 1 0 0 1 2 0M181 38a1 1 0 1 1-2 0 1 1 0 0 1 2 0M189 38a1 1 0 1 1-2 0 1 1 0 0 1 2 0M197 38a1 1 0 1 1-2 0 1 1 0 0 1 2 0M5 46a1 1 0 1 1-2 0 1 1 0 0 1 2 0M13 46a1 1 0 1 1-2 0 1 1 0 0 1 2 0M21 46a1 1 0 1 1-2 0 1 1 0 0 1 2 0M29 46a1 1 0 1 1-2 0 1 1 0 0 1 2 0M37 46a1 1 0 1 1-2 0 1 1 0 0 1 2 0M45 46a1 1 0 1 1-2 0 1 1 0 0 1 2 0M53 46a1 1 0 1 1-2 0 1 1 0 0 1 2 0M61 46a1 1 0 1 1-2 0 1 1 0 0 1 2 0M69 46a1 1 0 1 1-2 0 1 1 0 0 1 2 0M77 46a1 1 0 1 1-2 0 1 1 0 0 1 2 0M85 46a1 1 0 1 1-2 0 1 1 0 0 1 2 0M93 46a1 1 0 1 1-2 0 1 1 0 0 1 2 0M101 46a1 1 0 1 1-2 0 1 1 0 0 1 2 0M109 46a1 1 0 1 1-2 0 1 1 0 0 1 2 0M117 46a1 1 0 1 1-2 0 1 1 0 0 1 2 0M125 46a1 1 0 1 1-2 0 1 1 0 0 1 2 0M133 46a1 1 0 1 1-2 0 1 1 0 0 1 2 0M141 46a1 1 0 1 1-2 0 1 1 0 0 1 2 0M149 46a1 1 0 1 1-2 0 1 1 0 0 1 2 0M157 46a1 1 0 1 1-2 0 1 1 0 0 1 2 0M165 46a1 1 0 1 1-2 0 1 1 0 0 1 2 0M173 46a1 1 0 1 1-2 0 1 1 0 0 1 2 0M181 46a1 1 0 1 1-2 0 1 1 0 0 1 2 0M189 46a1 1 0 1 1-2 0 1 1 0 0 1 2 0M197 46a1 1 0 1 1-2 0 1 1 0 0 1 2 0M5 55a1 1 0 1 1-2 0 1 1 0 0 1 2 0M13 55a1 1 0 1 1-2 0 1 1 0 0 1 2 0M21 55a1 1 0 1 1-2 0 1 1 0 0 1 2 0M29 55a1 1 0 1 1-2 0 1 1 0 0 1 2 0M37 55a1 1 0 1 1-2 0 1 1 0 0 1 2 0M45 55a1 1 0 1 1-2 0 1 1 0 0 1 2 0M53 55a1 1 0 1 1-2 0 1 1 0 0 1 2 0M61 55a1 1 0 1 1-2 0 1 1 0 0 1 2 0M69 55a1 1 0 1 1-2 0 1 1 0 0 1 2 0M77 55a1 1 0 1 1-2 0 1 1 0 0 1 2 0M85 55a1 1 0 1 1-2 0 1 1 0 0 1 2 0M93 55a1 1 0 1 1-2 0 1 1 0 0 1 2 0M101 55a1 1 0 1 1-2 0 1 1 0 0 1 2 0M109 55a1 1 0 1 1-2 0 1 1 0 0 1 2 0M117 55a1 1 0 1 1-2 0 1 1 0 0 1 2 0M125 55a1 1 0 1 1-2 0 1 1 0 0 1 2 0M133 55a1 1 0 1 1-2 0 1 1 0 0 1 2 0M141 55a1 1 0 1 1-2 0 1 1 0 0 1 2 0M149 55a1 1 0 1 1-2 0 1 1 0 0 1 2 0M157 55a1 1 0 1 1-2 0 1 1 0 0 1 2 0M165 55a1 1 0 1 1-2 0 1 1 0 0 1 2 0M173 55a1 1 0 1 1-2 0 1 1 0 0 1 2 0M181 55a1 1 0 1 1-2 0 1 1 0 0 1 2 0M189 55a1 1 0 1 1-2 0 1 1 0 0 1 2 0M197 55a1 1 0 1 1-2 0 1 1 0 0 1 2 0M5 63a1 1 0 1 1-2 0 1 1 0 0 1 2 0M13 63a1 1 0 1 1-2 0 1 1 0 0 1 2 0M21 63a1 1 0 1 1-2 0 1 1 0 0 1 2 0M29 63a1 1 0 1 1-2 0 1 1 0 0 1 2 0M37 63a1 1 0 1 1-2 0 1 1 0 0 1 2 0M45 63a1 1 0 1 1-2 0 1 1 0 0 1 2 0M53 63a1 1 0 1 1-2 0 1 1 0 0 1 2 0M61 63a1 1 0 1 1-2 0 1 1 0 0 1 2 0M69 63a1 1 0 1 1-2 0 1 1 0 0 1 2 0M77 63a1 1 0 1 1-2 0 1 1 0 0 1 2 0M85 63a1 1 0 1 1-2 0 1 1 0 0 1 2 0M93 63a1 1 0 1 1-2 0 1 1 0 0 1 2 0M101 63a1 1 0 1 1-2 0 1 1 0 0 1 2 0M109 63a1 1 0 1 1-2 0 1 1 0 0 1 2 0M117 63a1 1 0 1 1-2 0 1 1 0 0 1 2 0M125 63a1 1 0 1 1-2 0 1 1 0 0 1 2 0M133 63a1 1 0 1 1-2 0 1 1 0 0 1 2 0M141 63a1 1 0 1 1-2 0 1 1 0 0 1 2 0M149 63a1 1 0 1 1-2 0 1 1 0 0 1 2 0M157 63a1 1 0 1 1-2 0 1 1 0 0 1 2 0M165 63a1 1 0 1 1-2 0 1 1 0 0 1 2 0M173 63a1 1 0 1 1-2 0 1 1 0 0 1 2 0M181 63a1 1 0 1 1-2 0 1 1 0 0 1 2 0M189 63a1 1 0 1 1-2 0 1 1 0 0 1 2 0M197 63a1 1 0 1 1-2 0 1 1 0 0 1 2 0M5 72a1 1 0 1 1-2 0 1 1 0 0 1 2 0M13 72a1 1 0 1 1-2 0 1 1 0 0 1 2 0M21 72a1 1 0 1 1-2 0 1 1 0 0 1 2 0M29 72a1 1 0 1 1-2 0 1 1 0 0 1 2 0M37 72a1 1 0 1 1-2 0 1 1 0 0 1 2 0M45 72a1 1 0 1 1-2 0 1 1 0 0 1 2 0M53 72a1 1 0 1 1-2 0 1 1 0 0 1 2 0M61 72a1 1 0 1 1-2 0 1 1 0 0 1 2 0M69 72a1 1 0 1 1-2 0 1 1 0 0 1 2 0M77 72a1 1 0 1 1-2 0 1 1 0 0 1 2 0M85 72a1 1 0 1 1-2 0 1 1 0 0 1 2 0M93 72a1 1 0 1 1-2 0 1 1 0 0 1 2 0M101 72a1 1 0 1 1-2 0 1 1 0 0 1 2 0M109 72a1 1 0 1 1-2 0 1 1 0 0 1 2 0M117 72a1 1 0 1 1-2 0 1 1 0 0 1 2 0M125 72a1 1 0 1 1-2 0 1 1 0 0 1 2 0M133 72a1 1 0 1 1-2 0 1 1 0 0 1 2 0M141 72a1 1 0 1 1-2 0 1 1 0 0 1 2 0M149 72a1 1 0 1 1-2 0 1 1 0 0 1 2 0M157 72a1 1 0 1 1-2 0 1 1 0 0 1 2 0M165 72a1 1 0 1 1-2 0 1 1 0 0 1 2 0M173 72a1 1 0 1 1-2 0 1 1 0 0 1 2 0M181 72a1 1 0 1 1-2 0 1 1 0 0 1 2 0M189 72a1 1 0 1 1-2 0 1 1 0 0 1 2 0M197 72a1 1 0 1 1-2 0 1 1 0 0 1 2 0M5 80a1 1 0 1 1-2 0 1 1 0 0 1 2 0M13 80a1 1 0 1 1-2 0 1 1 0 0 1 2 0M21 80a1 1 0 1 1-2 0 1 1 0 0 1 2 0M29 80a1 1 0 1 1-2 0 1 1 0 0 1 2 0M37 80a1 1 0 1 1-2 0 1 1 0 0 1 2 0M45 80a1 1 0 1 1-2 0 1 1 0 0 1 2 0M53 80a1 1 0 1 1-2 0 1 1 0 0 1 2 0M61 80a1 1 0 1 1-2 0 1 1 0 0 1 2 0M69 80a1 1 0 1 1-2 0 1 1 0 0 1 2 0M77 80a1 1 0 1 1-2 0 1 1 0 0 1 2 0M85 80a1 1 0 1 1-2 0 1 1 0 0 1 2 0M93 80a1 1 0 1 1-2 0 1 1 0 0 1 2 0M101 80a1 1 0 1 1-2 0 1 1 0 0 1 2 0M109 80a1 1 0 1 1-2 0 1 1 0 0 1 2 0M117 80a1 1 0 1 1-2 0 1 1 0 0 1 2 0M125 80a1 1 0 1 1-2 0 1 1 0 0 1 2 0M133 80a1 1 0 1 1-2 0 1 1 0 0 1 2 0M141 80a1 1 0 1 1-2 0 1 1 0 0 1 2 0M149 80a1 1 0 1 1-2 0 1 1 0 0 1 2 0M157 80a1 1 0 1 1-2 0 1 1 0 0 1 2 0M165 80a1 1 0 1 1-2 0 1 1 0 0 1 2 0M173 80a1 1 0 1 1-2 0 1 1 0 0 1 2 0M181 80a1 1 0 1 1-2 0 1 1 0 0 1 2 0M189 80a1 1 0 1 1-2 0 1 1 0 0 1 2 0M197 80a1 1 0 1 1-2 0 1 1 0 0 1 2 0M5 89a1 1 0 1 1-2 0 1 1 0 0 1 2 0M13 89a1 1 0 1 1-2 0 1 1 0 0 1 2 0M21 89a1 1 0 1 1-2 0 1 1 0 0 1 2 0M29 89a1 1 0 1 1-2 0 1 1 0 0 1 2 0M37 89a1 1 0 1 1-2 0 1 1 0 0 1 2 0M45 89a1 1 0 1 1-2 0 1 1 0 0 1 2 0M53 89a1 1 0 1 1-2 0 1 1 0 0 1 2 0M61 89a1 1 0 1 1-2 0 1 1 0 0 1 2 0M69 89a1 1 0 1 1-2 0 1 1 0 0 1 2 0M77 89a1 1 0 1 1-2 0 1 1 0 0 1 2 0M85 89a1 1 0 1 1-2 0 1 1 0 0 1 2 0M93 89a1 1 0 1 1-2 0 1 1 0 0 1 2 0M101 89a1 1 0 1 1-2 0 1 1 0 0 1 2 0M109 89a1 1 0 1 1-2 0 1 1 0 0 1 2 0M117 89a1 1 0 1 1-2 0 1 1 0 0 1 2 0M125 89a1 1 0 1 1-2 0 1 1 0 0 1 2 0M133 89a1 1 0 1 1-2 0 1 1 0 0 1 2 0M141 89a1 1 0 1 1-2 0 1 1 0 0 1 2 0M149 89a1 1 0 1 1-2 0 1 1 0 0 1 2 0M157 89a1 1 0 1 1-2 0 1 1 0 0 1 2 0M165 89a1 1 0 1 1-2 0 1 1 0 0 1 2 0M173 89a1 1 0 1 1-2 0 1 1 0 0 1 2 0M181 89a1 1 0 1 1-2 0 1 1 0 0 1 2 0M189 89a1 1 0 1 1-2 0 1 1 0 0 1 2 0M197 89a1 1 0 1 1-2 0 1 1 0 0 1 2 0M5 98a1 1 0 1 1-2 0 1 1 0 0 1 2 0M13 98a1 1 0 1 1-2 0 1 1 0 0 1 2 0M21 98a1 1 0 1 1-2 0 1 1 0 0 1 2 0M29 98a1 1 0 1 1-2 0 1 1 0 0 1 2 0M37 98a1 1 0 1 1-2 0 1 1 0 0 1 2 0M45 98a1 1 0 1 1-2 0 1 1 0 0 1 2 0M53 98a1 1 0 1 1-2 0 1 1 0 0 1 2 0M61 98a1 1 0 1 1-2 0 1 1 0 0 1 2 0M69 98a1 1 0 1 1-2 0 1 1 0 0 1 2 0M77 98a1 1 0 1 1-2 0 1 1 0 0 1 2 0M85 98a1 1 0 1 1-2 0 1 1 0 0 1 2 0M93 98a1 1 0 1 1-2 0 1 1 0 0 1 2 0M101 98a1 1 0 1 1-2 0 1 1 0 0 1 2 0M109 98a1 1 0 1 1-2 0 1 1 0 0 1 2 0M117 98a1 1 0 1 1-2 0 1 1 0 0 1 2 0M125 98a1 1 0 1 1-2 0 1 1 0 0 1 2 0M133 98a1 1 0 1 1-2 0 1 1 0 0 1 2 0M141 98a1 1 0 1 1-2 0 1 1 0 0 1 2 0M149 98a1 1 0 1 1-2 0 1 1 0 0 1 2 0M157 98a1 1 0 1 1-2 0 1 1 0 0 1 2 0M165 98a1 1 0 1 1-2 0 1 1 0 0 1 2 0M173 98a1 1 0 1 1-2 0 1 1 0 0 1 2 0M181 98a1 1 0 1 1-2 0 1 1 0 0 1 2 0M189 98a1 1 0 1 1-2 0 1 1 0 0 1 2 0M197 98a1 1 0 1 1-2 0 1 1 0 0 1 2 0M5 106a1 1 0 1 1-1.998.002A1 1 0 0 1 5 106M13 106a1 1 0 1 1-1.998.002A1 1 0 0 1 13 106M21 106a1 1 0 1 1-1.998.002A1 1 0 0 1 21 106M29 106a1 1 0 1 1-1.998.002A1 1 0 0 1 29 106M37 106a1 1 0 1 1-1.998.002A1 1 0 0 1 37 106M45 106a1 1 0 1 1-1.998.002A1 1 0 0 1 45 106M53 106a1 1 0 1 1-1.998.002A1 1 0 0 1 53 106M61 106a1 1 0 1 1-1.998.002A1 1 0 0 1 61 106M69 106a1 1 0 1 1-1.998.002A1 1 0 0 1 69 106M77 106a1 1 0 1 1-1.998.002A1 1 0 0 1 77 106M85 106a1 1 0 1 1-1.998.002A1 1 0 0 1 85 106M93 106a1 1 0 1 1-1.998.002A1 1 0 0 1 93 106M101 106a1 1 0 1 1-1.998.002A1 1 0 0 1 101 106M109 106a1 1 0 1 1-1.998.002A1 1 0 0 1 109 106M117 106a1 1 0 1 1-1.998.002A1 1 0 0 1 117 106M125 106a1 1 0 1 1-1.998.002A1 1 0 0 1 125 106M133 106a1 1 0 1 1-1.998.002A1 1 0 0 1 133 106M141 106a1 1 0 1 1-1.998.002A1 1 0 0 1 141 106M149 106a1 1 0 1 1-1.998.002A1 1 0 0 1 149 106M157 106a1 1 0 1 1-1.998.002A1 1 0 0 1 157 106M165 106a1 1 0 1 1-1.998.002A1 1 0 0 1 165 106M173 106a1 1 0 1 1-1.998.002A1 1 0 0 1 173 106M181 106a1 1 0 1 1-1.998.002A1 1 0 0 1 181 106M189 106a1 1 0 1 1-1.998.002A1 1 0 0 1 189 106M197 106a1 1 0 1 1-1.998.002A1 1 0 0 1 197 106M5 114a1 1 0 1 1-1.998.002A1 1 0 0 1 5 114M13 114a1 1 0 1 1-1.998.002A1 1 0 0 1 13 114M21 114a1 1 0 1 1-1.998.002A1 1 0 0 1 21 114M29 114a1 1 0 1 1-1.998.002A1 1 0 0 1 29 114M37 114a1 1 0 1 1-1.998.002A1 1 0 0 1 37 114M45 114a1 1 0 1 1-1.998.002A1 1 0 0 1 45 114M53 114a1 1 0 1 1-1.998.002A1 1 0 0 1 53 114M61 114a1 1 0 1 1-1.998.002A1 1 0 0 1 61 114M69 114a1 1 0 1 1-1.998.002A1 1 0 0 1 69 114M77 114a1 1 0 1 1-1.998.002A1 1 0 0 1 77 114M85 114a1 1 0 1 1-1.998.002A1 1 0 0 1 85 114M93 114a1 1 0 1 1-1.998.002A1 1 0 0 1 93 114M101 114a1 1 0 1 1-1.998.002A1 1 0 0 1 101 114M109 114a1 1 0 1 1-1.998.002A1 1 0 0 1 109 114M117 114a1 1 0 1 1-1.998.002A1 1 0 0 1 117 114M125 114a1 1 0 1 1-1.998.002A1 1 0 0 1 125 114M133 114a1 1 0 1 1-1.998.002A1 1 0 0 1 133 114M141 114a1 1 0 1 1-1.998.002A1 1 0 0 1 141 114M149 114a1 1 0 1 1-1.998.002A1 1 0 0 1 149 114M157 114a1 1 0 1 1-1.998.002A1 1 0 0 1 157 114M165 114a1 1 0 1 1-1.998.002A1 1 0 0 1 165 114M173 114a1 1 0 1 1-1.998.002A1 1 0 0 1 173 114M181 114a1 1 0 1 1-1.998.002A1 1 0 0 1 181 114M189 114a1 1 0 1 1-1.998.002A1 1 0 0 1 189 114M197 114a1 1 0 1 1-1.998.002A1 1 0 0 1 197 114M5 122a1 1 0 1 1-1.998.002A1 1 0 0 1 5 122M13 122a1 1 0 1 1-1.998.002A1 1 0 0 1 13 122M21 122a1 1 0 1 1-1.998.002A1 1 0 0 1 21 122M29 122a1 1 0 1 1-1.998.002A1 1 0 0 1 29 122M37 122a1 1 0 1 1-1.998.002A1 1 0 0 1 37 122M45 122a1 1 0 1 1-1.998.002A1 1 0 0 1 45 122M53 122a1 1 0 1 1-1.998.002A1 1 0 0 1 53 122M61 122a1 1 0 1 1-1.998.002A1 1 0 0 1 61 122M69 122a1 1 0 1 1-1.998.002A1 1 0 0 1 69 122M77 122a1 1 0 1 1-1.998.002A1 1 0 0 1 77 122M85 122a1 1 0 1 1-1.998.002A1 1 0 0 1 85 122M93 122a1 1 0 1 1-1.998.002A1 1 0 0 1 93 122M101 122a1 1 0 1 1-1.998.002A1 1 0 0 1 101 122M109 122a1 1 0 1 1-1.998.002A1 1 0 0 1 109 122M117 122a1 1 0 1 1-1.998.002A1 1 0 0 1 117 122M125 122a1 1 0 1 1-1.998.002A1 1 0 0 1 125 122M133 122a1 1 0 1 1-1.998.002A1 1 0 0 1 133 122M141 122a1 1 0 1 1-1.998.002A1 1 0 0 1 141 122M149 122a1 1 0 1 1-1.998.002A1 1 0 0 1 149 122M157 122a1 1 0 1 1-1.998.002A1 1 0 0 1 157 122M165 122a1 1 0 1 1-1.998.002A1 1 0 0 1 165 122M173 122a1 1 0 1 1-1.998.002A1 1 0 0 1 173 122M181 122a1 1 0 1 1-1.998.002A1 1 0 0 1 181 122M189 122a1 1 0 1 1-1.998.002A1 1 0 0 1 189 122M197 122a1 1 0 1 1-1.998.002A1 1 0 0 1 197 122M5 130a1 1 0 1 1-1.998.002A1 1 0 0 1 5 130M13 130a1 1 0 1 1-1.998.002A1 1 0 0 1 13 130M21 130a1 1 0 1 1-1.998.002A1 1 0 0 1 21 130M29 130a1 1 0 1 1-1.998.002A1 1 0 0 1 29 130M37 130a1 1 0 1 1-1.998.002A1 1 0 0 1 37 130M45 130a1 1 0 1 1-1.998.002A1 1 0 0 1 45 130M53 130a1 1 0 1 1-1.998.002A1 1 0 0 1 53 130M61 130a1 1 0 1 1-1.998.002A1 1 0 0 1 61 130M69 130a1 1 0 1 1-1.998.002A1 1 0 0 1 69 130M77 130a1 1 0 1 1-1.998.002A1 1 0 0 1 77 130M85 130a1 1 0 1 1-1.998.002A1 1 0 0 1 85 130M93 130a1 1 0 1 1-1.998.002A1 1 0 0 1 93 130M101 130a1 1 0 1 1-1.998.002A1 1 0 0 1 101 130M109 130a1 1 0 1 1-1.998.002A1 1 0 0 1 109 130M117 130a1 1 0 1 1-1.998.002A1 1 0 0 1 117 130M125 130a1 1 0 1 1-1.998.002A1 1 0 0 1 125 130M133 130a1 1 0 1 1-1.998.002A1 1 0 0 1 133 130M141 130a1 1 0 1 1-1.998.002A1 1 0 0 1 141 130M149 130a1 1 0 1 1-1.998.002A1 1 0 0 1 149 130M157 130a1 1 0 1 1-1.998.002A1 1 0 0 1 157 130M165 130a1 1 0 1 1-1.998.002A1 1 0 0 1 165 130M173 130a1 1 0 1 1-1.998.002A1 1 0 0 1 173 130M181 130a1 1 0 1 1-1.998.002A1 1 0 0 1 181 130M189 130a1 1 0 1 1-1.998.002A1 1 0 0 1 189 130M197 130a1 1 0 1 1-1.998.002A1 1 0 0 1 197 130M5 138a1 1 0 1 1-1.998.002A1 1 0 0 1 5 138M13 138a1 1 0 1 1-1.998.002A1 1 0 0 1 13 138M21 138a1 1 0 1 1-1.998.002A1 1 0 0 1 21 138M29 138a1 1 0 1 1-1.998.002A1 1 0 0 1 29 138M37 138a1 1 0 1 1-1.998.002A1 1 0 0 1 37 138M45 138a1 1 0 1 1-1.998.002A1 1 0 0 1 45 138M53 138a1 1 0 1 1-1.998.002A1 1 0 0 1 53 138M61 138a1 1 0 1 1-1.998.002A1 1 0 0 1 61 138M69 138a1 1 0 1 1-1.998.002A1 1 0 0 1 69 138M77 138a1 1 0 1 1-1.998.002A1 1 0 0 1 77 138M85 138a1 1 0 1 1-1.998.002A1 1 0 0 1 85 138M93 138a1 1 0 1 1-1.998.002A1 1 0 0 1 93 138M101 138a1 1 0 1 1-1.998.002A1 1 0 0 1 101 138M109 138a1 1 0 1 1-1.998.002A1 1 0 0 1 109 138M117 138a1 1 0 1 1-1.998.002A1 1 0 0 1 117 138M125 138a1 1 0 1 1-1.998.002A1 1 0 0 1 125 138M133 138a1 1 0 1 1-1.998.002A1 1 0 0 1 133 138M141 138a1 1 0 1 1-1.998.002A1 1 0 0 1 141 138M149 138a1 1 0 1 1-1.998.002A1 1 0 0 1 149 138M157 138a1 1 0 1 1-1.998.002A1 1 0 0 1 157 138M165 138a1 1 0 1 1-1.998.002A1 1 0 0 1 165 138M173 138a1 1 0 1 1-1.998.002A1 1 0 0 1 173 138M181 138a1 1 0 1 1-1.998.002A1 1 0 0 1 181 138M189 138a1 1 0 1 1-1.998.002A1 1 0 0 1 189 138M197 138a1 1 0 1 1-1.998.002A1 1 0 0 1 197 138M5 146a1 1 0 1 1-1.998.002A1 1 0 0 1 5 146M13 146a1 1 0 1 1-1.998.002A1 1 0 0 1 13 146M21 146a1 1 0 1 1-1.998.002A1 1 0 0 1 21 146M29 146a1 1 0 1 1-1.998.002A1 1 0 0 1 29 146M37 146a1 1 0 1 1-1.998.002A1 1 0 0 1 37 146M45 146a1 1 0 1 1-1.998.002A1 1 0 0 1 45 146M53 146a1 1 0 1 1-1.998.002A1 1 0 0 1 53 146M61 146a1 1 0 1 1-1.998.002A1 1 0 0 1 61 146M69 146a1 1 0 1 1-1.998.002A1 1 0 0 1 69 146M77 146a1 1 0 1 1-1.998.002A1 1 0 0 1 77 146M85 146a1 1 0 1 1-1.998.002A1 1 0 0 1 85 146M93 146a1 1 0 1 1-1.998.002A1 1 0 0 1 93 146M101 146a1 1 0 1 1-1.998.002A1 1 0 0 1 101 146M109 146a1 1 0 1 1-1.998.002A1 1 0 0 1 109 146M117 146a1 1 0 1 1-1.998.002A1 1 0 0 1 117 146M125 146a1 1 0 1 1-1.998.002A1 1 0 0 1 125 146M133 146a1 1 0 1 1-1.998.002A1 1 0 0 1 133 146M141 146a1 1 0 1 1-1.998.002A1 1 0 0 1 141 146M149 146a1 1 0 1 1-1.998.002A1 1 0 0 1 149 146M157 146a1 1 0 1 1-1.998.002A1 1 0 0 1 157 146M165 146a1 1 0 1 1-1.998.002A1 1 0 0 1 165 146M173 146a1 1 0 1 1-1.998.002A1 1 0 0 1 173 146M181 146a1 1 0 1 1-1.998.002A1 1 0 0 1 181 146M189 146a1 1 0 1 1-1.998.002A1 1 0 0 1 189 146M197 146a1 1 0 1 1-1.998.002A1 1 0 0 1 197 146M5 154a1 1 0 1 1-1.998.002A1 1 0 0 1 5 154M13 154a1 1 0 1 1-1.998.002A1 1 0 0 1 13 154M21 154a1 1 0 1 1-1.998.002A1 1 0 0 1 21 154M29 154a1 1 0 1 1-1.998.002A1 1 0 0 1 29 154M37 154a1 1 0 1 1-1.998.002A1 1 0 0 1 37 154M45 154a1 1 0 1 1-1.998.002A1 1 0 0 1 45 154M53 154a1 1 0 1 1-1.998.002A1 1 0 0 1 53 154M61 154a1 1 0 1 1-1.998.002A1 1 0 0 1 61 154M69 154a1 1 0 1 1-1.998.002A1 1 0 0 1 69 154M77 154a1 1 0 1 1-1.998.002A1 1 0 0 1 77 154M85 154a1 1 0 1 1-1.998.002A1 1 0 0 1 85 154M93 154a1 1 0 1 1-1.998.002A1 1 0 0 1 93 154M101 154a1 1 0 1 1-1.998.002A1 1 0 0 1 101 154M109 154a1 1 0 1 1-1.998.002A1 1 0 0 1 109 154M117 154a1 1 0 1 1-1.998.002A1 1 0 0 1 117 154M125 154a1 1 0 1 1-1.998.002A1 1 0 0 1 125 154M133 154a1 1 0 1 1-1.998.002A1 1 0 0 1 133 154M141 154a1 1 0 1 1-1.998.002A1 1 0 0 1 141 154M149 154a1 1 0 1 1-1.998.002A1 1 0 0 1 149 154M157 154a1 1 0 1 1-1.998.002A1 1 0 0 1 157 154M165 154a1 1 0 1 1-1.998.002A1 1 0 0 1 165 154M173 154a1 1 0 1 1-1.998.002A1 1 0 0 1 173 154M181 154a1 1 0 1 1-1.998.002A1 1 0 0 1 181 154M189 154a1 1 0 1 1-1.998.002A1 1 0 0 1 189 154M197 154a1 1 0 1 1-1.998.002A1 1 0 0 1 197 154M5 162a1 1 0 1 1-1.998.002A1 1 0 0 1 5 162M13 162a1 1 0 1 1-1.998.002A1 1 0 0 1 13 162M21 162a1 1 0 1 1-1.998.002A1 1 0 0 1 21 162M29 162a1 1 0 1 1-1.998.002A1 1 0 0 1 29 162M37 162a1 1 0 1 1-1.998.002A1 1 0 0 1 37 162M45 162a1 1 0 1 1-1.998.002A1 1 0 0 1 45 162M53 162a1 1 0 1 1-1.998.002A1 1 0 0 1 53 162M61 162a1 1 0 1 1-1.998.002A1 1 0 0 1 61 162M69 162a1 1 0 1 1-1.998.002A1 1 0 0 1 69 162M77 162a1 1 0 1 1-1.998.002A1 1 0 0 1 77 162M85 162a1 1 0 1 1-1.998.002A1 1 0 0 1 85 162M93 162a1 1 0 1 1-1.998.002A1 1 0 0 1 93 162M101 162a1 1 0 1 1-1.998.002A1 1 0 0 1 101 162M109 162a1 1 0 1 1-1.998.002A1 1 0 0 1 109 162M117 162a1 1 0 1 1-1.998.002A1 1 0 0 1 117 162M125 162a1 1 0 1 1-1.998.002A1 1 0 0 1 125 162M133 162a1 1 0 1 1-1.998.002A1 1 0 0 1 133 162M141 162a1 1 0 1 1-1.998.002A1 1 0 0 1 141 162M149 162a1 1 0 1 1-1.998.002A1 1 0 0 1 149 162M157 162a1 1 0 1 1-1.998.002A1 1 0 0 1 157 162M165 162a1 1 0 1 1-1.998.002A1 1 0 0 1 165 162M173 162a1 1 0 1 1-1.998.002A1 1 0 0 1 173 162M181 162a1 1 0 1 1-1.998.002A1 1 0 0 1 181 162M189 162a1 1 0 1 1-1.998.002A1 1 0 0 1 189 162M197 162a1 1 0 1 1-1.998.002A1 1 0 0 1 197 162M5 170a1 1 0 1 1-1.998.002A1 1 0 0 1 5 170M13 170a1 1 0 1 1-1.998.002A1 1 0 0 1 13 170M21 170a1 1 0 1 1-1.998.002A1 1 0 0 1 21 170M29 170a1 1 0 1 1-1.998.002A1 1 0 0 1 29 170M37 170a1 1 0 1 1-1.998.002A1 1 0 0 1 37 170M45 170a1 1 0 1 1-1.998.002A1 1 0 0 1 45 170M53 170a1 1 0 1 1-1.998.002A1 1 0 0 1 53 170M61 170a1 1 0 1 1-1.998.002A1 1 0 0 1 61 170M69 170a1 1 0 1 1-1.998.002A1 1 0 0 1 69 170M77 170a1 1 0 1 1-1.998.002A1 1 0 0 1 77 170M85 170a1 1 0 1 1-1.998.002A1 1 0 0 1 85 170M93 170a1 1 0 1 1-1.998.002A1 1 0 0 1 93 170M101 170a1 1 0 1 1-1.998.002A1 1 0 0 1 101 170M109 170a1 1 0 1 1-1.998.002A1 1 0 0 1 109 170M117 170a1 1 0 1 1-1.998.002A1 1 0 0 1 117 170M125 170a1 1 0 1 1-1.998.002A1 1 0 0 1 125 170M133 170a1 1 0 1 1-1.998.002A1 1 0 0 1 133 170M141 170a1 1 0 1 1-1.998.002A1 1 0 0 1 141 170M149 170a1 1 0 1 1-1.998.002A1 1 0 0 1 149 170M157 170a1 1 0 1 1-1.998.002A1 1 0 0 1 157 170M165 170a1 1 0 1 1-1.998.002A1 1 0 0 1 165 170M173 170a1 1 0 1 1-1.998.002A1 1 0 0 1 173 170M181 170a1 1 0 1 1-1.998.002A1 1 0 0 1 181 170M189 170a1 1 0 1 1-1.998.002A1 1 0 0 1 189 170M197 170a1 1 0 1 1-1.998.002A1 1 0 0 1 197 170M5 179a1 1 0 1 1-1.998.002A1 1 0 0 1 5 179M13 179a1 1 0 1 1-1.998.002A1 1 0 0 1 13 179M21 179a1 1 0 1 1-1.998.002A1 1 0 0 1 21 179M29 179a1 1 0 1 1-1.998.002A1 1 0 0 1 29 179M37 179a1 1 0 1 1-1.998.002A1 1 0 0 1 37 179M45 179a1 1 0 1 1-1.998.002A1 1 0 0 1 45 179M53 179a1 1 0 1 1-1.998.002A1 1 0 0 1 53 179M61 179a1 1 0 1 1-1.998.002A1 1 0 0 1 61 179M69 179a1 1 0 1 1-1.998.002A1 1 0 0 1 69 179M77 179a1 1 0 1 1-1.998.002A1 1 0 0 1 77 179M85 179a1 1 0 1 1-1.998.002A1 1 0 0 1 85 179M93 179a1 1 0 1 1-1.998.002A1 1 0 0 1 93 179M101 179a1 1 0 1 1-1.998.002A1 1 0 0 1 101 179M109 179a1 1 0 1 1-1.998.002A1 1 0 0 1 109 179M117 179a1 1 0 1 1-1.998.002A1 1 0 0 1 117 179M125 179a1 1 0 1 1-1.998.002A1 1 0 0 1 125 179M133 179a1 1 0 1 1-1.998.002A1 1 0 0 1 133 179M141 179a1 1 0 1 1-1.998.002A1 1 0 0 1 141 179M149 179a1 1 0 1 1-1.998.002A1 1 0 0 1 149 179M157 179a1 1 0 1 1-1.998.002A1 1 0 0 1 157 179M165 179a1 1 0 1 1-1.998.002A1 1 0 0 1 165 179M173 179a1 1 0 1 1-1.998.002A1 1 0 0 1 173 179M181 179a1 1 0 1 1-1.998.002A1 1 0 0 1 181 179M189 179a1 1 0 1 1-1.998.002A1 1 0 0 1 189 179M197 179a1 1 0 1 1-1.998.002A1 1 0 0 1 197 179M5 187a1 1 0 1 1-1.998.002A1 1 0 0 1 5 187M13 187a1 1 0 1 1-1.998.002A1 1 0 0 1 13 187M21 187a1 1 0 1 1-1.998.002A1 1 0 0 1 21 187M29 187a1 1 0 1 1-1.998.002A1 1 0 0 1 29 187M37 187a1 1 0 1 1-1.998.002A1 1 0 0 1 37 187M45 187a1 1 0 1 1-1.998.002A1 1 0 0 1 45 187M53 187a1 1 0 1 1-1.998.002A1 1 0 0 1 53 187M61 187a1 1 0 1 1-1.998.002A1 1 0 0 1 61 187M69 187a1 1 0 1 1-1.998.002A1 1 0 0 1 69 187M77 187a1 1 0 1 1-1.998.002A1 1 0 0 1 77 187M85 187a1 1 0 1 1-1.998.002A1 1 0 0 1 85 187M93 187a1 1 0 1 1-1.998.002A1 1 0 0 1 93 187M101 187a1 1 0 1 1-1.998.002A1 1 0 0 1 101 187M109 187a1 1 0 1 1-1.998.002A1 1 0 0 1 109 187M117 187a1 1 0 1 1-1.998.002A1 1 0 0 1 117 187M125 187a1 1 0 1 1-1.998.002A1 1 0 0 1 125 187M133 187a1 1 0 1 1-1.998.002A1 1 0 0 1 133 187M141 187a1 1 0 1 1-1.998.002A1 1 0 0 1 141 187M149 187a1 1 0 1 1-1.998.002A1 1 0 0 1 149 187M157 187a1 1 0 1 1-1.998.002A1 1 0 0 1 157 187M165 187a1 1 0 1 1-1.998.002A1 1 0 0 1 165 187M173 187a1 1 0 1 1-1.998.002A1 1 0 0 1 173 187M181 187a1 1 0 1 1-1.998.002A1 1 0 0 1 181 187M189 187a1 1 0 1 1-1.998.002A1 1 0 0 1 189 187M197 187a1 1 0 1 1-1.998.002A1 1 0 0 1 197 187M5 195a1 1 0 1 1-1.998.002A1 1 0 0 1 5 195M13 195a1 1 0 1 1-1.998.002A1 1 0 0 1 13 195M21 195a1 1 0 1 1-1.998.002A1 1 0 0 1 21 195M29 195a1 1 0 1 1-1.998.002A1 1 0 0 1 29 195M37 195a1 1 0 1 1-1.998.002A1 1 0 0 1 37 195M45 195a1 1 0 1 1-1.998.002A1 1 0 0 1 45 195M53 195a1 1 0 1 1-1.998.002A1 1 0 0 1 53 195M61 195a1 1 0 1 1-1.998.002A1 1 0 0 1 61 195M69 195a1 1 0 1 1-1.998.002A1 1 0 0 1 69 195M77 195a1 1 0 1 1-1.998.002A1 1 0 0 1 77 195M85 195a1 1 0 1 1-1.998.002A1 1 0 0 1 85 195M93 195a1 1 0 1 1-1.998.002A1 1 0 0 1 93 195M101 195a1 1 0 1 1-1.998.002A1 1 0 0 1 101 195M109 195a1 1 0 1 1-1.998.002A1 1 0 0 1 109 195M117 195a1 1 0 1 1-1.998.002A1 1 0 0 1 117 195M125 195a1 1 0 1 1-1.998.002A1 1 0 0 1 125 195M133 195a1 1 0 1 1-1.998.002A1 1 0 0 1 133 195M141 195a1 1 0 1 1-1.998.002A1 1 0 0 1 141 195M149 195a1 1 0 1 1-1.998.002A1 1 0 0 1 149 195M157 195a1 1 0 1 1-1.998.002A1 1 0 0 1 157 195M165 195a1 1 0 1 1-1.998.002A1 1 0 0 1 165 195M173 195a1 1 0 1 1-1.998.002A1 1 0 0 1 173 195M181 195a1 1 0 1 1-1.998.002A1 1 0 0 1 181 195M189 195a1 1 0 1 1-1.998.002A1 1 0 0 1 189 195M197 195a1 1 0 1 1-1.998.002A1 1 0 0 1 197 195"/>
        </g>
    </g>
</svg>
