<svg width="16" height="16" viewBox="0 0 16 16" xmlns="http://www.w3.org/2000/svg">
    <g fill="none" fill-rule="evenodd">
        <path fill="none" d="M0 0h16v16H0z"/>
        <path d="M8 3a5 5 0 0 1 4.567 2.962.5.5 0 1 1-.913.408 4 4 0 1 0-.064 3.397.5.5 0 0 1 .896.443A5.009 5.009 0 0 1 8 13 5 5 0 0 1 8 3z" fill="#222" fill-rule="nonzero"/>
        <path d="m12.297 7.265-2.09-.984a.358.358 0 0 1-.025-.637l2.271-1.296c.175-.1.398-.04.498.132a.357.357 0 0 1 .048.208l-.182 2.28a.363.363 0 0 1-.52.297z" fill="#222"/>
    </g>
</svg>
