<svg width="30" height="30" viewBox="0 0 30 30" xmlns="http://www.w3.org/2000/svg">
    <defs>
        <linearGradient x1="50%" y1="0%" x2="50%" y2="100%" id="ha5k9xpeia">
            <stop stop-color="#FE8578" offset="0%"/>
            <stop stop-color="#FD7768" offset="100%"/>
        </linearGradient>
    </defs>
    <g fill="none" fill-rule="evenodd">
        <path fill="none" d="M0 0h30v30H0z"/>
        <path d="M7.902 20C7.403 20 7 19.58 7 19.06v-2.12c0-.52.403-.94.902-.94h14.196c.498 0 .902.42.902.94v2.12c0 .52-.404.94-.902.94H7.902z" fill="url(#ha5k9xpeia)"/>
        <path d="M7.498 9.25a.75.75 0 0 1 .101 1.493l-.101.007H5.424c-.353 0-.617.2-.666.424l-.008.075v10.178c0 .4.385.767.918.817l.126.006h18.412c.555 0 .98-.338 1.037-.731l.007-.092V11.25c0-.227-.228-.45-.56-.492l-.114-.007h-1.942a.75.75 0 0 1-.102-1.493l.102-.007h1.942c1.129 0 2.087.798 2.168 1.854l.006.145v10.178c0 1.254-1.068 2.241-2.379 2.318l-.165.005h-.849l.552 1.063a.75.75 0 0 1-1.277.779l-.053-.087-.913-1.755H8.577l-.912 1.755a.75.75 0 0 1-1.371-.599l.04-.093.552-1.063H5.794c-1.33 0-2.45-.937-2.538-2.168l-.006-.155V11.25c0-1.078.91-1.923 2.022-1.994l.152-.005h2.074zm8.209 3.043a1 1 0 1 1-1.413 1.414 1 1 0 0 1 1.413-1.414zM18.953 9.8a.75.75 0 0 1-1.061 1.06 3.792 3.792 0 0 0-5.362 0 .75.75 0 1 1-1.06-1.06 5.292 5.292 0 0 1 7.483 0zm1.853-2.202a.75.75 0 0 1-1.06 1.06 6.515 6.515 0 0 0-9.216 0 .75.75 0 0 1-1.06-1.06 8.015 8.015 0 0 1 11.336 0z" fill="#222" fill-rule="nonzero"/>
    </g>
</svg>
