<svg xmlns="http://www.w3.org/2000/svg" width="36" height="36" viewBox="0 0 36 36">
    <g fill="none" fill-rule="evenodd">
        <g>
            <g>
                <g>
                    <path fill="#D8D8D8" fill-opacity="0" d="M0 0L36 0 36 36 0 36z" transform="translate(-162.000000, -149.000000) translate(55.000000, 149.000000) translate(107.000000, 0.000000)"/>
                    <path fill="#222" fill-rule="nonzero" d="M15.567 7.11L5.505 26.216c-.217.411-.33.87-.33 1.337 0 1.555 1.232 2.822 2.762 2.822h20.125c.463 0 .917-.119 1.323-.344 1.336-.745 1.829-2.45 1.11-3.815L20.432 7.11c-.253-.481-.639-.878-1.11-1.14-1.346-.75-3.03-.236-3.755 1.14zm3.098.04c.242.134.44.338.573.59L29.3 26.844c.38.72.12 1.621-.572 2.006-.205.114-.434.174-.666.174H7.937c-.775 0-1.412-.655-1.412-1.472 0-.247.06-.49.174-.708L16.762 7.74c.351-.667 1.125-.937 1.782-.65l.121.06z" transform="translate(-162.000000, -149.000000) translate(55.000000, 149.000000) translate(107.000000, 0.000000)"/>
                    <path fill="#222" d="M18 23.361c.373 0 .675.302.675.675 0 .373-.302.675-.675.675-.373 0-.675-.302-.675-.675 0-.373.302-.675.675-.675z" transform="translate(-162.000000, -149.000000) translate(55.000000, 149.000000) translate(107.000000, 0.000000)"/>
                    <path fill="#222" fill-rule="nonzero" d="M18 15.075c.342 0 .624.254.669.583l.006.092v5.38c0 .373-.302.675-.675.675-.342 0-.624-.254-.669-.583l-.006-.092v-5.38c0-.373.302-.675.675-.675z" transform="translate(-162.000000, -149.000000) translate(55.000000, 149.000000) translate(107.000000, 0.000000)"/>
                </g>
            </g>
        </g>
    </g>
</svg>
