<svg width="52" height="52" viewBox="0 0 52 52" xmlns="http://www.w3.org/2000/svg">
    <g fill="none" fill-rule="evenodd">
        <rect fill="#FFF" fill-rule="nonzero" width="52" height="52" rx="26"/>
        <path d="M25.995 15.5c-6.901 0-12.495 4.414-12.495 9.857 0 3.375 2.149 6.354 5.427 8.13 0 0-.443 2.358-2.92 4.618 0 0-.245.43.49.27.735-.161 5.303-1.774 7.319-3.309 0 0 1.435.15 2.179.15 6.9 0 12.495-4.414 12.495-9.859 0-5.443-5.595-9.857-12.495-9.857h0z" stroke="#333" stroke-linecap="square" stroke-linejoin="round"/>
        <path d="M21.042 23.09H17.77a.545.545 0 0 0-.557.532c0 .295.25.534.557.534h1.063v3.753c0 .137.059.27.16.368.1.097.24.152.383.152h.12a.553.553 0 0 0 .381-.152.512.512 0 0 0 .16-.368v-3.753h1.005a.545.545 0 0 0 .557-.534.545.545 0 0 0-.557-.532M28.905 27.427h-1.521v-3.834c0-.32-.27-.578-.604-.578a.592.592 0 0 0-.604.578v4.133a.56.56 0 0 0 .01.092.455.455 0 0 0-.01.093c0 .267.226.484.506.484h2.223c.28 0 .505-.217.505-.484a.495.495 0 0 0-.505-.484M33.767 27.603l-1.696-2.133 1.533-1.468a.493.493 0 0 0 0-.719.548.548 0 0 0-.752 0l-1.896 1.816v-1.506c0-.32-.271-.578-.604-.578a.592.592 0 0 0-.604.578v4.26c0 .32.27.578.604.578a.591.591 0 0 0 .604-.579v-1.314l.344-.33 1.604 2.016a.555.555 0 0 0 .756.103.503.503 0 0 0 .107-.724M22.55 26.358l.749-2.049.024.002.75 2.047h-1.524zm3.175 1.383-1.631-4.272-.006-.004c-.104-.26-.405-.45-.764-.45-.398 0-.727.232-.792.537a.736.736 0 0 0-.032.07l-1.603 4.12c-.1.27.05.565.33.66a.547.547 0 0 0 .69-.318l.278-.758h2.232l.277.758c.099.27.408.412.69.317a.512.512 0 0 0 .33-.66z" fill="#333"/>
    </g>
</svg>
