<svg xmlns="http://www.w3.org/2000/svg" width="30" height="30" viewBox="0 0 30 30">
    <defs>
        <linearGradient id="cbxv423zpa" x1="50%" x2="50%" y1="0%" y2="100%">
            <stop offset="0%" stop-color="#FE8578"/>
            <stop offset="100%" stop-color="#FD7768"/>
        </linearGradient>
    </defs>
    <g fill="none" fill-rule="evenodd">
        <g>
            <g>
                <g>
                    <g transform="translate(-205 -475) translate(30 387) translate(160 80) translate(15 8)">
                        <path fill="#F6F8FA" fill-opacity="0" d="M0 0L30 0 30 30 0 30z"/>
                        <path fill="#222" d="M15.707 11.543c.39.39.39 1.023 0 1.414-.39.39-1.023.39-1.414 0-.39-.39-.39-1.023 0-1.414.39-.39 1.023-.39 1.414 0"/>
                        <path fill="#222" fill-rule="nonzero" d="M11.32 9.35c2.067-2.067 5.416-2.067 7.483 0 .292.292.292.767 0 1.06-.293.293-.768.293-1.061 0-1.48-1.48-3.88-1.48-5.362 0-.293.293-.768.293-1.06 0-.293-.293-.293-.768 0-1.06z"/>
                        <path fill="#222" fill-rule="nonzero" d="M22.967 9.465c.38 0 .693.282.743.648l.007.102-.001 6.035H24c1.463 0 2.658 1.142 2.745 2.582l.005.168v3c0 1.519-1.231 2.75-2.75 2.75H6c-1.519 0-2.75-1.231-2.75-2.75v-3c0-1.519 1.231-2.75 2.75-2.75h.216v-6.035c0-.414.336-.75.75-.75.38 0 .694.282.744.648l.007.102-.001 6.035h14.5v-6.035c0-.414.336-.75.75-.75zM24 17.75H6c-.69 0-1.25.56-1.25 1.25v3c0 .69.56 1.25 1.25 1.25h18c.69 0 1.25-.56 1.25-1.25v-3c0-.69-.56-1.25-1.25-1.25z"/>
                        <rect width="18" height="3" x="6" y="19" fill="url(#cbxv423zpa)" rx="1"/>
                        <path fill="#222" fill-rule="nonzero" d="M9.37 7.148c3.13-3.13 8.205-3.13 11.336 0 .293.293.293.768 0 1.06-.293.294-.768.294-1.06 0-2.546-2.544-6.67-2.544-9.216 0-.293.294-.767.294-1.06 0-.293-.292-.293-.767 0-1.06z"/>
                    </g>
                </g>
            </g>
        </g>
    </g>
</svg>
