<svg xmlns="http://www.w3.org/2000/svg" width="24" height="24" viewBox="0 0 24 24">
    <defs>
        <linearGradient id="46d1dx2n0a" x1="50%" x2="50%" y1="0%" y2="100%">
            <stop offset="0%" stop-color="#FE8578"/>
            <stop offset="100%" stop-color="#FD7768"/>
        </linearGradient>
    </defs>
    <g fill="none" fill-rule="evenodd">
        <g>
            <g>
                <path fill="#D8D8D8" fill-opacity="0" d="M0 0L24 0 24 24 0 24z" transform="translate(-20 -1412) translate(20 1412)"/>
                <path fill="#222" fill-rule="nonzero" d="M9.25 4.25c1.105 0 2 .895 2 2v3c0 1.105-.895 2-2 2h-3c-1.105 0-2-.895-2-2v-3c0-1.105.895-2 2-2h3zm0 1h-3c-.513 0-.936.386-.993.883l-.007.117v3c0 .513.386.936.883.993l.117.007h3c.513 0 .936-.386.993-.883l.007-.117v-3c0-.513-.386-.936-.883-.993L9.25 5.25zM9.25 12.75c1.105 0 2 .895 2 2v3c0 1.105-.895 2-2 2h-3c-1.105 0-2-.895-2-2v-3c0-1.105.895-2 2-2h3zm0 1h-3c-.513 0-.936.386-.993.883l-.007.117v3c0 .513.386.936.883.993l.117.007h3c.513 0 .936-.386.993-.883l.007-.117v-3c0-.513-.386-.936-.883-.993l-.117-.007zM17.75 4.25c1.105 0 2 .895 2 2v3c0 1.105-.895 2-2 2h-3c-1.105 0-2-.895-2-2v-3c0-1.105.895-2 2-2h3zm0 1h-3c-.513 0-.936.386-.993.883l-.007.117v3c0 .513.386.936.883.993l.117.007h3c.513 0 .936-.386.993-.883l.007-.117v-3c0-.513-.386-.936-.883-.993l-.117-.007z" transform="translate(-20 -1412) translate(20 1412)"/>
                <path fill="url(#46d1dx2n0a)" d="M14.75 12.75h3c1.105 0 2 .895 2 2v3c0 1.105-.895 2-2 2h-3c-1.105 0-2-.895-2-2v-3c0-1.105.895-2 2-2z" transform="translate(-20 -1412) translate(20 1412)"/>
                <path fill="#222" fill-rule="nonzero" d="M17.278 15.118c.196-.194.513-.192.707.004.173.175.19.444.054.639l-.058.068-1.859 1.839c-.166.164-.42.189-.612.071l-.078-.059-.87-.801c-.204-.188-.217-.504-.03-.707.167-.18.435-.21.635-.084l.072.055.518.478 1.52-1.503z" transform="translate(-20 -1412) translate(20 1412)"/>
            </g>
        </g>
    </g>
</svg>
