<svg xmlns="http://www.w3.org/2000/svg" xmlns:xlink="http://www.w3.org/1999/xlink" width="60" height="60" viewBox="0 0 60 60">
    <defs>
        <filter id="zuzempsh7b" width="109.5%" height="106.7%" x="-4.7%" y="-3.3%" filterUnits="objectBoundingBox">
            <feGaussianBlur in="SourceAlpha" result="shadowBlurInner1" stdDeviation="1.5"/>
            <feOffset dy="1" in="shadowBlurInner1" result="shadowOffsetInner1"/>
            <feComposite in="shadowOffsetInner1" in2="SourceAlpha" k2="-1" k3="1" operator="arithmetic" result="shadowInnerInner1"/>
            <feColorMatrix in="shadowInnerInner1" values="0 0 0 0 0 0 0 0 0 0 0 0 0 0 0 0 0 0 0.5 0"/>
        </filter>
        <path id="9xu2ebcywa" d="M37.288 0l.234.005c2.634.124 4.732 2.326 4.732 5.024V51.97l-.006.237C42.126 54.875 39.952 57 37.288 57l-20.444-.001-.054.118-.006.013v1.153l-.008.165c-.082.87-.8 1.552-1.675 1.552H1.682l-.162-.008C.667 59.91 0 59.175 0 58.282V32.56l.008-.164c.035-.382.193-.742.45-1.022l7.208-7.84.123-.122c.08-.072.167-.135.257-.188V5.03l.006-.236C8.174 2.125 10.348 0 13.012 0h24.276zM8.046 28.095L3.31 33.248l.001 19.328c.035.137.053.28.053.429v3.559h10.063c.02-.216.08-.426.177-.62 1.953-3.902 1.953-7.09.113-9.811-.464-.687-.378-1.614.204-2.2l.243-.244 3.444-3.522 1.612-1.63c.742-.74.742-1.944-.008-2.702-.547-.551-1.81-.36-2.668.484L8.22 44.336c-.677.65-1.742.616-2.378-.075-.636-.691-.603-1.778.074-2.428l2.13-2.052V28.095zM37.288 3.353H13.012l-.16.008c-.839.08-1.495.797-1.495 1.668l-.001 31.564 2.856-2.75c1.984-1.948 5.148-2.475 7.192-.616l.172.165c2.087 2.105 2.087 5.52-.008 7.604l-.255.255-4.09 4.174.153.308c1.153 2.42 1.37 5.076.675 7.914h19.237l.16-.008c.839-.081 1.495-.797 1.495-1.669V5.03l-.007-.162c-.08-.85-.788-1.515-1.648-1.515zM26.86 47.268l.165.008c.867.084 1.546.827 1.546 1.73 0 .96-.766 1.738-1.71 1.738H23.44l-.165-.008c-.867-.084-1.546-.827-1.546-1.73 0-.96.766-1.738 1.71-1.738h3.421zM24.796 25.72c1.752 0 3.397.714 4.644 1.961.667.667.665 1.745-.004 2.409-.67.664-1.752.662-2.419-.005-.62-.62-1.4-.958-2.22-.958-.814 0-1.588.332-2.206.942-.67.662-1.753.657-2.418-.01-.665-.668-.66-1.747.01-2.409 1.245-1.228 2.876-1.93 4.613-1.93zm-.014-5.56c3.304 0 6.41 1.443 8.787 3.986.635.68.633 1.78-.005 2.458-.637.677-1.67.675-2.305-.005-1.778-1.903-4.061-2.964-6.477-2.964-2.396 0-4.66 1.043-6.433 2.916-.639.675-1.67.67-2.305-.011-.633-.682-.629-1.782.01-2.458 2.37-2.504 5.452-3.923 8.728-3.923z"/>
    </defs>
    <g fill="none" fill-rule="evenodd">
        <g>
            <g>
                <g>
                    <path fill="#D8D8D8" fill-opacity="0" d="M0 0L60 0 60 60 0 60z" transform="translate(-44 -96) translate(20 40) translate(24 56)"/>
                    <g fill-rule="nonzero" opacity=".3" transform="translate(-44 -96) translate(20 40) translate(24 56)">
                        <use fill="#C8C8C8" xlink:href="#9xu2ebcywa"/>
                        <use fill="#000" filter="url(#zuzempsh7b)" xlink:href="#9xu2ebcywa"/>
                    </g>
                </g>
            </g>
        </g>
    </g>
</svg>
