<svg width="30" height="30" viewBox="0 0 30 30" xmlns="http://www.w3.org/2000/svg">
    <defs>
        <linearGradient x1="50%" y1="0%" x2="50%" y2="100%" id="rx4vwkyj2a">
            <stop stop-color="#FE8578" offset="0%"/>
            <stop stop-color="#FD7768" offset="100%"/>
        </linearGradient>
    </defs>
    <g fill="none" fill-rule="evenodd">
        <path d="M0 0h30v30H0z"/>
        <path d="m15.69 5.75 3.56 3.56V20c0 .621-.252 1.184-.659 1.591-.407.407-.97.659-1.591.659H9a2.243 2.243 0 0 1-1.591-.659A2.243 2.243 0 0 1 6.75 20V8c0-.621.252-1.184.659-1.591.407-.407.97-.659 1.591-.659h6.69z" stroke="#222" stroke-width="1.5" fill="#FFF"/>
        <path d="M3.889 7h6.222c.491 0 .889.326.889.727v6.546c0 .401-.398.727-.889.727H3.89C3.398 15 3 14.674 3 14.273V7.727C3 7.326 3.398 7 3.889 7z" stroke="#222" stroke-width="1.5" fill="url(#rx4vwkyj2a)" transform="translate(6 5)"/>
        <path fill="#222" d="M11 14h1v6h-1zM14 12h1v8h-1z"/>
        <path fill="#222" d="M14 14h3v1h-3zM14 17h3v1h-3zM9 17h3v1H9zM9 14h3v1H9z"/>
        <path fill="#FFF" d="M16.75 22.25 17 20l2.065-.665h4.433v6.017H10.5L11 23l1.604-.75z"/>
        <path d="M23.687 18.5a.75.75 0 0 1 .744.648l.006.102v6a.75.75 0 0 1-.648.743l-.102.007H10a.75.75 0 0 1-.75-.75 3.75 3.75 0 0 1 3.55-3.745l.2-.005h2.325c.347-1.711 1.86-3 3.675-3h4.687zm-6.81 3h1.857a.75.75 0 0 1 .102 1.493l-.102.007H13a2.25 2.25 0 0 0-2.073 1.374l-.049.126h12.059V20H19a2.25 2.25 0 0 0-2.122 1.5z" fill="#222" fill-rule="nonzero"/>
    </g>
</svg>
