<svg width="30" height="30" viewBox="0 0 30 30" xmlns="http://www.w3.org/2000/svg" xmlns:xlink="http://www.w3.org/1999/xlink">
    <defs>
        <filter x="-13.5%" y="-9.6%" width="126.9%" height="126.9%" filterUnits="objectBoundingBox" id="1nj41za5ka">
            <feOffset dy="2" in="SourceAlpha" result="shadowOffsetOuter1"/>
            <feGaussianBlur stdDeviation="2" in="shadowOffsetOuter1" result="shadowBlurOuter1"/>
            <feColorMatrix values="0 0 0 0 0 0 0 0 0 0 0 0 0 0 0 0 0 0 0.3 0" in="shadowBlurOuter1"/>
        </filter>
        <rect id="fa5my5orfb" x="0" y="0" width="52" height="52" rx="26"/>
    </defs>
    <g fill-rule="nonzero" fill="none">
        <g transform="translate(-11 -11)">
            <use fill="#000" filter="url(#1nj41za5ka)" xlink:href="#fa5my5orfb"/>
            <use fill="#F76252" xlink:href="#fa5my5orfb"/>
        </g>
        <path d="M17.535 26.879c3.5-.5 7.827-3.963 7.827-9.379v-6.058c0-5.416-4.542-9.806-10.144-9.806h-.749c-5.6 0-10.141 4.386-10.145 9.8v7.91M4.324 19.345c-1.89 0-3.424-1.222-3.424-2.73v-2.963c0-1.508 1.533-2.731 3.424-2.731" stroke="#FFF" stroke-linecap="round"/>
        <path d="M25.362 19.345c1.891 0 3.424-1.222 3.424-2.73v-2.963c0-1.508-1.533-2.731-3.424-2.731" stroke="#FFF" stroke-linecap="round"/>
        <path d="M17.293 27.432c0 .743-.602 1.346-1.346 1.346H13.74a1.346 1.346 0 0 1 0-2.692h2.208c.744 0 1.346.603 1.346 1.346z" stroke="#FFF"/>
    </g>
</svg>
