<svg xmlns="http://www.w3.org/2000/svg" width="12" height="12" viewBox="0 0 12 12">
    <g fill="none" fill-rule="evenodd">
        <g>
            <g>
                <path d="M0 0H12V12H0z" transform="translate(-310 -48) translate(310 48)"/>
                <path fill="#222" fill-rule="nonzero" d="M4.95 2.55c.18-.178.456-.198.657-.059l.07.06 3.087 3.085c.178.179.198.456.06.656l-.06.072-3.086 3.085c-.2.201-.527.201-.727 0-.179-.178-.199-.455-.06-.656l.06-.07L7.673 6 4.95 3.278c-.179-.179-.199-.456-.06-.656l.06-.071z" transform="translate(-310 -48) translate(310 48)"/>
            </g>
        </g>
    </g>
</svg>
