<svg width="30" height="30" viewBox="0 0 30 30" xmlns="http://www.w3.org/2000/svg">
    <g fill="none" fill-rule="evenodd">
        <path d="M0 0h30v30H0z"/>
        <path d="M23 6.75c.897 0 1.71.364 2.298.952.588.588.952 1.4.952 2.298v9a3.24 3.24 0 0 1-.952 2.298A3.24 3.24 0 0 1 23 22.25h-5.375L15 25.75l-2.625-3.5H7a3.24 3.24 0 0 1-2.298-.952A3.24 3.24 0 0 1 3.75 19v-9c0-.897.364-1.71.952-2.298A3.24 3.24 0 0 1 7 6.75z" stroke="#222" stroke-width="1.5" fill="#FFF"/>
        <path d="M8.5 9.75h13a1 1 0 0 1 1 1v7a1 1 0 0 1-1 1h-13a1 1 0 0 1-1-1v-7a1 1 0 0 1 1-1z" fill="#FD7F72"/>
        <path d="m15.15 16.125-1.846.97a.2.2 0 0 1-.29-.21l.353-2.056-1.493-1.455a.2.2 0 0 1 .11-.341l2.064-.3.923-1.87a.2.2 0 0 1 .358 0l.923 1.87 2.063.3a.2.2 0 0 1 .111.341l-1.493 1.455.353 2.055a.2.2 0 0 1-.29.211l-1.846-.97z" fill="#222"/>
    </g>
</svg>
