<svg width="52" height="52" viewBox="0 0 52 52" xmlns="http://www.w3.org/2000/svg">
    <g fill="none" fill-rule="evenodd">
        <rect fill="#FFF" fill-rule="nonzero" width="52" height="52" rx="26"/>
        <path d="M26 15.407c-6.55 0-11.86 4.082-11.86 9.115 0 3.121 2.04 5.875 5.151 7.518 0 0-.42 2.18-2.771 4.27 0 0-.233.398.465.25.698-.15 5.034-1.641 6.947-3.06 0 0 1.362.138 2.068.138 6.55 0 11.86-4.081 11.86-9.116 0-5.033-5.31-9.115-11.86-9.115z" stroke="#333" fill="#FFF"/>
        <path d="M31.091 24.697c4.17 0 7.552 2.599 7.552 5.804 0 1.987-1.3 3.74-3.28 4.787 0 0 .268 1.388 1.765 2.718 0 0 .148.254-.296.16-.445-.096-3.206-1.045-4.424-1.949 0 0-.868.088-1.317.088-4.17 0-7.551-2.599-7.551-5.804s3.38-5.804 7.551-5.804z" stroke="#333" fill="#FFF"/>
        <circle fill="#333" fill-rule="nonzero" cx="28.631" cy="30.859" r="1"/>
        <circle fill="#333" fill-rule="nonzero" cx="31.25" cy="30.859" r="1"/>
        <circle fill="#333" fill-rule="nonzero" cx="33.869" cy="30.859" r="1"/>
    </g>
</svg>
