<svg width="52" height="52" viewBox="0 0 52 52" xmlns="http://www.w3.org/2000/svg">
    <g fill="none" fill-rule="evenodd">
        <rect fill="#FFF" fill-rule="nonzero" width="52" height="52" rx="26"/>
        <path d="M33.248 31.021a2.172 2.172 0 0 0-1.536-.63c-.58 0-1.134.227-1.537.63l-1.332 1.649c-.026.025-.076.05-.177.05-.63 0-2.19-1.159-4.055-3.048l-.378-.352c-2.343-2.368-3.098-3.754-2.821-4.056l1.156-1.472a2.458 2.458 0 0 0 .705-1.738c0-.655-.252-1.26-.705-1.738L20.654 18.4a2.172 2.172 0 0 0-1.537-.63c-.58 0-1.134.227-1.537.63l-1.234 1.235c-.756.755-1.133 1.738-1.033 2.745.277 3.3 3.577 7.683 5.744 9.824l.503.504c2.091 2.116 6.424 5.365 9.699 5.718.125.025.251.025.377.025.932 0 1.814-.378 2.494-1.058l1.234-1.234c.403-.403.63-.957.63-1.537 0-.579-.227-1.133-.63-1.536l-2.116-2.066z" stroke="#333"/>
        <g stroke="#333" stroke-linecap="round">
            <path d="M32.376 27.97a6.628 6.628 0 0 0-6.628-6.628"/>
            <path d="M35.42 27.97c0-5.341-4.33-9.671-9.672-9.671"/>
            <path d="M38.299 27.97c0-6.931-5.62-12.55-12.551-12.55"/>
        </g>
    </g>
</svg>
