<svg xmlns="http://www.w3.org/2000/svg" width="30" height="30" viewBox="0 0 30 30">
    <defs>
        <linearGradient id="99exj03aca" x1="50%" x2="50%" y1="0%" y2="100%">
            <stop offset="0%" stop-color="#FE8578"/>
            <stop offset="100%" stop-color="#FD7768"/>
        </linearGradient>
    </defs>
    <g fill="none" fill-rule="evenodd">
        <g>
            <g>
                <g>
                    <path fill="#F6F8FA" fill-opacity="0" d="M0 0L30 0 30 30 0 30z" transform="translate(-45 -395) translate(30 387) translate(15 8)"/>
                    <path fill="url(#99exj03aca)" d="M8 21.95h14c.552 0 1 .448 1 1v3H7v-3c0-.552.448-1 1-1z" transform="translate(-45 -395) translate(30 387) translate(15 8)"/>
                    <path fill="#222" fill-rule="nonzero" d="M21.546 2.75c1.162 0 2.118.894 2.198 2.03l.006.157v20.126c0 1.157-.905 2.102-2.047 2.182l-.157.005H8.454c-1.162 0-2.118-.894-2.198-2.03l-.006-.157V4.937c0-1.157.905-2.102 2.047-2.182l.157-.005h13.092zm0 1.5H8.454c-.358 0-.651.26-.698.595l-.006.092v20.126c0 .346.263.635.608.68l.096.007h13.092c.358 0 .651-.26.698-.595l.006-.092V4.937c0-.346-.263-.635-.608-.68l-.096-.007z" transform="translate(-45 -395) translate(30 387) translate(15 8)"/>
                    <path fill="#222" fill-rule="nonzero" d="M16 5.7c.414 0 .75.336.75.75 0 .38-.282.693-.648.743L16 7.2h-2c-.414 0-.75-.336-.75-.75 0-.38.282-.693.648-.743L14 5.7h2zM14.1 11.85c.277 0 .5.224.5.5 0 .245-.176.45-.41.492l-.09.008H12.47l-.125.673.156-.004c1.05 0 1.836.756 1.908 1.784l.006.156c0 1.103-.807 1.891-1.914 1.891-.482 0-.94-.172-1.298-.479-.21-.179-.235-.495-.056-.705.18-.21.495-.234.705-.055.18.154.407.239.649.239.56 0 .914-.346.914-.89 0-.561-.37-.941-.914-.941-.188 0-.333.024-.447.072l-.08.042c-.344.214-.773-.049-.764-.432l.009-.084.344-1.858c.039-.208.202-.365.404-.401l.088-.008h2.047zm3.4 0c.264 0 .522.045.768.132.121.043.239.096.352.158.242.133.33.437.196.68-.133.241-.437.33-.679.196-.065-.036-.133-.067-.203-.091-.14-.05-.285-.075-.434-.075-.814 0-1.5.771-1.5 1.75s.686 1.75 1.5 1.75c.193 0 .381-.043.556-.125l.052-.028V15.1h-.53c-.245 0-.45-.177-.492-.41l-.008-.09c0-.245.177-.45.41-.492l.09-.008h1.03c.246 0 .45.177.492.41l.008.09v1.873c0 .158-.074.306-.2.4-.41.308-.898.477-1.408.477-1.395 0-2.5-1.243-2.5-2.75s1.105-2.75 2.5-2.75z" transform="translate(-45 -395) translate(30 387) translate(15 8)"/>
                </g>
            </g>
        </g>
    </g>
</svg>
