<svg xmlns="http://www.w3.org/2000/svg" width="26" height="26" viewBox="0 0 26 26">
    <g fill="none" fill-rule="evenodd">
        <g>
            <g>
                <path d="M0 0H26V26H0z" transform="translate(-298 -327) translate(298 327)"/>
                <g fill="#222" fill-rule="nonzero">
                    <path d="M7.583 0c4.188 0 7.584 3.395 7.584 7.583 0 4.188-3.396 7.584-7.584 7.584S0 11.77 0 7.583 3.395 0 7.583 0zm0 1.625c-3.29 0-5.958 2.668-5.958 5.958 0 3.291 2.668 5.959 5.958 5.959 3.291 0 5.959-2.668 5.959-5.959 0-3.29-2.668-5.958-5.959-5.958z" transform="translate(-298 -327) translate(298 327) translate(4.333 4.333)"/>
                    <path d="M12.07 12.07c.288-.289.74-.315 1.058-.079l.09.079 3.065 3.064c.317.317.317.832 0 1.149-.289.288-.74.315-1.058.079l-.091-.08-3.064-3.063c-.318-.318-.318-.832 0-1.15z" transform="translate(-298 -327) translate(298 327) translate(4.333 4.333)"/>
                </g>
            </g>
        </g>
    </g>
</svg>
