<svg xmlns="http://www.w3.org/2000/svg" width="24" height="24" viewBox="0 0 24 24">
    <defs>
        <linearGradient id="0cxitj053a" x1="50%" x2="50%" y1="0%" y2="100%">
            <stop offset="0%" stop-color="#FE8578"/>
            <stop offset="100%" stop-color="#FD7768"/>
        </linearGradient>
    </defs>
    <g fill="none" fill-rule="evenodd">
        <g>
            <g>
                <path fill="#D8D8D8" fill-opacity="0" d="M0 0L24 0 24 24 0 24z" transform="translate(-20 -444) translate(20 444)"/>
                <path fill="#222" fill-rule="nonzero" d="M20 5c.276 0 .5.224.5.5 0 .245-.177.45-.41.492L20 6h-1.441l2.888 5.776c.124.247.024.548-.223.671-.22.11-.482.043-.624-.147l-.047-.076L18 7.118l-2.553 5.106c-.11.22-.36.323-.587.256l-.084-.033c-.22-.11-.323-.36-.256-.587l.033-.084L17.44 6H12.5v10.5H15c.78 0 1.42.595 1.493 1.356L16.5 18v1c0 .276-.224.5-.5.5H8c-.276 0-.5-.224-.5-.5v-1c0-.828.672-1.5 1.5-1.5h2.5V6H6.559l2.888 5.776c.124.247.024.548-.223.671-.22.11-.482.043-.624-.147l-.047-.076L6 7.118l-2.553 5.106c-.11.22-.36.323-.587.256l-.084-.033c-.22-.11-.323-.36-.256-.587l.033-.084L5.44 6H4c-.276 0-.5-.224-.5-.5 0-.245.177-.45.41-.492L4 5h16zm-5 12.5H9c-.276 0-.5.224-.5.5v.5h7V18c0-.245-.177-.45-.41-.492L15 17.5z" transform="translate(-20 -444) translate(20 444)"/>
                <path fill="url(#0cxitj053a)" fill-rule="nonzero" d="M8.917 11.372c.322 0 .583.299.583.667 0 1.878-1.592 3.333-3.5 3.333s-3.5-1.455-3.5-3.333c0-.368.261-.667.583-.667zm12 0c.322 0 .583.299.583.667 0 1.878-1.592 3.333-3.5 3.333s-3.5-1.455-3.5-3.333c0-.368.261-.667.583-.667z" transform="translate(-20 -444) translate(20 444)"/>
            </g>
        </g>
    </g>
</svg>
