<svg xmlns="http://www.w3.org/2000/svg" width="30" height="30" viewBox="0 0 30 30">
    <defs>
        <linearGradient id="w28q0o5yca" x1="50%" x2="50%" y1="0%" y2="100%">
            <stop offset="0%" stop-color="#FE8578"/>
            <stop offset="100%" stop-color="#FD7768"/>
        </linearGradient>
    </defs>
    <g fill="none" fill-rule="evenodd">
        <g>
            <g>
                <g>
                    <g transform="translate(-205 -395) translate(30 387) translate(160) translate(15 8)">
                        <path fill="#F6F8FA" fill-opacity="0" d="M0 0L30 0 30 30 0 30z"/>
                        <path fill="url(#w28q0o5yca)" d="M4.357 6h4.286C8.84 6 9 6.576 9 7.286v15.428C9 23.424 8.84 24 8.643 24H4.357C4.16 24 4 23.424 4 22.714V7.286C4 6.576 4.16 6 4.357 6z"/>
                        <circle cx="7" cy="15" r="1" fill="#222"/>
                        <path fill="#222" fill-rule="nonzero" d="M24 5.25H6C4.481 5.25 3.25 6.481 3.25 8v14c0 1.519 1.231 2.75 2.75 2.75h18c1.519 0 2.75-1.231 2.75-2.75V8c0-1.519-1.231-2.75-2.75-2.75zM6 6.75h18c.69 0 1.25.56 1.25 1.25v14c0 .69-.56 1.25-1.25 1.25H6c-.69 0-1.25-.56-1.25-1.25V8c0-.69.56-1.25 1.25-1.25z"/>
                        <path fill="#222" fill-rule="nonzero" d="M16.375 12.2c.276 0 .5.224.5.5 0 .245-.177.45-.41.492l-.09.008h-1.632l-.125.673.156-.004c1.05 0 1.836.756 1.908 1.784l.006.156c0 1.103-.807 1.891-1.914 1.891-.482 0-.94-.172-1.299-.479-.21-.179-.235-.495-.055-.705.16-.186.426-.227.631-.107l.074.052c.18.154.407.239.649.239.56 0 .914-.346.914-.89 0-.561-.37-.941-.914-.941-.188 0-.334.024-.448.072l-.08.042c-.344.214-.772-.049-.764-.432l.01-.084.344-1.858c.039-.208.202-.365.403-.401l.089-.008h2.047zm3.399 0c.263 0 .522.045.768.132.12.043.238.096.351.158.242.133.33.437.197.68-.133.241-.437.33-.68.196-.065-.036-.133-.067-.202-.091-.14-.05-.285-.075-.434-.075-.815 0-1.5.771-1.5 1.75s.685 1.75 1.5 1.75c.193 0 .38-.043.556-.125l.051-.028V15.45h-.53c-.245 0-.449-.177-.491-.41l-.008-.09c0-.245.177-.45.41-.492l.09-.008h1.03c.245 0 .45.177.492.41l.008.09v1.873c0 .158-.074.306-.2.4-.41.308-.898.477-1.408.477-1.395 0-2.5-1.243-2.5-2.75s1.105-2.75 2.5-2.75z"/>
                    </g>
                </g>
            </g>
        </g>
    </g>
</svg>
