<svg xmlns="http://www.w3.org/2000/svg" width="30" height="30" viewBox="0 0 30 30">
    <defs>
        <linearGradient id="7d3k13gjka" x1="50%" x2="50%" y1="0%" y2="100%">
            <stop offset="0%" stop-color="#FE8578"/>
            <stop offset="100%" stop-color="#FD7768"/>
        </linearGradient>
    </defs>
    <g fill="none" fill-rule="evenodd">
        <g>
            <g>
                <g>
                    <g transform="translate(-125 -475) translate(30 387) translate(80 80) translate(15 8)">
                        <path fill="#F6F8FA" fill-opacity="0" d="M0 0L30 0 30 30 0 30z"/>
                        <path fill="url(#7d3k13gjka)" d="M9.286 5.95h6.428c.71 0 1.286.448 1.286 1V16l-.568.477c-.045.064-.407.73-.432.801l-.688.403H9.286c-.71 0-1.286-.447-1.286-1V6.95c0-.552.576-1 1.286-1z"/>
                        <path fill="#222" fill-rule="nonzero" d="M17 3.2c1.463 0 2.658 1.142 2.745 2.582l.005.168v7.338l.155-.154c.266-.266.683-.29.977-.073l.084.073c.266.266.29.683.072.976l-.072.085-.99.989c2.224.367 4.051 1.908 4.825 3.965l.486.001c1.184 0 2.113 1.023 2.113 2.25 0 1.174-.85 2.16-1.96 2.244l-.153.006h-.524c-.916 2.314-3.173 3.95-5.813 3.95-2.62 0-4.864-1.612-5.793-3.899L8 23.7c-1.463 0-2.658-1.142-2.745-2.582l-.005-.168v-15c0-1.463 1.142-2.658 2.582-2.745L8 3.2h9zm1.95 13.4c-2.623 0-4.75 2.127-4.75 4.75s2.127 4.75 4.75 4.75 4.75-2.127 4.75-4.75-2.127-4.75-4.75-4.75zm2.615 5.648c.277.308.253.782-.055 1.06-.684.615-1.57.963-2.51.963-.903 0-1.758-.321-2.431-.895-.316-.269-.353-.742-.085-1.057.269-.316.742-.353 1.058-.085.404.345.915.537 1.458.537.565 0 1.095-.208 1.506-.578.307-.277.782-.253 1.059.055zM17.128 4.706L17 4.7H8c-.647 0-1.18.492-1.244 1.122l-.006.128v15c0 .647.492 1.18 1.122 1.244L8 22.2h2.638c-.09-.249-.138-.52-.138-.8 0-1.174.85-2.16 1.96-2.244l.153-.006.486-.001c.788-2.095 2.669-3.654 4.948-3.984l-.97-.97c-.293-.293-.293-.768 0-1.061.266-.266.683-.29.976-.073l.084.073.113.112V5.95c0-.647-.492-1.18-1.122-1.244zm8.16 15.944h-.127c.026.23.039.463.039.7 0 .27-.017.538-.05.8h.137c.322 0 .613-.32.613-.75 0-.39-.24-.69-.526-.742l-.087-.008zm-12.55 0h-.125c-.322 0-.613.32-.613.75 0 .39.24.69.526.742l.087.008h.138c-.034-.262-.051-.53-.051-.8 0-.237.013-.47.039-.7z"/>
                        <circle cx="17.15" cy="20" r="1" fill="#222"/>
                        <circle cx="20.75" cy="20" r="1" fill="#222"/>
                    </g>
                </g>
            </g>
        </g>
    </g>
</svg>
