<svg xmlns="http://www.w3.org/2000/svg" width="30" height="30" viewBox="0 0 30 30">
    <defs>
        <linearGradient id="fws3gvy2la" x1="50%" x2="50%" y1="0%" y2="100%">
            <stop offset="0%" stop-color="#FE8578"/>
            <stop offset="100%" stop-color="#FD7768"/>
        </linearGradient>
    </defs>
    <g fill="none" fill-rule="evenodd">
        <g>
            <g>
                <g>
                    <g>
                        <path fill="#F6F8FA" fill-opacity="0" d="M0 0L30 0 30 30 0 30z" transform="translate(-285 -475) translate(30 387) translate(240 80) translate(15 8)"/>
                        <path fill="url(#fws3gvy2la)" d="M9.75 6.25h7c.552 0 1 .448 1 1v9c0 .552-.448 1-1 1h-7c-.552 0-1-.448-1-1v-9c0-.552.448-1 1-1z" transform="translate(-285 -475) translate(30 387) translate(240 80) translate(15 8)"/>
                        <path fill="#222" fill-rule="nonzero" d="M17.75 3.5c1.463 0 2.658 1.142 2.745 2.582l.005.168V18.5h4.187c.38 0 .694.282.744.648l.006.102v6c0 .38-.282.693-.648.743l-.102.007H11c-.414 0-.75-.336-.75-.75 0-.438.075-.859.213-1.25H8.75c-1.463 0-2.658-1.142-2.745-2.582L6 21.25v-15c0-1.463 1.142-2.658 2.582-2.745L8.75 3.5h9zM23.937 20H20c-.98 0-1.814.626-2.122 1.5h1.856c.414 0 .75.336.75.75 0 .38-.282.693-.648.743l-.102.007H14c-.932 0-1.732.567-2.073 1.374l-.049.126h12.059V20zM17.75 5h-9c-.647 0-1.18.492-1.244 1.122L7.5 6.25v15c0 .647.492 1.18 1.122 1.244l.128.006h2.7c.624-.578 1.445-.947 2.35-.995l.2-.005h2.325c.28-1.385 1.325-2.493 2.675-2.865V6.25c0-.647-.492-1.18-1.122-1.244L17.75 5zm-3.753 14.5c.414 0 .75.336.75.75 0 .38-.282.693-.648.743l-.102.007h-1.515c-.414 0-.75-.336-.75-.75 0-.38.282-.693.648-.743l.102-.007h1.515z" transform="translate(-285 -475) translate(30 387) translate(240 80) translate(15 8)"/>
                    </g>
                </g>
            </g>
        </g>
    </g>
</svg>
